<?xml version="1.0" encoding="utf-8"?>
<!-- Generator: Adobe Illustrator 21.0.0, SVG Export Plug-In . SVG Version: 6.00 Build 0)  -->
<svg version="1.1" id="Слой_1" xmlns="http://www.w3.org/2000/svg" xmlns:xlink="http://www.w3.org/1999/xlink" x="0px" y="0px"
	 viewBox="0 0 84 84" style="enable-background:new 0 0 84 84;" xml:space="preserve">
<style type="text/css">
	.st0{fill:url(#SVGID_1_);}
</style>
<g>
	
		<linearGradient id="SVGID_1_" gradientUnits="userSpaceOnUse" x1="2.1173" y1="42.0263" x2="82.3368" y2="42.0263" gradientTransform="matrix(1 0 0 -1 0 84)">
		<stop  offset="0" style="stop-color:#4FACFE"/>
		<stop  offset="1" style="stop-color:#00F2FE"/>
	</linearGradient>
	<path class="st0" d="M37,47.9l-3-2.5c-0.6-0.5-1.5-0.4-2,0.1l-1.7,1.9c-0.7-0.3-1.3-0.6-2-0.7l-0.1-2.6c0-0.8-0.7-1.4-1.4-1.4h-3.9
		c-0.8,0-1.4,0.6-1.4,1.4l-0.1,2.6c-0.7,0.2-1.4,0.4-2,0.7l-1.7-1.9c-0.5-0.6-1.4-0.6-2-0.1l-3,2.5c-0.6,0.5-0.7,1.4-0.2,2l1.6,2.1
		c-0.4,0.6-0.7,1.2-1,1.8l-2.6-0.3c-0.8-0.1-1.5,0.4-1.6,1.2l-0.7,3.9c-0.5,0.7,0,1.4,0.8,1.6l2.6,0.6c0.1,0.7,0.2,1.3,0.4,2
		l-2.3,1.5c-0.7,0.4-0.9,1.3-0.5,2l0,0l1.9,3.4c0.4,0.7,1.2,0.9,1.9,0.6l2.5-1.3c0.5,0.4,1,0.8,1.6,1.2l-0.8,2.7
		c-0.2,0.7,0.2,1.5,0.9,1.8l3.7,1.3c0.7,0.3,1.5-0.1,1.8-0.8l1.1-2.6c0.6,0.1,1.3,0.1,1.9,0l1.1,2.6c0.3,0.7,1.1,1.1,1.8,0.8
		l3.7-1.3c0.7-0.3,1.1-1.1,0.9-1.8l-0.9-2.7c0.5-0.4,1-0.8,1.5-1.3l2.5,1.3c0.7,0.4,1.5,0.1,1.9-0.6l1.9-3.4
		c0.4-0.7,0.2-1.5-0.5-1.9l-2.3-1.5c0.2-0.7,0.3-1.3,0.4-2l2.6-0.6c0.7-0.2,1.2-0.9,1.1-1.6l-0.7-3.9c-0.1-0.8-0.8-1.3-1.6-1.2
		l-2.6,0.3c-0.3-0.6-0.6-1.3-1-1.8l1.6-2.1C37.7,49.3,37.6,48.4,37,47.9z M36,56.8l2.4-0.3l0.2,1.1l-2.4,0.5
		c-0.7,0.1-1.1,0.7-1.1,1.4c0,1.1-0.2,2.3-0.6,3.3c-0.2,0.6,0,1.4,0.6,1.7l2.1,1.3l-0.6,1l-2.2-1.1c-0.6-0.3-1.3-0.2-1.8,0.3
		c-0.7,0.8-1.6,1.6-2.6,2.1c-0.6,0.3-0.8,1-0.6,1.7l0.8,2.4L29,72.7l-1-2.4c-0.2-0.5-0.7-0.9-1.3-0.9h-0.2c-1.1,0.2-2.2,0.2-3.3,0
		c-0.7-0.1-1.3,0.2-1.6,0.9l-1,2.4l-1.1-0.4l0.8-2.4c0.2-0.6-0.1-1.3-0.6-1.7c-1-0.6-1.8-1.3-2.6-2.1c-0.4-0.5-1.2-0.6-1.8-0.3
		L13,66.9l-0.6-1l2.1-1.3c0.6-0.4,0.8-1.1,0.6-1.7c-0.4-1.1-0.6-2.2-0.6-3.3c0-0.7-0.5-1.2-1.1-1.4L11,57.7l0.2-1.1l2.4,0.3
		c0.7,0.1,1.3-0.3,1.5-1c0.4-1.1,1-2.1,1.7-3c0.4-0.5,0.4-1.3,0-1.8l-1.4-1.8l0.9-0.7l1.6,1.7c0.5,0.5,1.2,0.6,1.8,0.3
		c1-0.6,2.1-1,3.3-1.2c0.7-0.1,1.1-0.7,1.2-1.4l0.1-2.3h1.1l0.1,2.3c0,0.7,0.5,1.2,1.1,1.4c1.2,0.2,2.3,0.6,3.3,1.2
		c0.6,0.3,1.3,0.2,1.8-0.3l1.6-1.7l0.9,0.7l-1.4,1.8c-0.4,0.5-0.4,1.3,0,1.8c0.7,0.9,1.3,1.9,1.7,3C34.6,56.6,35.3,57,36,56.8z
		 M24.7,53.4c-3.3,0-6,2.7-6,6s2.7,6,6,6s6-2.7,6-6C30.7,56,28.1,53.4,24.7,53.4z M24.7,62.5c-1.7,0-3.1-1.4-3.1-3.1
		c0-1.7,1.4-3.1,3.1-3.1s3.1,1.4,3.1,3.1C27.8,61.1,26.5,62.5,24.7,62.5z M43.7,31.7l1.9,3.4c0.4,0.7,1.2,0.9,1.9,0.6l2.5-1.3
		c0.5,0.5,1,0.9,1.6,1.3l-0.9,2.6c-0.3,0.7,0.1,1.6,0.9,1.8l3.7,1.3c0.7,0.3,1.5-0.1,1.8-0.8l1.1-2.6c0.6,0.1,1.3,0.1,1.9,0l1.1,2.6
		c0.3,0.7,1.1,1.1,1.8,0.8l3.7-1.3c0.8-0.3,1.2-1.1,0.9-1.8l-0.8-2.7c0.5-0.4,1-0.8,1.5-1.3l2.5,1.3c0.7,0.4,1.5,0.1,1.9-0.6
		l1.9-3.4c0.4-0.7,0.2-1.5-0.5-1.9l-2.3-1.5c0.2-0.7,0.3-1.3,0.4-2l2.7-0.5c0.8-0.2,1.2-0.9,1.1-1.7l-0.7-3.9
		c-0.1-0.8-0.8-1.3-1.6-1.2l-2.6,0.3c-0.3-0.6-0.6-1.3-1-1.8l1.6-2.1c0.5-0.6,0.4-1.5-0.2-2l-3-2.5c-0.6-0.5-1.5-0.4-2,0.1l-1.7,1.9
		c-0.7-0.3-1.3-0.6-2-0.7l-0.1-2.6c0-0.8-0.7-1.4-1.4-1.4h-3.9c-0.8,0-1.4,0.6-1.4,1.4l-0.1,2.6c-0.7,0.2-1.4,0.4-2,0.7l-2-1.8
		c-0.5-0.6-1.4-0.6-2-0.1l-3,2.5c-0.6,0.5-0.7,1.4-0.2,2l1.6,2.1c-0.4,0.6-0.7,1.2-1,1.8L44.7,19c-0.8-0.1-1.5,0.4-1.6,1.2L42.4,24
		c-0.2,0.8,0.3,1.5,1.1,1.7l2.6,0.6c0.1,0.7,0.2,1.3,0.4,2l-2.3,1.4C43.5,30.2,43.3,31,43.7,31.7z M45.5,23.2l0.2-1.1l2.4,0.3
		c0.7,0.1,1.3-0.3,1.5-1c0.4-1.1,1-2.1,1.7-3c0.4-0.5,0.4-1.3,0-1.8l-1.4-1.8l0.9-0.7l1.6,1.7c0.5,0.5,1.2,0.6,1.8,0.3
		c1-0.6,2.2-1,3.3-1.2c0.7-0.1,1.2-0.7,1.2-1.4l0.1-2.3h1.1l0.1,2.3c0,0.7,0.5,1.2,1.2,1.4c1.2,0.2,2.3,0.6,3.3,1.2
		c0.6,0.3,1.3,0.2,1.8-0.3l1.6-1.7l0.9,0.7l-1.4,1.8c-0.4,0.5-0.4,1.3,0,1.8c0.7,0.9,1.3,1.9,1.7,3c0.2,0.6,0.9,1.1,1.5,1l2.4-0.3
		l0.2,1.1l-2.4,0.5c-0.7,0.1-1.1,0.7-1.1,1.4c0,1.1-0.2,2.3-0.6,3.3c-0.2,0.6,0,1.4,0.6,1.7l2.1,1.3l-0.7,1l-2.2-1.1
		c-0.6-0.3-1.3-0.2-1.8,0.3c-0.7,0.8-1.6,1.6-2.6,2.1c-0.6,0.3-0.8,1-0.6,1.7l0.8,2.4l-1,0.4l-1-2.4c-0.3-0.6-0.9-1-1.6-0.9
		c-1.1,0.2-2.2,0.2-3.3,0c-0.7-0.1-1.3,0.3-1.6,0.9l-1,2.4L54,37.9l0.8-2.4c0.2-0.6-0.1-1.3-0.6-1.7c-1-0.6-1.8-1.3-2.6-2.1
		c-0.4-0.5-1.2-0.7-1.8-0.4l-2.2,1.2l-0.6-1l2.1-1.3c0.6-0.4,0.8-1.1,0.6-1.7c-0.4-1.1-0.6-2.2-0.6-3.3c0-0.7-0.5-1.2-1.1-1.4
		L45.5,23.2z M59.2,30.9c3.3,0,6-2.7,6-6s-2.7-6-6-6s-6,2.7-6,6l0,0C53.2,28.2,55.9,30.9,59.2,30.9L59.2,30.9z M59.2,21.7
		c1.7,0,3.1,1.4,3.1,3.1S60.9,28,59.2,28s-3.1-1.4-3.1-3.1C56.1,23.1,57.5,21.8,59.2,21.7L59.2,21.7z M82,24.9
		c0,12.6-10.2,22.8-22.8,22.8c-2.2,0-4.4-0.3-6.4-0.9l0,0l-5.6-1.6c-0.8-0.3-1.2-1.1-0.9-1.8c0.2-0.7,1-1.1,1.7-0.9l6,1.5
		c10.6,2.9,21.5-3.4,24.3-14s-3.4-21.5-14-24.3S42.9,9.1,40,19.7c-0.9,3.3-0.9,6.8-0.1,10.1L46.6,53c3.5,12.1-3.5,24.7-15.6,28.2
		S6.4,77.7,2.9,65.6S6.4,41,18.5,37.5c4.2-1.2,8.6-1.2,12.7,0l4,1.2c0.8,0.3,1.2,1.1,0.9,1.8c-0.2,0.7-1,1.1-1.7,0.9l-4-1.1
		C19.9,37.2,8.8,43.2,5.7,53.7s2.9,21.6,13.4,24.7S40.7,75.5,43.8,65c1.1-3.6,1.1-7.5,0.1-11.1l-6.5-22.6v-0.1
		C33.8,19.1,40.7,6.4,52.8,2.8s24.7,3.3,28.3,15.4C81.7,20.4,82,22.6,82,24.9z"/>
</g>
</svg>
