<?xml version="1.0" encoding="utf-8"?>
<!-- Generator: Adobe Illustrator 21.0.0, SVG Export Plug-In . SVG Version: 6.00 Build 0)  -->
<svg version="1.1" id="Слой_1" xmlns="http://www.w3.org/2000/svg" xmlns:xlink="http://www.w3.org/1999/xlink" x="0px" y="0px"
	 viewBox="0 0 94 94" style="enable-background:new 0 0 94 94;" xml:space="preserve">
<style type="text/css">
	.st0{fill:url(#SVGID_1_);}
	.st1{fill:url(#SVGID_2_);}
	.st2{fill:url(#SVGID_3_);}
</style>
<g>
	<linearGradient id="SVGID_1_" gradientUnits="userSpaceOnUse" x1="18.0741" y1="46.7625" x2="93" y2="46.7625">
		<stop  offset="0" style="stop-color:#4FACFE"/>
		<stop  offset="1" style="stop-color:#00F2FE"/>
	</linearGradient>
	<path class="st0" d="M82,20.3c-7.1-7.1-16.5-11-26.5-11c-10,0-19.4,3.9-26.5,11c-14.6,14.6-14.6,38.4,0,53c7.1,7.1,16.5,11,26.5,11
		s19.4-3.9,26.5-11c7.1-7.1,11-16.5,11-26.5C93,36.8,89.1,27.3,82,20.3z M57,62c-2,1.7-4.3,2.8-6.1,2.8c-0.6,0-1.4-0.1-1.9-0.7
		c-0.6-0.7-0.7-1.8-0.2-3.1c0.5-1.6,1.7-3.2,3.2-4.6c2-1.7,4.3-2.8,6.1-2.8c0.6,0,1.4,0.1,1.9,0.7C61.5,55.9,59.6,59.6,57,62z
		 M48,66.1c0.8,0.6,1.8,0.9,2.9,0.9c2.4,0,5.2-1.3,7.6-3.4c3.6-3.2,5.1-7.3,3.8-9.9c0,0,0,0,0,0l0,0c8.6-8.6,15.9-18.2,21.4-28
		c1.5,2,2.7,4,3.7,6.2c-5.4,9.3-12.2,18.2-20.5,26.4c-8.2,8.2-17.1,15.1-26.4,20.5c-2.2-1-4.3-2.3-6.2-3.7
		C39,72.4,43.5,69.5,48,66.1z M70.9,15c-5.4,9.4-12.3,18.3-20.6,26.6c-8.3,8.3-17.2,15.2-26.6,20.5c-0.9-1.8-1.6-3.7-2.1-5.6
		c8.6-5.2,16.8-11.7,24.4-19.3c7.6-7.6,14.1-15.8,19.3-24.4C67.3,13.4,69.1,14.1,70.9,15z M30.6,21.8c6.7-6.7,15.5-10.3,24.9-10.3
		c1.1,0,2.2,0.1,3.3,0.2C54.1,19,48.4,26,41.9,32.5c-0.4,0.4-0.4,1.1,0,1.6c0.2,0.2,0.5,0.3,0.8,0.3c0.3,0,0.6-0.1,0.8-0.3
		c6.8-6.8,12.9-14.4,17.8-22.1c0.6,0.1,1.3,0.2,1.9,0.4C58,20.5,51.8,28.4,44.5,35.7C37.2,43,29.3,49.3,21.1,54.3
		C18.6,43,21.8,30.6,30.6,21.8z M24.8,64.1c9.6-5.5,18.7-12.5,27.1-20.9c8.4-8.4,15.5-17.6,20.9-27.1c2.7,1.6,5.3,3.5,7.6,5.8
		c0.6,0.6,1.2,1.3,1.8,2C76.9,33.6,69.5,43.4,60.8,52c-0.7-0.5-1.6-0.7-2.7-0.7c-2.4,0-5.2,1.3-7.6,3.4c-1.8,1.6-3.2,3.6-3.9,5.5
		c-0.5,1.6-0.5,3-0.1,4.1c-4.6,3.5-9.3,6.5-14.1,9.1c-0.7-0.6-1.3-1.2-2-1.8C28.3,69.4,26.4,66.8,24.8,64.1z M80.5,71.7
		C73.8,78.4,64.9,82,55.5,82c-2.3,0-4.6-0.2-6.8-0.7c2.9-1.8,5.7-3.8,8.5-5.9c0.5-0.4,0.6-1.1,0.2-1.5c-0.4-0.5-1.1-0.6-1.5-0.2
		c-3,2.3-7,4.9-10.2,6.9c-0.9-0.2-1.7-0.5-2.5-0.8c9-5.3,17.5-12,25.4-20c7.9-7.9,14.6-16.5,20-25.4c0.3,0.8,0.6,1.7,0.8,2.5
		c-3.6,5.9-8.5,12.6-13.3,18.1c-0.4,0.5-0.4,1.2,0.1,1.6c0.2,0.2,0.5,0.3,0.7,0.3c0.3,0,0.6-0.1,0.8-0.4c4.7-5.3,8.8-10.8,12.4-16.5
		c0.4,2.2,0.6,4.5,0.6,6.8C90.8,56.2,87.1,65,80.5,71.7z"/>
	<linearGradient id="SVGID_2_" gradientUnits="userSpaceOnUse" x1="-2.014160e-03" y1="36.5404" x2="13.0137" y2="36.5404">
		<stop  offset="0" style="stop-color:#4FACFE"/>
		<stop  offset="1" style="stop-color:#00F2FE"/>
	</linearGradient>
	<path class="st1" d="M6.5,30C2.9,30,0,33,0,36.5C0,40.1,2.9,43,6.5,43c3.6,0,6.5-2.9,6.5-6.5C13,33,10.1,30,6.5,30z M6.5,40.8
		c-2.4,0-4.3-1.9-4.3-4.3c0-2.4,1.9-4.3,4.3-4.3s4.3,1.9,4.3,4.3C10.8,38.9,8.9,40.8,6.5,40.8z"/>
	<linearGradient id="SVGID_3_" gradientUnits="userSpaceOnUse" x1="51.0773" y1="59.2262" x2="57.9645" y2="59.2262">
		<stop  offset="0" style="stop-color:#4FACFE"/>
		<stop  offset="1" style="stop-color:#00F2FE"/>
	</linearGradient>
	<path class="st2" d="M55.9,60.7c-1.8,1.6-3.8,2.2-4.5,1.3c-0.7-0.8,0.1-2.8,1.8-4.3c1.8-1.6,3.8-2.2,4.5-1.3
		C58.4,57.2,57.6,59.2,55.9,60.7z"/>
</g>
</svg>
