<?xml version="1.0" encoding="utf-8"?>
<!-- Generator: Adobe Illustrator 21.0.0, SVG Export Plug-In . SVG Version: 6.00 Build 0)  -->
<svg version="1.1" id="Слой_1" xmlns="http://www.w3.org/2000/svg" xmlns:xlink="http://www.w3.org/1999/xlink" x="0px" y="0px"
	 viewBox="0 0 94 94" style="enable-background:new 0 0 94 94;" xml:space="preserve">
<style type="text/css">
	.st0{fill:url(#SVGID_1_);}
	.st1{fill:url(#SVGID_2_);}
	.st2{fill:url(#SVGID_3_);}
</style>
<g>
	<g>
		
			<linearGradient id="SVGID_1_" gradientUnits="userSpaceOnUse" x1="2.75" y1="46.4" x2="91.0481" y2="46.4" gradientTransform="matrix(1 0 0 -1 0 94)">
			<stop  offset="0" style="stop-color:#4FACFE"/>
			<stop  offset="1" style="stop-color:#00F2FE"/>
		</linearGradient>
		<path class="st0" d="M47,13.7c-18.7,0-33.9,15.2-33.9,33.9S28.3,81.5,47,81.5s33.9-15.2,33.9-33.9S65.7,13.7,47,13.7z M47,79.6
			c-17.6,0-32-14.3-32-32c0-17.6,14.3-32,32-32s32,14.3,32,32S64.6,79.6,47,79.6z"/>
		
			<linearGradient id="SVGID_2_" gradientUnits="userSpaceOnUse" x1="2.75" y1="46.9" x2="91.0481" y2="46.9" gradientTransform="matrix(1 0 0 -1 0 94)">
			<stop  offset="0" style="stop-color:#4FACFE"/>
			<stop  offset="1" style="stop-color:#00F2FE"/>
		</linearGradient>
		<path class="st1" d="M90.7,51.3l-2.8-2.9c-2.7-2.8-3.1-7.1-1-10.4l2.1-3.3c0.2-0.2,0.2-0.5,0.1-0.8s-0.3-0.5-0.5-0.6l-4.1-1.9
			c-3.4-1.6-5.4-5.3-4.9-9l0.6-3.6c0-0.3,0-0.6-0.2-0.8c-0.2-0.2-0.4-0.3-0.7-0.4l-4.8-0.2c-3.5-0.2-6.6-2.6-7.7-6l-1.1-3.7
			c-0.1-0.3-0.3-0.5-0.5-0.6s-0.5-0.1-0.8,0l-4.5,1.7c-1,0.4-1.9,0.5-3,0.5c-2.3,0-4.5-0.9-6.1-2.6l-3-3.1c-0.2-0.2-0.4-0.3-0.7-0.3
			s-0.5,0.1-0.7,0.3l-3,3.1c-1.6,1.6-3.8,2.6-6.1,2.6l0,0c-1,0-2-0.2-3-0.5l-4.5-1.7C29.5,7,29.2,7,29,7.1s-0.4,0.3-0.5,0.6
			l-1.1,3.7c-1.1,3.4-4.1,5.8-7.7,6l-4.8,0.2c-0.3,0-0.5,0.1-0.7,0.4c-0.2,0.2-0.3,0.5-0.2,0.8l0.6,3.6c0.6,3.7-1.4,7.4-4.9,9
			l-4.1,1.9c-0.3,0.1-0.5,0.3-0.5,0.6c-0.1,0.3,0,0.6,0.1,0.8L7.3,38c2.1,3.3,1.7,7.6-1,10.4l-2.8,3C3.1,51.5,3,51.8,3,52.1
			s0.2,0.5,0.4,0.7L7,55.3c3.2,2.2,4.4,6.3,3,10l-1.3,3.5c-0.1,0.3-0.1,0.6,0,0.8C8.8,69.8,9,70,9.3,70.1l4.6,1.2
			c3.6,0.9,6.1,4,6.4,7.6l0.3,3.7c0,0.3,0.2,0.5,0.4,0.7s0.5,0.2,0.8,0.2l4.8-0.7c0.4-0.1,0.8-0.1,1.2-0.1c3,0,5.8,1.6,7.3,4.1
			l2.1,3.5c0.1,0.2,0.4,0.4,0.6,0.5c0.3,0.1,0.5,0,0.8-0.1l3.9-2.5c1.4-0.9,3-1.3,4.6-1.3s3.2,0.5,4.6,1.3l3.9,2.5
			c0.2,0.1,0.3,0.2,0.5,0.2c0.1,0,0.1,0,0.2,0c0.3-0.1,0.5-0.2,0.6-0.5l2.1-3.5c1.5-2.6,4.3-4.1,7.3-4.1c0.4,0,0.8,0,1.2,0.1
			l4.8,0.7c0.3,0,0.5,0,0.8-0.2c0.2-0.2,0.3-0.4,0.4-0.7l0.3-3.7c0.3-3.7,2.8-6.7,6.4-7.6l4.6-1.2c0.3-0.1,0.5-0.2,0.6-0.5
			c0.1-0.2,0.1-0.5,0-0.8L84,65.3c-1.4-3.6-0.1-7.7,3-10l3.5-2.5c0.2-0.2,0.4-0.4,0.4-0.7C91,51.8,90.9,51.5,90.7,51.3z M85.9,53.7
			c-3.9,2.8-5.4,7.8-3.7,12.3l0.9,2.4l-3.5,0.9c-4.4,1.1-7.6,4.9-7.9,9.4l-0.2,2.6l-3.8-0.6c-0.5-0.1-1-0.1-1.5-0.1
			c-3.7,0-7.1,2-9,5.1l-1.6,2.6l-3-1.9c-1.6-1-3.6-1.6-5.6-1.6s-4,0.6-5.7,1.7l-3,1.9l-1.6-2.6c-1.9-3.1-5.3-5.1-9-5.1
			c-0.5,0-1,0-1.5,0.1l-3.8,0.6l-0.2-2.6c-0.3-4.5-3.5-8.3-7.9-9.4l-3.5-0.9l0.9-2.4c1.7-4.4,0.2-9.5-3.7-12.3l-2.6-1.9l2-2.1
			c3.3-3.5,3.9-8.8,1.3-12.9l-1.5-2.3l3.1-1.4c4.2-1.9,6.7-6.5,6-11.1L16,19.5l3.8-0.2c4.4-0.2,8.2-3.2,9.5-7.3L30,9.3l3.5,1.3
			c1.2,0.4,2.4,0.7,3.6,0.7l0,0c2.8,0,5.5-1.2,7.5-3.2L47,5.6L49.3,8c2,2,4.7,3.2,7.5,3.2c1.2,0,2.5-0.2,3.6-0.7L64,9.3l0.8,2.7
			c1.3,4.2,5.1,7.1,9.5,7.3l3.8,0.2L77.6,22c-0.7,4.6,1.8,9.1,6,11.1l3.1,1.4l-1.5,2.3c-2.6,4.1-2.1,9.4,1.3,12.9l2,2.1L85.9,53.7z"
			/>
	</g>
	
		<linearGradient id="SVGID_3_" gradientUnits="userSpaceOnUse" x1="2.75" y1="44.8" x2="91.0481" y2="44.8" gradientTransform="matrix(1 0 0 -1 0 94)">
		<stop  offset="0" style="stop-color:#4FACFE"/>
		<stop  offset="1" style="stop-color:#00F2FE"/>
	</linearGradient>
	<path class="st2" d="M41.5,66.8h3.3c1.2,0,2.2-1,2.2-2.2v-9.9c0-0.6,0.5-1.1,1.1-1.1h8.8c6.6,0,6.6-6.6,6.6-6.6s0,4.4,0-6.6
		c0-8.8-6.6-8.8-6.6-8.8H32.7c-1.2,0-2.2,1-2.2,2.2v5.5c0,1.2,1,2.2,2.2,2.2h19.8c0,0,2.2,0,2.2,2.2s-2.2,2.2-2.2,2.2h-11
		c-1.2,0-2.2,1-2.2,2.2v16.5C39.3,65.8,40.3,66.8,41.5,66.8z"/>
</g>
</svg>
