<?xml version="1.0" encoding="utf-8"?>
<!-- Generator: Adobe Illustrator 21.0.0, SVG Export Plug-In . SVG Version: 6.00 Build 0)  -->
<svg version="1.1" id="Слой_1" xmlns="http://www.w3.org/2000/svg" xmlns:xlink="http://www.w3.org/1999/xlink" x="0px" y="0px"
	 viewBox="0 0 267 68" style="enable-background:new 0 0 267 68;" xml:space="preserve">
<g fill="#FFF">
	<path d="M94.6,14.6h6c0.8,0,1.6,0,2.5,0.1c0.9,0.1,1.8,0.2,2.7,0.5c0.9,0.3,1.8,0.7,2.6,1.2c0.9,0.6,1.6,1.3,2.2,2.1
		c0.7,1,1.2,2.2,1.6,3.4c0.4,1.6,0.6,3.3,0.6,5v1.4c0,1.8-0.1,3.7-0.5,5.4c-0.3,1.3-0.8,2.6-1.5,3.8c-0.5,1-1.3,1.8-2.1,2.5
		c-0.8,0.6-1.6,1.1-2.5,1.4c-0.8,0.3-1.7,0.5-2.6,0.6c-0.8,0.1-1.6,0.1-2.5,0.1h-0.6v12.1h-6V14.6z M101,37.8c0.9,0,1.9-0.1,2.7-0.5
		c0.7-0.3,1.4-0.8,1.8-1.5c0.5-0.8,0.8-1.7,1-2.6c0.2-1.3,0.3-2.5,0.3-3.8v-3.6c0-1-0.1-2-0.3-3.1c-0.1-0.8-0.5-1.5-0.9-2.1
		c-0.5-0.6-1.1-1-1.8-1.2c-0.9-0.3-1.9-0.4-2.8-0.4h-0.3v18.8L101,37.8z"/>
	<path d="M121.8,14.6h6.9l7.3,39.7H130l-1.1-7.1h-7.2l-1,7.1h-6.1L121.8,14.6z M128.2,42.6l-2.8-19.8h-0.3l-2.8,19.8H128.2z"/>
	<path d="M139.9,14.6h6.5c0.7,0,1.6,0,2.5,0.1c0.9,0.1,1.8,0.2,2.7,0.5c0.9,0.2,1.8,0.6,2.6,1.1c0.9,0.5,1.6,1.2,2.2,2
		c0.7,0.9,1.2,2,1.5,3.2c0.4,1.5,0.6,3,0.6,4.6v1c0,3-0.4,5.5-1.3,7.4c-0.8,1.8-2.1,3.2-3.9,4.1l6.4,15.9h-6.4l-5.3-14.9h-2.3v14.8
		h-5.9V14.6z M146.7,35c0.9,0,1.8-0.1,2.7-0.4c0.7-0.2,1.3-0.6,1.8-1.2c0.5-0.6,0.8-1.4,1-2.2c0.2-1.1,0.3-2.2,0.3-3.4v-3.1
		c0-0.9-0.1-1.8-0.3-2.7c-0.2-0.7-0.5-1.3-0.9-1.8c-0.5-0.5-1.1-0.9-1.8-1.1c-0.9-0.3-1.8-0.4-2.7-0.3h-0.9V35H146.7z"/>
	<path d="M162.8,46.2c0-0.8,0-1.6,0.2-2.4c0.1-0.7,0.2-1.5,0.5-2.3h4.7v1.9c0,0.9,0.1,1.9,0.2,2.8c0.1,0.7,0.3,1.4,0.7,2.1
		c0.3,0.5,0.7,1,1.2,1.3c0.6,0.3,1.2,0.5,1.8,0.4c1.1,0,2-0.3,2.6-0.9c0.6-0.6,0.9-1.5,0.9-2.8c0-0.6,0-1.1-0.1-1.7
		c-0.1-0.5-0.2-1-0.4-1.5c-0.2-0.6-0.5-1.1-0.8-1.6c-0.4-0.7-0.9-1.3-1.4-1.9l-6.3-7.5c-1-1.3-1.9-2.8-2.6-4.3
		c-0.6-1.5-0.9-3-0.9-4.6c0-1.2,0.2-2.5,0.6-3.6c0.4-1.1,1-2,1.8-2.8c0.8-0.8,1.8-1.4,2.9-1.8c1.2-0.5,2.5-0.7,3.9-0.7
		c1.5,0,3,0.2,4.4,0.7c1.1,0.4,2,1.1,2.8,2c0.7,0.8,1.2,1.7,1.5,2.7c0.3,1,0.4,2,0.4,3c0,0.8-0.1,1.6-0.2,2.4
		c-0.1,0.7-0.3,1.5-0.5,2.4h-4.6v-1.9c0-2.1-0.3-3.7-0.9-4.8c-0.6-1.1-1.6-1.7-3-1.7c-1.1,0-2,0.3-2.5,0.9c-0.6,0.7-0.9,1.6-0.8,2.5
		c0,0.5,0,1,0.1,1.5c0.1,0.4,0.2,0.8,0.4,1.2c0.2,0.4,0.4,0.8,0.6,1.1c0.2,0.4,0.5,0.7,0.8,1.1l7,8.5c1.2,1.5,2.1,3.1,2.9,4.8
		c0.7,1.5,1,3.2,1,4.8c0,1.3-0.2,2.6-0.7,3.8c-0.4,1.1-1.1,2.1-1.9,2.9c-0.9,0.8-1.9,1.4-3,1.8c-1.3,0.4-2.6,0.7-3.9,0.6
		c-1.8,0-3.3-0.2-4.5-0.7c-1.1-0.4-2-1.1-2.8-1.9c-0.7-0.8-1.2-1.7-1.5-2.7C162.9,48.3,162.8,47.3,162.8,46.2z"/>
	<path d="M186.5,14.6h14.7v4.7h-8.7v11.9h6.7v4.7h-6.7v13.6h8.9v4.7h-14.9V14.6z"/>
	<path d="M214.3,54.6c-0.7,0-1.3-0.1-2-0.2c-0.7-0.1-1.5-0.3-2.2-0.6c-0.8-0.3-1.5-0.8-2.1-1.4c-0.7-0.7-1.3-1.5-1.7-2.4
		c-0.6-1.1-1-2.4-1.2-3.6c-0.3-1.7-0.5-3.4-0.5-5.1V27.3c0-1.7,0.1-3.4,0.5-5.1c0.2-1.2,0.7-2.4,1.2-3.6c0.4-0.9,1-1.7,1.8-2.3
		c0.6-0.5,1.3-1,2.1-1.3c0.7-0.3,1.4-0.5,2.1-0.6c0.7-0.1,1.3-0.1,2-0.1c1.4,0,2.7,0.2,4,0.7c1,0.4,1.9,1,2.6,1.8
		c0.7,0.8,1.1,1.7,1.4,2.7c0.3,1.1,0.4,2.2,0.4,3.3c0,0.8,0,1.6-0.1,2.4c-0.1,0.7-0.2,1.5-0.4,2.4h-4.9v-2c0-2.2-0.2-3.8-0.7-4.9
		s-1.2-1.6-2.1-1.6c-0.5,0-1,0.1-1.5,0.3c-0.5,0.3-0.8,0.6-1,1.1c-0.3,0.6-0.5,1.3-0.6,2.1c-0.2,1.1-0.2,2.1-0.2,3.2v18.1
		c0,1,0,2.1,0.2,3.1c0.1,0.7,0.3,1.4,0.6,2c0.2,0.5,0.6,0.8,1,1.1c0.5,0.2,1,0.3,1.5,0.3c0.4,0,0.8-0.1,1.1-0.3
		c0.4-0.2,0.7-0.5,0.9-0.8c0.3-0.4,0.5-0.9,0.7-1.4c0.2-0.7,0.3-1.4,0.2-2.1v-3.9h5.5v3.7c0,3.2-0.7,5.5-2.2,7.1
		C219.2,53.8,217.1,54.6,214.3,54.6z"/>
	<path d="M228.8,39.7h2.3v13.1h3.1v1.8h-5.3V39.7z"/>
	<path d="M239.7,39.7h2.6l2.8,14.9h-2.3l-0.4-2.7h-2.7l-0.4,2.7h-2.3L239.7,39.7z M242.1,50.2l-1-7.4h-0.1l-1.1,7.4L242.1,50.2z"/>
	<path d="M248.9,39.7h2.3c0.3,0,0.7,0,1,0c0.4,0,0.7,0.1,1.1,0.1c0.3,0.1,0.7,0.2,1,0.3c0.3,0.1,0.6,0.3,0.8,0.6
		c0.2,0.3,0.4,0.6,0.6,0.9c0.1,0.4,0.2,0.9,0.2,1.3v0.7c0,0.4-0.1,0.7-0.2,1.1c-0.1,0.3-0.3,0.6-0.4,0.9c-0.2,0.2-0.4,0.5-0.6,0.6
		c-0.2,0.2-0.5,0.3-0.7,0.3v0.1c0.7,0.1,1.3,0.5,1.7,1.1c0.4,0.7,0.6,1.4,0.6,2.2v0.8c0,0.5-0.1,0.9-0.2,1.4c-0.1,0.4-0.3,0.7-0.5,1
		c-0.2,0.3-0.5,0.5-0.8,0.7c-0.3,0.2-0.6,0.3-1,0.4c-0.4,0.1-0.8,0.2-1.1,0.2c-0.4,0-0.8,0.1-1.2,0.1h-2.4L248.9,39.7z M251.6,46.1
		c0.3,0,0.6,0,0.8-0.1c0.2-0.1,0.5-0.2,0.6-0.3c0.2-0.2,0.3-0.4,0.4-0.6c0.1-0.3,0.2-0.6,0.1-0.9v-0.6c0-0.3,0-0.6-0.1-0.9
		c-0.1-0.3-0.2-0.5-0.3-0.7c-0.2-0.2-0.4-0.3-0.6-0.4c-0.3-0.1-0.6-0.2-0.9-0.1h-0.4v4.7L251.6,46.1z M251.8,53c0.3,0,0.6,0,0.8-0.1
		c0.2-0.1,0.5-0.2,0.6-0.4c0.2-0.2,0.3-0.4,0.4-0.6c0.1-0.3,0.1-0.6,0.1-0.9v-1.2c0-0.3,0-0.6-0.1-0.9c-0.1-0.3-0.2-0.5-0.3-0.7
		c-0.2-0.2-0.4-0.3-0.6-0.4c-0.3-0.1-0.6-0.2-0.9-0.1h-0.6V53L251.8,53z"/>
	<path d="M260,51.6c0-0.3,0-0.6,0.1-0.9c0-0.3,0.1-0.6,0.2-0.9h1.8v0.7c0,0.4,0,0.7,0.1,1.1c0,0.3,0.1,0.5,0.2,0.8
		c0.1,0.2,0.3,0.4,0.5,0.5c0.2,0.1,0.5,0.2,0.7,0.2c0.4,0,0.7-0.1,1-0.4c0.2-0.3,0.4-0.7,0.3-1c0-0.2,0-0.4,0-0.6
		c0-0.2-0.1-0.4-0.2-0.6c-0.1-0.2-0.2-0.4-0.3-0.6c-0.2-0.2-0.3-0.5-0.5-0.7l-2.4-2.8c-0.4-0.5-0.7-1-1-1.6
		c-0.2-0.6-0.3-1.1-0.3-1.7c0-0.5,0.1-0.9,0.2-1.4c0.1-0.4,0.4-0.8,0.7-1.1c0.3-0.3,0.7-0.5,1.1-0.7c0.5-0.2,1-0.3,1.4-0.2
		c0.6,0,1.1,0.1,1.6,0.3c0.4,0.2,0.8,0.4,1.1,0.7c0.3,0.3,0.4,0.6,0.6,1c0.1,0.4,0.2,0.7,0.2,1.1c0,0.3,0,0.6-0.1,0.9
		c-0.1,0.3-0.1,0.6-0.2,0.9h-1.7v-0.7c0-0.6-0.1-1.2-0.3-1.8c-0.2-0.4-0.6-0.7-1.1-0.6c-0.4,0-0.7,0.1-0.9,0.4
		c-0.2,0.3-0.3,0.6-0.3,0.9c0,0.2,0,0.4,0,0.6c0,0.2,0.1,0.3,0.1,0.5c0.1,0.1,0.1,0.3,0.2,0.4c0.1,0.1,0.2,0.3,0.3,0.4l2.6,3.2
		c0.4,0.6,0.8,1.1,1.1,1.8c0.3,0.6,0.4,1.2,0.4,1.8c0,0.5-0.1,1-0.2,1.4c-0.2,0.4-0.4,0.8-0.7,1.1c-0.3,0.3-0.7,0.5-1.1,0.7
		c-0.5,0.2-1,0.2-1.5,0.2c-0.6,0-1.1-0.1-1.7-0.3c-0.4-0.2-0.8-0.4-1.1-0.7c-0.3-0.3-0.5-0.6-0.6-1C260,52.4,260,52,260,51.6z"/>
	<title>parsec-type-blk</title>
	<g>
		<path d="M64.4,3.7l-0.2-0.2h-0.1c-1-0.2-2.1-0.3-3.1-0.3c-2.1,0-5,0.4-6.8,2.2l-6.3,6.3l-0.7,0.7c-0.6,0.2-1.6,0.5-3.8,0.5
			c-4.2,0-5.6,1.5-7.5,3.4l-0.4,0.4c-0.2,0.2-0.8,0.8,2.5,5l-3.7,3.6c-0.2,0.2-0.3,0.5-0.3,0.7c0,0.3,0.1,0.5,0.3,0.7l0.3,0.3
			c0,0-0.1,0.1-0.1,0.1c0,0,0,0,0,0c-0.1,0.1-0.2,0.3-0.2,0.5c-0.2,0-0.5,0.1-0.6,0.2c-0.1,0.2-0.2,0.4-0.2,0.6
			c-0.4-0.1-0.8,0.1-1,0.3c-0.2,0.2-0.3,0.4-0.3,0.7c-0.5-0.2-1,0-1.3,0.3c-0.3,0.3-0.4,0.7-0.3,1c-0.4-0.1-0.8,0.1-1,0.3
			c-0.1,0.1-0.2,0.2-0.2,0.3c-0.4-0.2-0.9-0.1-1.3,0.2c-0.1,0.1-0.2,0.2-0.2,0.4c-0.1-0.1-0.1-0.2-0.2-0.2c-0.5-0.5-1.3-0.5-1.8,0
			c-0.1,0.1-0.1,0.1-0.1,0.2c-0.7-0.2-1.5-0.2-2.2,0c0-0.3-0.2-0.7-0.4-0.9c-0.2-0.2-0.4-0.3-0.7-0.3c-0.3-0.4-0.6-0.7-0.9-1
			c-0.9-0.8-1.9-1.4-3.1-1.7c0-0.1,0-0.2-0.1-0.2c0.6-2.2-0.1-4.5-1.7-6.1c-1.4-1.4-3.3-2-5.2-1.8c0.8-1.5,1-3.3,0.4-5
			c0.7-0.8,1.1-1.8,1.4-2.8C5.1,17.9,0,27,0,37.4c0,17,13.8,30.8,30.8,30.8c10,0,18.9-4.8,24.5-12.1c-0.8,0-1.6,0.1-2.4,0.4
			c-0.3-0.8-0.8-1.5-1.4-2.1c-2.5-2.4-6.4-2.5-8.9-0.1c-0.2-1.4-0.8-2.8-1.8-3.8c-0.9-0.9-2-1.5-3.2-1.7c0.1-1.5-0.3-2.9-1.2-4.1
			c0.2-1.5-0.2-3-1-4.2c0.2-0.1,0.4-0.2,0.6-0.3c0.3-0.3,0.4-0.7,0.3-1.1c0.3,0,0.6-0.1,0.8-0.3c0.3-0.4,0.4-0.8,0.3-1.3
			c0.4,0,0.7-0.1,1-0.3c0.3-0.3,0.4-0.6,0.3-1c0.2-0.1,0.4-0.2,0.5-0.3c0.2-0.2,0.3-0.5,0.3-0.8c0.1,0,0.2-0.1,0.2-0.2
			c0.1-0.1,0.2-0.3,0.2-0.4c0.2,0,0.5-0.1,0.6-0.2c0.2-0.2,0.2-0.5,0.2-0.7H41c0,0,0,0,0,0c0.2,0.1,0.4,0.2,0.6,0.2
			c0.3,0,0.5-0.1,0.7-0.3l3.7-3.7c1,0.7,3.5,2.6,4.5,2.6c0.2,0,0.3,0,0.5-0.2l0.4-0.4c1.9-1.8,3.4-3.4,3.4-7.5
			c0-2.2,0.2-3.2,0.4-3.7l0.8-0.8l6.2-6.2C65.7,10.4,64.5,4.1,64.4,3.7L64.4,3.7z M39.4,30.5c-0.4,0.4-0.4,1,0,1.4c0,0,0,0,0,0
			l0.5,0.5c-0.1,0.1-0.2,0.3-0.2,0.5c-0.5,0-0.9,0.3-0.9,0.8c0,0,0,0.1,0,0.1c0,0,0,0.1-0.1,0.1c0,0,0,0,0,0
			c-0.4-0.1-0.8,0.1-1.1,0.3c-0.3,0.2-0.4,0.6-0.3,1c0,0-0.1,0-0.1,0.1c0,0,0,0,0,0c-0.4,0-0.8,0.1-1,0.3c-0.3,0.2-0.4,0.6-0.3,1
			c-0.5-0.2-1,0-1.3,0.3c-0.2,0.2-0.3,0.4-0.3,0.6c-0.5-0.2-1-0.1-1.4,0.2c-0.1,0.1-0.2,0.3-0.3,0.5c-0.5-0.2-1.1-0.3-1.7-0.4
			c-0.1-0.2-0.2-0.4-0.3-0.6c0,0-0.1-0.1-0.2-0.1c0.1-0.1,0.2-0.2,0.3-0.2c0.5-0.5,0.5-1.3,0-1.8l-0.1-0.1l0.1-0.1
			c0.3-0.3,0.4-0.7,0.3-1.1c0.3,0,0.7-0.1,0.9-0.3c0.3-0.2,0.4-0.6,0.3-1c0.2-0.1,0.4-0.2,0.6-0.3c0.3-0.4,0.4-0.8,0.3-1.3
			c0.3,0,0.6-0.1,0.8-0.3c0.3-0.4,0.4-0.8,0.3-1.3c0.1,0,0.1,0,0.2-0.1c0.3,0.2,0.7,0.1,0.9-0.2c0.2-0.2,0.2-0.5,0.2-0.7h0.1
			c0.1-0.1,0.1-0.1,0.1-0.2l0.1,0.1c0.4,0.4,1,0.4,1.4,0c0,0,0,0,0,0l3.4-3.4c0.4,0.5,0.7,0.8,1,1.1c0.3,0.3,0.7,0.6,1.1,1
			L39.4,30.5z M54.5,14.7l1.8,0.4l-2.7,1.6l-4.7,2.7l3.3-3.6l0.3-0.3l0.1-0.2l-0.4-0.1l-0.1,0l-1.8-0.6l0.7-0.4l6.4-3.8l-3.1,3.8
			l-0.4,0.5L54.5,14.7z M58.9,8.9l-8.3,4.9l-1.4,0.8l2.6,0.8l-5,5.5l0.2-0.2l-4.8,4.8c-0.3-0.4-0.7-0.9-1.2-1.4l-0.3-0.3l-4,4
			c-0.1,0.1-0.2,0.1-0.3,0l-1.5-1.5c-0.1-0.1-0.1-0.2,0-0.3l4.2-4.2l-0.2-0.2l-0.1-0.1c-1.3-1.6-2.6-3.7-2.6-4.2l0.3-0.3
			c1.8-1.8,3.1-3.1,7-3.2c1.9,0,3.4-0.2,4.2-0.6l1-1l6.2-6.1c1.7-1.7,4.3-2,6.2-2c0.9,0,1.8,0.1,2.6,0.2L58.9,8.9z"/>
		<path d="M36.9,7.6c0.2,0,0.3-0.1,0.4-0.3c0-0.1,0.1-0.1,0.1-0.2c0-0.3-0.2-0.5-0.5-0.5c-0.3,0-0.5,0.2-0.5,0.5c0,0,0,0,0,0
			C36.4,7.4,36.6,7.6,36.9,7.6z"/>
		<circle cx="61.7" cy="18" r="0.5"/>
		<circle cx="40.3" cy="6.3" r="0.4"/>
		<circle cx="18.6" cy="22.1" r="0.4"/>
		<circle cx="26.1" cy="26.4" r="0.9"/>
		<circle cx="41.1" cy="42.1" r="0.3"/>
		<circle cx="48.3" cy="40.6" r="0.7"/>
		<circle cx="69.4" cy="29.4" r="0.5"/>
		<circle cx="60.2" cy="31" r="0.6"/>
		<circle cx="71.4" cy="27.8" r="0.3"/>
		<circle cx="71.5" cy="30.7" r="0.3"/>
		<circle cx="48.8" cy="0.7" r="0.4"/>
		<polygon points="59.5,43.8 59.3,41.9 59.2,43.8 57.2,44 59.2,44.2 59.3,46.1 59.5,44.2 60.9,44 61.5,44 60.9,43.9 		"/>
		<polygon points="26.2,18.5 26.8,12.6 32.6,12.1 26.8,11.6 26.3,6.9 26.2,5.8 26.1,6.9 25.7,11.6 19.9,12.1 25.7,12.6 		"/>
	</g>
</g>
</svg>
