<?xml version="1.0" encoding="utf-8"?>
<!-- Generator: Adobe Illustrator 21.0.0, SVG Export Plug-In . SVG Version: 6.00 Build 0)  -->
<svg version="1.1" id="Слой_1" xmlns="http://www.w3.org/2000/svg" xmlns:xlink="http://www.w3.org/1999/xlink" x="0px" y="0px"
	 viewBox="0 0 30 30" style="enable-background:new 0 0 30 30;" xml:space="preserve">
<style type="text/css">
	.st0{fill:url(#twitter_1_);}
</style>
<linearGradient id="twitter_1_" gradientUnits="userSpaceOnUse" x1="2" y1="14.95" x2="28" y2="14.95" gradientTransform="matrix(1 0 0 -1 0 30)">
	<stop  offset="0" style="stop-color:#4FACFE"/>
	<stop  offset="1" style="stop-color:#00F2FE"/>
</linearGradient>
<path id="twitter" class="st0" d="M28,6.9c-1,0.4-2.1,0.7-3,0.8c1.1-0.7,1.9-1.6,2.3-3c-1.1,0.7-2.2,1.1-3.4,1.4
	c-1-1.1-2.3-1.6-3.8-1.6c-3,0-5.3,2.3-5.3,5.3c0,0.4,0,0.8,0.1,1.2C10.5,10.7,6.6,8.7,4,5.4C3.4,6.2,3.1,7.1,3.1,8.2
	c0,1.9,1,3.4,2.3,4.4c-0.8,0-1.6-0.3-2.5-0.7c0,0,0,0,0,0.1c0,2.6,1.8,4.8,4.2,5.2c-0.4,0.1-1,0.1-1.4,0.1s-0.7,0-1-0.1
	c0.7,2.2,2.6,3.7,4.9,3.7c-1.8,1.4-4.1,2.3-6.6,2.3c-0.4,0-0.8,0-1.2-0.1c2.3,1.5,5.2,2.5,8.2,2.5c9.9,0,15.2-8.1,15.2-15.2
	c0-0.3,0-0.4,0-0.7C26.4,9,27.3,8,28,6.9z"/>
</svg>
