<?xml version="1.0" encoding="utf-8"?>
<!-- Generator: Adobe Illustrator 21.0.0, SVG Export Plug-In . SVG Version: 6.00 Build 0)  -->
<svg version="1.1" id="Слой_1" xmlns="http://www.w3.org/2000/svg" xmlns:xlink="http://www.w3.org/1999/xlink" x="0px" y="0px"
	 viewBox="0 0 30 30" style="enable-background:new 0 0 30 30;" xml:space="preserve">
<style type="text/css">
	.st0{fill:url(#SVGID_1_);}
</style>
<linearGradient id="SVGID_1_" gradientUnits="userSpaceOnUse" x1="0.5184" y1="15" x2="29.4816" y2="15">
	<stop  offset="0" style="stop-color:#4FACFE"/>
	<stop  offset="1" style="stop-color:#00F2FE"/>
</linearGradient>
<path class="st0" d="M1,14.5L7.7,17l2.6,8.3c0.2,0.5,0.8,0.7,1.2,0.4l3.7-3c0.4-0.3,0.9-0.3,1.4,0l6.7,4.9c0.5,0.3,1.1,0.1,1.2-0.5
	l4.9-23.6c0.1-0.6-0.5-1.1-1.1-0.9L1,13C0.3,13.3,0.4,14.2,1,14.5z M9.9,15.6l13-8c0.2-0.1,0.5,0.2,0.3,0.4L12.4,18
	c-0.4,0.4-0.6,0.8-0.7,1.3L11.4,22c0,0.4-0.6,0.4-0.7,0l-1.4-5C9.1,16.6,9.4,16,9.9,15.6z"/>
</svg>
