<?xml version="1.0" encoding="utf-8"?>
<!-- Generator: Adobe Illustrator 21.0.0, SVG Export Plug-In . SVG Version: 6.00 Build 0)  -->
<svg version="1.1" id="Слой_1" xmlns="http://www.w3.org/2000/svg" xmlns:xlink="http://www.w3.org/1999/xlink" x="0px" y="0px"
	 viewBox="0 0 84 84" style="enable-background:new 0 0 84 84;" xml:space="preserve">
<style type="text/css">
	.st0{fill:url(#SVGID_1_);}
</style>
<g>
	
		<linearGradient id="SVGID_1_" gradientUnits="userSpaceOnUse" x1="0.4904" y1="41.9255" x2="83.5" y2="41.9255" gradientTransform="matrix(1 0 0 -1 0 84)">
		<stop  offset="0" style="stop-color:#4FACFE"/>
		<stop  offset="1" style="stop-color:#00F2FE"/>
	</linearGradient>
	<path class="st0" d="M42,60.6c6.4,0,12.3-3.1,15.9-8.4c0.2,0,0.3,0,0.5,0c2.2,0,4-1.7,4-3.9c0-1.2-0.5-2.3-1.5-3.1
		c2.2-10.5-4.5-20.7-15-22.9s-20.7,4.5-22.9,15S27.5,58,38,60.2C39.3,60.5,40.7,60.6,42,60.6z M42,24.9c9,0,16.3,7.3,16.3,16.3
		c0,1.1-0.1,2.1-0.3,3.2c-2.2,0.2-3.8,2.1-3.6,4.2c0.1,0.8,0.4,1.5,0.8,2.1c-5.2,7.4-15.5,9.1-22.8,3.8S23.3,39,28.6,31.7
		C31.7,27.4,36.7,24.9,42,24.9z M42,75.5c18.9,0,34.2-15.3,34.2-34.2c0-11.9-6.2-23-16.4-29.2c0-0.1,0-0.3,0-0.4c0-2.2-1.8-4-3.9-4
		c-1.1,0-2.1,0.4-2.8,1.2C35.2,2.7,15.7,12.3,9.6,30.1S13,67.5,30.8,73.6C34.4,74.9,38.2,75.5,42,75.5z M42,10c3.4,0,6.8,0.6,10,1.6
		c0,2.2,1.8,3.9,4,3.9c0.9,0,1.8-0.3,2.5-0.9c14.7,9.1,19.2,28.3,10.1,43s-28.3,19.2-43,10.1s-19.2-28.3-10.1-43
		C21.2,15.6,31.2,10,42,10z M83.5,41.2c0,0.8-0.7,1.5-1.5,1.5s-1.5-0.7-1.5-1.5c0-4.1-0.6-8.1-1.9-12c-0.2-0.8,0.2-1.6,1-1.9
		c0.8-0.2,1.5,0.2,1.8,0.9C82.8,32.5,83.5,36.9,83.5,41.2z M80.7,56.4c-2.9,7.3-7.8,13.7-14.1,18.3c-0.7,0.5-1.6,0.3-2.1-0.3
		c-0.5-0.7-0.3-1.6,0.3-2.1l0,0c5.9-4.3,10.4-10.2,13.1-17c0.3-0.8,1.2-1.1,2-0.8C80.6,54.8,80.9,55.6,80.7,56.4L80.7,56.4z
		 M47.9,80.9c0.1,0.8-0.5,1.6-1.3,1.7l0,0c-1.5,0.2-3.1,0.3-4.6,0.3c-7.3,0-14.4-1.9-20.7-5.6c-1.7,1.3-4.2,0.9-5.5-0.9
		c-0.7-1-0.9-2.3-0.6-3.4c-1.4-1.2-2.7-2.4-3.9-3.8c-0.5-0.7-0.4-1.6,0.3-2.1c0.6-0.4,1.4-0.4,1.9,0.1c1.1,1.2,2.3,2.4,3.6,3.4
		c0.6-0.3,1.3-0.5,1.9-0.6c2.2,0,3.9,1.7,4,3.9c0,0.3,0,0.5-0.1,0.8c5.8,3.4,12.4,5.1,19.2,5.1c1.4,0,2.9-0.1,4.3-0.2
		C47.1,79.5,47.8,80,47.9,80.9z M5,30.6c-0.8,2.9-1.3,5.8-1.5,8.8c0,0.8-0.7,1.4-1.5,1.4H1.9c-0.8,0-1.5-0.7-1.4-1.6l0,0
		c0.2-3.2,0.7-6.4,1.6-9.5c0.2-0.8,1-1.3,1.8-1.1c0.8,0.2,1.3,1,1.1,1.8C5,30.5,5,30.5,5,30.6L5,30.6z M10.5,16.5
		C9.9,16,9.8,15,10.3,14.4C15.6,8.1,22.7,3.5,30.7,1.3c0.8-0.2,1.6,0.2,1.9,1c0.2,0.8-0.2,1.6-1,1.9c-7.4,2.1-13.9,6.3-18.9,12.2
		C12.1,17,11.1,17,10.5,16.5z M63.8,7.6c0.5-0.7,1.4-0.8,2.1-0.4c4.8,3.4,8.9,7.8,11.9,12.8c0.4,0.7,0.2,1.6-0.5,2.1
		c-0.7,0.4-1.6,0.2-2.1-0.5l0,0c-2.8-4.7-6.5-8.8-11-11.9C63.5,9.3,63.3,8.3,63.8,7.6C63.8,7.7,63.8,7.6,63.8,7.6L63.8,7.6z
		 M42,67.8c14.7,0,26.6-11.9,26.6-26.6S56.7,14.6,42,14.6c-9.6,0-18.5,5.2-23.2,13.6h-0.2c-2.2,0-3.9,1.8-3.9,3.9
		c0,1.2,0.5,2.3,1.5,3.1c-3.3,14.3,5.6,28.6,19.9,31.9C37.9,67.6,40,67.8,42,67.8z M42,17.6c13,0,23.6,10.5,23.6,23.6
		S55.1,64.8,42.1,64.9S18.5,54.3,18.4,41.3c0-1.7,0.2-3.5,0.6-5.2c2.2-0.2,3.7-2.1,3.6-4.3c-0.1-0.9-0.4-1.7-1-2.3
		C25.7,22.2,33.5,17.7,42,17.6z M42,48.6c4.1,0,7.5-3.3,7.5-7.5c0-4.1-3.3-7.5-7.5-7.5c-4.1,0-7.5,3.3-7.5,7.5S37.9,48.7,42,48.6
		C42,48.7,42,48.7,42,48.6L42,48.6z M42,36.7c2.5,0,4.4,2,4.4,4.5s-2,4.4-4.4,4.4c-2.5,0-4.5-2-4.5-4.4C37.6,38.8,39.6,36.8,42,36.7
		L42,36.7z"/>
</g>
</svg>
