<?xml version="1.0" encoding="utf-8"?>
<!-- Generator: Adobe Illustrator 21.0.0, SVG Export Plug-In . SVG Version: 6.00 Build 0)  -->
<svg version="1.1" id="Слой_1" xmlns="http://www.w3.org/2000/svg" xmlns:xlink="http://www.w3.org/1999/xlink" x="0px" y="0px"
	 viewBox="0 0 84 84" style="enable-background:new 0 0 84 84;" xml:space="preserve">
<style type="text/css">
	.st0{fill:url(#SVGID_1_);}
</style>
<g>
	<linearGradient id="SVGID_1_" gradientUnits="userSpaceOnUse" x1="0.3333" y1="42" x2="84.034" y2="42">
		<stop  offset="0" style="stop-color:#4FACFE"/>
		<stop  offset="1" style="stop-color:#00F2FE"/>
	</linearGradient>
	<path class="st0" d="M50.3,73.4c-1.8,0-3.2,1.4-3.2,3.2s1.4,3.2,3.2,3.2c1.8,0,3.2-1.4,3.2-3.2c0,0,0,0,0,0
		C53.5,74.8,52.1,73.4,50.3,73.4z M50.2,76.6c0-0.1,0-0.2,0.1-0.2c0.1,0,0.2,0,0.2,0.1c0,0,0,0.1,0,0.1
		C50.5,76.7,50.2,76.7,50.2,76.6L50.2,76.6z M18.7,56.7c-2.7,0-4.8,2.2-4.8,4.8c0,2.7,2.2,4.8,4.8,4.8s4.8-2.2,4.8-4.8
		C23.5,58.9,21.3,56.7,18.7,56.7z M18.7,63.4c-1,0-1.8-0.8-1.8-1.8s0.8-1.8,1.8-1.8s1.8,0.8,1.8,1.8C20.5,62.6,19.7,63.4,18.7,63.4z
		 M67,50.1c-1.8,0-3.2,1.4-3.2,3.2c0,1.8,1.4,3.2,3.2,3.2c1.8,0,3.2-1.4,3.2-3.2v0C70.2,51.5,68.8,50.1,67,50.1z M66.8,53.2
		c0-0.1,0.1-0.1,0.2-0.1c0.1,0,0.1,0.1,0.1,0.1C67.2,53.4,66.8,53.4,66.8,53.2L66.8,53.2z M21.1,23.2c0.7-0.4,1.6-0.1,2,0.7l0.8,1.6
		c0.4,0.7,0.2,1.6-0.6,2c-0.7,0.4-1.6,0.2-2-0.6c0,0,0-0.1-0.1-0.1l-0.8-1.6C20.1,24.4,20.4,23.5,21.1,23.2
		C21.1,23.2,21.1,23.2,21.1,23.2z M16.1,13.2c0.7-0.4,1.6-0.1,2,0.7l2.7,5.4c0.4,0.7,0.2,1.6-0.6,2c-0.7,0.4-1.6,0.2-2-0.6
		c0,0,0-0.1-0.1-0.1l-2.7-5.4C15.1,14.5,15.4,13.6,16.1,13.2C16.1,13.2,16.2,13.2,16.1,13.2L16.1,13.2z M14.5,11.6
		c-0.6,0-1.1-0.3-1.3-0.8l-2.1-4.2c-0.4-0.7-0.2-1.6,0.6-2c0.7-0.4,1.6-0.2,2,0.6c0,0,0,0.1,0.1,0.1l2.1,4.2c0.4,0.7,0.1,1.6-0.7,2
		C15.1,11.5,14.8,11.6,14.5,11.6L14.5,11.6z M40.5,8.6V6.8c0-0.8,0.7-1.5,1.5-1.5s1.5,0.7,1.5,1.5v1.8c0,0.8-0.7,1.5-1.5,1.5
		S40.5,9.4,40.5,8.6L40.5,8.6z M40.5,22.8v-9.5c0-0.8,0.7-1.5,1.5-1.5s1.5,0.7,1.5,1.5v9.5c0,0.8-0.7,1.5-1.5,1.5
		S40.5,23.6,40.5,22.8L40.5,22.8z M12.9,33.6c0.6,0.6,0.6,1.5,0.1,2.1s-1.5,0.6-2.1,0.1c0,0-0.1,0-0.1-0.1l-2.6-2.7
		c-0.6-0.6-0.5-1.6,0.1-2.1c0.6-0.5,1.5-0.5,2,0L12.9,33.6z M6.4,27.2C7,27.7,7,28.7,6.5,29.3S5,29.9,4.4,29.4c0,0-0.1,0-0.1-0.1
		L0.9,26c-0.6-0.6-0.5-1.6,0.1-2.1c0.6-0.5,1.5-0.5,2,0L6.4,27.2z M60.1,25.4l3.6-7.1c0.4-0.7,1.3-1,2-0.6c0.7,0.4,0.9,1.2,0.6,1.9
		l-3.6,7.1c-0.4,0.7-1.3,1-2,0.6C60,27,59.8,26.1,60.1,25.4z M65.6,14.4l0.6-1.3c0.4-0.7,1.3-1,2-0.6c0.7,0.4,0.9,1.2,0.6,1.9
		l-0.6,1.3c-0.3,0.8-1.2,1.1-2,0.8c-0.8-0.3-1.1-1.2-0.8-2C65.5,14.5,65.5,14.5,65.6,14.4z M68.8,7.9l1.1-2.2c0.4-0.7,1.3-1,2-0.6
		c0.7,0.4,0.9,1.2,0.6,1.9l-1.1,2.2c-0.3,0.8-1.2,1.1-2,0.8c-0.8-0.3-1.1-1.2-0.8-2C68.8,8,68.8,7.9,68.8,7.9z M75.9,31
		c0.6,0.6,0.6,1.5,0,2.1l-2.6,2.6c-0.6,0.6-1.6,0.5-2.1-0.1c-0.5-0.6-0.5-1.5,0-2l2.6-2.6C74.4,30.4,75.3,30.4,75.9,31L75.9,31z
		 M83.1,26l-3.3,3.3c-0.6,0.6-1.6,0.5-2.1-0.1c-0.5-0.6-0.5-1.5,0-2l3.3-3.3c0.6-0.6,1.6-0.5,2.1,0.1C83.6,24.5,83.6,25.4,83.1,26z
		 M43.1,66l26.7-26.7v-0.1c0.1-0.1,0.2-0.2,0.3-0.3v-0.1c0,0,0-0.1,0-0.1c0.1-0.3,0.1-0.6,0-0.9c0,0,0-0.1,0-0.1v-0.1
		c-0.1-0.1-0.2-0.3-0.3-0.4v-0.1l-6.7-6.7l0,0c-0.1-0.1-0.2-0.2-0.4-0.3h-0.1h-0.1l-10-3.3h-0.2h0h-0.2H52H32h-0.2h-0.2h0h-0.1
		l-10,3.3h0h-0.1c-0.1,0.1-0.3,0.2-0.4,0.3l0,0l-6.7,6.7v0.1c-0.1,0.1-0.2,0.2-0.3,0.4v0.1c0,0,0,0.1,0,0.1c-0.1,0.3-0.1,0.6,0,0.9
		c0,0,0,0.1,0,0.1L14,38.9c0.1,0.1,0.2,0.3,0.3,0.4v0.1L40.9,66H41l0.1,0.1l0.1,0.1l0,0l0,0l0.2,0.1l0.1,0.1h0.1h0.1l0,0
		c0.2,0.1,0.5,0.1,0.7,0l0,0h0.1h0.1l0.1-0.1l0.2-0.1l0,0l0,0l0.1-0.1L43.1,66L43.1,66z M40.5,58.5l-9.4-18.8h9.4V58.5z M43.5,39.7
		h9.4l-9.4,18.8V39.7z M51.3,31l0.5,1.4l1.4,4.3h-7.6L51.3,31z M30.7,36.7l1.4-4.3l0.5-1.4l5.7,5.7L30.7,36.7z M47.5,57.3l3.4-6.9
		l5.3-10.7H65L47.5,57.3z M59,36.7l3-3l3,3H59z M56,35.4l-1.6-4.9l4.9,1.6L56,35.4z M43.5,34.6v-4.9h4.9L43.5,34.6z M40.5,29.7v4.9
		l-4.9-4.9H40.5z M29.6,30.6L28,35.5l-3.2-3.2L29.6,30.6z M22,33.7l3,3h-6L22,33.7z M19,39.7h8.8l5.3,10.7l3.4,6.9L19,39.7z"/>
</g>
</svg>
