<?xml version="1.0" encoding="utf-8"?>
<!-- Generator: Adobe Illustrator 21.0.0, SVG Export Plug-In . SVG Version: 6.00 Build 0)  -->
<svg version="1.1" id="Слой_1" xmlns="http://www.w3.org/2000/svg" xmlns:xlink="http://www.w3.org/1999/xlink" x="0px" y="0px"
	 viewBox="0 0 300 100" style="enable-background:new 0 0 300 100;" xml:space="preserve">
<style type="text/css">
	.st0{fill:#39BA91;}
	.st1{fill:#FFFFFF;}
</style>
<path class="st0" d="M271.1,95.4c-16,0-28.9-13-28.9-28.9s13-28.9,28.9-28.9c16,0,28.9,13,28.9,28.9C299.9,82.5,287,95.4,271.1,95.4
	z M271.1,40.6c-14.4,0-26,11.6-26,26c0,14.4,11.6,26,26,26c14.4,0,26-11.6,26-26C297,52.2,285.4,40.6,271.1,40.6z"/>
<path class="st1" d="M258.2,53.7h5.5c2.1,0,3.7,0.6,4.8,1.8c1.1,1.2,1.7,2.8,1.7,4.9v12.1c0,2.4-0.6,4.2-1.8,5.4
	c-1.2,1.2-2.9,1.7-5.1,1.7h-5.2L258.2,53.7L258.2,53.7z M261.9,76.1h1.7c1.1,0,1.8-0.3,2.2-0.8c0.5-0.5,0.7-1.4,0.7-2.5V60.4
	c0-1-0.2-1.8-0.7-2.4c-0.4-0.6-1.2-0.9-2.2-0.9h-1.7V76.1L261.9,76.1z M273.7,53.7h5.4c1.1-0.1,2.1,0.2,3,0.6
	c0.8,0.3,1.5,0.8,2.1,1.5c0.6,0.6,0.9,1.3,1.2,2.1c0.3,0.8,0.4,1.6,0.4,2.5v1c0,0.6-0.1,1.2-0.2,1.8c-0.1,0.5-0.3,0.9-0.5,1.3
	c-0.2,0.4-0.5,0.7-0.8,1c-0.4,0.3-0.7,0.6-1.1,0.8c0.9,0.4,1.5,1,1.9,1.8c0.4,0.8,0.7,1.9,0.7,3.3v1.5c0,2.3-0.6,4-1.7,5.2
	c-1.1,1.2-2.9,1.8-5.3,1.8h-5C273.7,79.6,273.7,53.7,273.7,53.7z M277.4,64.3h1.7c1.3,0,2.1-0.3,2.5-0.9c0.4-0.6,0.7-1.5,0.7-2.7
	c0-1.2-0.3-2-0.7-2.6c-0.5-0.6-1.3-0.9-2.6-0.9h-1.5V64.3L277.4,64.3z M277.4,75.8h1.6c0.6,0.1,1.2-0.1,1.8-0.3
	c0.4-0.2,0.8-0.5,1-0.9c0.3-0.4,0.4-0.9,0.4-1.4c0.1-0.6,0.1-1.2,0.1-1.8c0-0.6-0.1-1.2-0.1-1.7c-0.1-0.5-0.2-0.9-0.5-1.2
	c-0.3-0.4-0.6-0.6-1-0.8c-0.5-0.2-1.1-0.3-1.6-0.3h-1.6L277.4,75.8L277.4,75.8z M22.2,92.1c-2.6,2.4-5.7,3.3-10.9,3.3H1
	c-0.5,0-1-0.4-1-0.9V38.6c0.1-0.5,0.5-0.9,1-0.9h10.3c5.1,0,8.2,0.9,10.7,3.3c2.7,2.6,3.4,5.6,3.4,11.6c0,4-0.6,7.6-3.7,10.5
	c-1.1,1.1-2.5,1.9-4,2.3c1.6,0.4,3.1,1.1,4.3,2.3c3.4,3.2,3.9,7.6,3.9,11.6C26,86.5,24.8,89.6,22.2,92.1z M11.4,42H6.2
	c-0.5,0-1,0.4-1,0.9v19.6c0.1,0.5,0.5,0.9,1,0.9h5.2c5.6,0,8.9-3,8.9-10.7C20.2,44.2,17,42,11.4,42L11.4,42z M11.4,67.6H6.2
	c-0.5,0-1,0.4-1,0.9v21.7c0.1,0.5,0.5,0.9,1,0.9h5.2c6,0,9.4-2.5,9.4-11.7C20.8,70.9,17.4,67.6,11.4,67.6L11.4,67.6L11.4,67.6z
	 M34.6,94.5V38.6c0.1-0.5,0.5-0.9,1-0.9h3.3c0.5,0,1,0.4,1,0.9v55.9c-0.1,0.5-0.5,0.9-1,0.9h-3.3C35,95.4,34.6,95,34.6,94.5z
	 M62.3,96c-4.1,0-7.3-1.3-9.4-3.4c-4-3.9-4.4-8.4-4.4-26.1s0.5-22.2,4.4-26.1c2.1-2.1,5.3-3.4,9.4-3.4s7,1.2,9.1,3.2
	c2.5,2.3,3.8,5.8,3.9,9.8c0,0.5-0.5,1-1,0.9h-3.3c-0.5,0-0.9-0.4-1-0.9c-0.2-4.3-1.9-8.7-7.9-8.7c-2.6,0-4.3,0.8-5.5,2.1
	c-2.6,2.8-3,6.1-3,23.1c0,16.9,0.5,20.3,3,23.1c1.3,1.3,3,2.1,5.5,2.1c4.5,0,7.9-3.2,7.9-8.7V69.8c-0.1-0.5-0.5-0.9-1-0.9h-6.9v-4
	h12.1c0.5,0,1,0.4,1,0.9v17.3C75.3,91.7,69.2,96,62.3,96L62.3,96z M105.2,93.3c-2.1,1.7-4.9,2.8-8.7,2.8c-4.1,0-7.3-1.3-9.4-3.4
	c-4-3.9-4.4-8.4-4.4-26.1s0.5-22.2,4.4-26.1c2.1-2.1,5.3-3.4,9.4-3.4c4,0,6.9,1.2,9,3.1c2.5,2.3,3.8,5.8,4,9.8c0,0.5-0.4,1-1,1
	c0,0,0,0-0.1,0h-3.2c-0.5,0-0.9-0.4-1-0.9c-0.1-2.6-0.8-5.1-2.5-6.8c-1.3-1.2-2.9-2-5.4-2c-2.6,0-4.3,0.8-5.5,2.1
	c-2.6,2.8-3,6.1-3,23.1c0,16.9,0.5,20.3,3,23.1c1.3,1.3,3,2.1,5.5,2.1c2.5,0,4.1-0.7,5.4-2c1.7-1.7,2.3-4.1,2.5-6.8
	c0.1-0.5,0.5-0.9,1-0.9h3.2c0.5,0,1,0.4,1,0.9l0,0C109.3,87.3,107.9,91,105.2,93.3L105.2,93.3z M137.9,94.5V68.2h-15.5v26.3
	c-0.1,0.5-0.5,0.9-1,0.9h-3.3c-0.5,0-1-0.4-1-0.9V38.6c0.1-0.5,0.5-0.9,1-0.9h3.3c0.5,0,1,0.4,1,0.9v25.3h15.5V38.6
	c0.1-0.5,0.5-0.9,1-0.9h3.3c0.5,0,1,0.4,1,0.9v55.9c-0.1,0.5-0.5,0.9-1,0.9h-3.3C138.3,95.4,137.9,95,137.9,94.5L137.9,94.5z
	 M174.4,94.7l-3.1-14.4c-0.1-0.5-0.5-0.8-1-0.7h-13.1c-0.5,0-0.9,0.3-1,0.7l-3.1,14.4c-0.1,0.5-0.5,0.8-1,0.7h-3.6
	c-0.5,0.1-1-0.4-1-0.9c0-0.1,0-0.2,0-0.2l13.6-55.9c0.1-0.4,0.5-0.7,1-0.7h3.3c0.5,0,0.9,0.3,1,0.7l13.4,55.9c0.1,0.5-0.3,1-0.7,1.1
	c-0.1,0-0.2,0-0.2,0h-3.6C174.9,95.4,174.5,95.1,174.4,94.7L174.4,94.7z M163.7,46.3l-6,28c-0.1,0.5,0.3,1,0.8,1.1
	c0.1,0,0.2,0,0.2,0h10.2c0.5,0,1-0.4,1-0.9c0-0.1,0-0.2,0-0.2L163.7,46.3L163.7,46.3z M184.4,94.5V38.6c0.1-0.5,0.5-0.9,1-0.9h3.3
	c0.5,0,1,0.4,1,0.9v55.9c-0.1,0.5-0.5,0.9-1,0.9h-3.2C184.9,95.4,184.5,95,184.4,94.5L184.4,94.5z M222.2,94.8l-17.3-44.4v44.1
	c-0.1,0.5-0.5,0.9-1,0.9h-3.3c-0.5,0-1-0.4-1-0.9V38.6c0.1-0.5,0.5-0.9,1-0.9h3.5c0.4,0,0.8,0.2,0.9,0.6l17.3,44.4l-0.1-44.1
	c0.1-0.5,0.5-0.9,1-0.9h3.3c0.5,0,0.9,0.4,1,0.9v55.9c-0.1,0.5-0.5,0.9-1,0.9h-3.5C222.8,95.4,222.4,95.2,222.2,94.8L222.2,94.8z"/>
</svg>
