<?xml version="1.0" encoding="utf-8"?>
<!-- Generator: Adobe Illustrator 21.0.0, SVG Export Plug-In . SVG Version: 6.00 Build 0)  -->
<svg version="1.1" id="Слой_1" xmlns="http://www.w3.org/2000/svg" xmlns:xlink="http://www.w3.org/1999/xlink" x="0px" y="0px"
	 viewBox="0 0 300 100" style="enable-background:new 0 0 300 100;" xml:space="preserve">
<style type="text/css">
	.st0{fill:#FDCC57;}
	.st1{fill:#FFFFFF;}
	.st2{fill:#3A1D0A;}
	.st3{fill:#3F1B05;}
	.st4{fill:#411D06;}
	.st5{fill:#401C06;}
</style>
<g>
	<path class="st0" d="M27.4,22.5c6.6,0,13.1,0,19.7,0c4.4,0,7.1,2.7,7.2,7.1c0,13.2,0,26.5,0,39.7c0,4.2-2.9,7.1-7,7.1
		c-13.4,0-26.8,0-40.2,0c-4.1,0-7-2.9-7-7c0-13.3,0-26.7,0-40c0-4,2.9-6.9,6.9-6.9C13.7,22.5,20.6,22.5,27.4,22.5z"/>
	<path class="st1" d="M102.4,49.5c0,5.5,0,11,0,16.5c0,3.7-1.2,4.9-5,4.9c-3.9,0.1-5.3-1.1-5.4-4.9c-0.1-3.5-0.1-6.9,0-10.4
		c0-1.5-0.5-1.9-2-1.9c-3.9,0.1-7.8,0.1-11.7,0c-1.4,0-1.8,0.5-1.8,1.8c0.1,3.5,0.1,6.9,0,10.4c-0.1,3.8-1.4,5-5.3,4.9
		c-3.8,0-5.1-1.2-5.1-4.8c0-11.2,0-22.4,0-33.6c0-3.4,1.3-4.5,5.1-4.6c3.9,0,5.3,1.1,5.4,4.6c0.1,3.6,0.1,7.1,0,10.7
		c0,1.5,0.4,2,2,1.9c3.8-0.1,7.6-0.1,11.5,0c1.7,0.1,2.1-0.6,2-2.1c-0.1-3.5-0.1-6.9,0-10.4c0.1-3.6,1.4-4.7,5.3-4.7
		c3.9,0.1,5.1,1.1,5.1,4.8C102.4,38.3,102.4,43.9,102.4,49.5z"/>
	<path class="st1" d="M214,68.4c-4.8,3.5-10,3.4-14.6-0.4c-4.9-4.1-7.2-9.3-5.8-15.6c1.2-5.7,4.7-9.7,10.2-11.7
		c3.2-1.2,6.3-0.7,9.1,1.4c0.7,0.5,1,0.8,1.8-0.2c1.9-2.6,4.8-2,7.3-1.4c2.6,0.6,2.4,3,2.4,5.1c0,6.5,0,13,0,19.5
		c0,2.2,0.4,4.6-2.4,5.6C219,71.6,215.7,70.7,214,68.4z M213.7,55.6c0.1-2.7-2.2-5.2-4.9-5.3c-2.8-0.1-5.3,2.3-5.3,5.1
		c0,2.7,2.3,5,5,5.1C211.3,60.6,213.6,58.3,213.7,55.6z"/>
	<path class="st1" d="M123.8,58.9c-2,0-4.1,0-6.1,0c-0.5,0-1.1-0.2-1.4,0.5c-0.2,0.6,0.2,1,0.6,1.4c1.3,1.3,3,1.9,4.8,2
		c2.2,0.1,4.4-0.3,6.5-1.1c2.6-1,4-0.3,5.3,2.4c1.2,2.6,0.8,4.9-1.7,5.9c-7,2.7-14.2,3.2-20.6-1.4c-5.8-4.2-7.3-10.6-5.6-17.4
		c3-12.7,18.6-14.1,25.1-9.1c3.8,3,5.5,6.9,4.8,11.7c-0.4,3.1-2.7,5-5.8,5.1c-0.1,0-0.2,0-0.3,0C127.5,58.9,125.6,58.9,123.8,58.9z
		 M120.1,53.5c0.9,0,1.8,0,2.7,0c1.2,0,2.5,0,2.7-1.5c0.2-1.6-0.6-2.5-2-3c-2.1-0.7-3.9-0.1-5.5,1.2c-0.9,0.7-2.1,1.6-1.7,2.8
		c0.4,1.2,1.9,0.4,2.8,0.6C119.3,53.6,119.7,53.5,120.1,53.5z"/>
	<path class="st1" d="M154.1,55.4c2.1-4.5,3.9-8.6,5.8-12.7c1.6-3.4,3-3.9,6.6-2.3c3.5,1.5,4.1,3.2,2.7,6.4
		c-5.2,11.7-10.4,23.3-15.6,35c-1.4,3.2-2.9,3.7-6.4,2.2c-3.5-1.5-4.2-2.9-2.9-6.1c1.2-3,2.5-6.1,4-9c0.7-1.4,0.7-2.5-0.2-3.9
		c-3.6-5.8-7-11.7-10.5-17.6c-2-3.4-1.5-4.8,2-6.8c3.2-1.9,4.8-1.5,6.7,1.8C148.8,46.5,151.3,50.8,154.1,55.4z"/>
	<path class="st1" d="M254.8,55.3c0.1-8.9,7.3-16,16.2-15.9c9,0,16,7.2,16,16.2c0,9-7.2,16-16.2,16
		C261.9,71.5,254.7,64.1,254.8,55.3z M265.1,55.6c0.1,3.2,2.8,5.8,5.9,5.6c3.1-0.1,5.7-2.8,5.6-6c-0.1-3.2-2.6-5.6-5.9-5.6
		C267.5,49.8,265,52.4,265.1,55.6z"/>
	<path class="st1" d="M184.3,27.9c5.4,0,10.8,0,16.3,0c3.3,0,4.2,1,4.2,4.4c0,3.2-0.8,4-4.1,4.1c-2.8,0-5.7,0.1-8.5,0
		c-2.2-0.1-2.9,0.4-2.8,2.7c0.1,8.9,0.1,17.8,0,26.7c0,1.8,0.2,3.8-1.8,4.7c-2.2,1-4.6,1-6.7-0.1c-1.7-0.8-1.6-2.6-1.6-4.2
		c0-8.9-0.1-17.8,0.1-26.7c0.1-2.7-0.8-3.3-3.3-3.1c-2.6,0.2-5.3,0.1-8,0c-3.4,0-4.3-0.9-4.3-4.3c0-3.3,0.9-4.2,4.4-4.2
		C173.5,27.9,178.9,27.9,184.3,27.9z"/>
	<path class="st1" d="M226.6,55.2c0.2-6.6,3.4-11.3,9.4-14c5.9-2.7,11.4-1.7,16.5,2.1c1.3,0.9,1.7,2.2,1.3,3.8
		c-1.2,4.7-4.5,6.3-8.4,4.1c-2.5-1.4-5.2-1.1-7,1c-1.6,1.8-1.6,4.8-0.2,6.6c1.7,2.1,4.3,2.5,7,1.2c3.6-1.8,4.6-1.6,7.2,1.5
		c2.3,2.8,2.1,4.8-0.9,6.9c-4.9,3.5-10.2,3.8-15.6,1.3c-5.7-2.6-8.8-7-9.3-13.2C226.6,56.1,226.6,55.6,226.6,55.2z"/>
	<path class="st1" d="M289.4,41.4c0-3.3,0-6.6,0-9.8c0-2.4,1.2-3.6,3.5-3.7c1.2-0.1,2.5-0.1,3.7,0c1.9,0.2,3,1.3,3,3.1
		c0.1,7.1,0.1,14.2,0,21.3c0,1.7-1,2.8-2.7,3.1c-1.3,0.2-2.6,0.2-4,0.1c-2.5-0.1-3.6-1.4-3.6-3.9C289.4,48.2,289.4,44.8,289.4,41.4z
		"/>
	<path class="st1" d="M294.5,71.1c-4.3,0-5.5-1.3-5.5-5.6c0-4.2,1.4-5.5,5.9-5.4c3.8,0,5.1,1.4,5.1,5.4
		C300,69.9,298.8,71.1,294.5,71.1z"/>
	<path class="st2" d="M49.3,57.4c0.1,0,0.3,0,0.4,0c0,0.1-0.1,0.2-0.1,0.4C49.5,57.6,49.4,57.5,49.3,57.4z"/>
	<g>
		<path class="st3" d="M40.2,63.6c-3.1,0.1-5.2-0.4-7.1-1.6c-2.7-1.8-5.1-3.9-6.2-7c-0.3-0.8-0.6-0.8-1.2-0.3
			c-2.7,2.3-5.8,3.4-9.4,3.2c-5.5-0.2-11.2-5.3-11.9-10.7c0,0,0-0.1,0-0.1c0.1-0.4-0.3-1.1,0.2-1.2c0.5-0.2,0.5,0.5,0.7,0.8
			c1,1.4,2.5,2,4.1,2.2c2.4,0.3,4.8-0.1,7.1-0.6c1.5-0.3,3.1-0.7,4.7-0.9c2.6-0.4,4.3,0.6,5.4,2.9c0.4,0.8,0.7,0.9,1.3,0.3
			c0.2-0.2,0.5-0.3,0.7-0.4c1.8-1.1,3.6-1,5.3,0.2c1.4,0.9,2.6,2.1,3.8,3.2c1.7,1.6,3.6,3.1,5.7,4.1c1.2,0.6,2.5,1,3.9,0.8
			c0.8-0.1,1.4-0.4,2-0.8c0.2-0.1,0.3-0.4,0.6-0.1c0.2,0.2,0,0.4-0.1,0.6c-1,1.8-2.4,3-4.2,3.9C43.7,63.1,41.5,63.5,40.2,63.6z"/>
		<path class="st4" d="M19.4,40.7c0-1,0.7-1.7,1.7-1.7c0.9,0,1.7,0.8,1.7,1.7c0,0.9-0.8,1.7-1.7,1.7C20.2,42.4,19.4,41.7,19.4,40.7z
			"/>
		<path class="st5" d="M35.8,45.2c-1,0-1.7-0.7-1.7-1.7c0-1,0.7-1.7,1.7-1.8c0.9,0,1.7,0.7,1.8,1.7C37.5,44.3,36.7,45.1,35.8,45.2z"
			/>
	</g>
</g>
</svg>
