<?xml version="1.0" encoding="utf-8"?>
<!-- Generator: Adobe Illustrator 21.0.0, SVG Export Plug-In . SVG Version: 6.00 Build 0)  -->
<svg version="1.1" id="Слой_1" xmlns="http://www.w3.org/2000/svg" xmlns:xlink="http://www.w3.org/1999/xlink" x="0px" y="0px"
	 width="200px" height="50px" viewBox="0 0 200 50" style="enable-background:new 0 0 200 50;" xml:space="preserve">
<style type="text/css">
	.st0{fill:#007BFF;}
	.st1{fill:#FFFFFF;}
</style>
<g>
	<g>
		<path class="st0" d="M20.3,42.8C12,42.8,5,37.1,3,29.4c2.6,4.9,7.9,8.3,13.8,8.3c8.6,0,15.7-7,15.7-15.7c0-6.7-4.2-12.5-10.2-14.7
			c8.9,1,15.8,8.6,15.8,17.7C38.1,34.8,30.1,42.8,20.3,42.8 M6.6,13.6c0.1-0.2,0.3-0.4,0.4-0.5c2.4-2.6,5.7-4.2,9.4-4.3
			c-3.8,1.6-6.4,5.3-6.4,9.7C10,24.3,14.7,29,20.5,29c4.1,0,7.7-2.4,9.4-5.8c-0.6,6.7-6.3,12.1-13.2,12.1C9.5,35.2,3.6,29.3,3.6,22
			C3.6,18.8,4.7,15.9,6.6,13.6 M20.6,10.4c4.4,0,8.1,3.6,8.1,8.1c0,4.4-3.6,8.1-8.1,8.1s-8.1-3.6-8.1-8.1S16.1,10.4,20.6,10.4
			 M20.3,4.7c-6,0-11.3,2.6-15.1,6.7C5,11.6,4.8,11.8,4.7,12C1.8,15.5,0,20.1,0,25c0,11.2,9.1,20.3,20.3,20.3S40.6,36.2,40.6,25
			S31.5,4.7,20.3,4.7"/>
	</g>
	<g>
		<path class="st1" d="M199.5,20c-0.1,0.3-0.3,0.5-0.6,0.6c-0.2,0.1-0.5,0.2-0.8,0.2s-0.6-0.1-0.8-0.2s-0.4-0.4-0.6-0.6
			c-0.1-0.3-0.2-0.5-0.2-0.8s0.1-0.6,0.2-0.8c0.1-0.3,0.3-0.5,0.6-0.6c0.2-0.1,0.5-0.2,0.8-0.2s0.6,0.1,0.8,0.2
			c0.2,0.2,0.4,0.4,0.6,0.6c0.1,0.3,0.2,0.5,0.2,0.8C199.7,19.4,199.7,19.7,199.5,20 M199.7,18.2c-0.2-0.3-0.4-0.5-0.7-0.7
			s-0.6-0.3-0.9-0.3c-0.3,0-0.6,0.1-0.9,0.3c-0.3,0.2-0.5,0.4-0.7,0.7c-0.2,0.3-0.2,0.6-0.2,1c0,0.3,0.1,0.7,0.2,1
			c0.2,0.3,0.4,0.5,0.7,0.7s0.6,0.3,0.9,0.3c0.3,0,0.7-0.1,1-0.3c0.3-0.2,0.5-0.4,0.7-0.7c0.2-0.3,0.2-0.6,0.2-1
			C200,18.8,199.9,18.5,199.7,18.2"/>
	</g>
	<g>
		<path class="st1" d="M198.1,19.1h-0.3v-0.7h0.3c0.2,0,0.3,0,0.3,0.1c0.1,0.1,0.1,0.1,0.1,0.3c0,0.1,0,0.2-0.1,0.3
			C198.3,19,198.2,19.1,198.1,19.1 M198.8,19c0.1-0.1,0.1-0.2,0.1-0.4c0-0.2-0.1-0.4-0.2-0.5c-0.1-0.1-0.3-0.2-0.6-0.2h-0.6v2.3h0.4
			v-0.9h0.3l0.5,0.9h0.4l-0.6-1C198.6,19.2,198.7,19.1,198.8,19"/>
	</g>
	<g>
		<polygon class="st1" points="64,23.9 55.2,23.9 55.2,17.2 52.7,17.2 52.7,32.7 55.2,32.7 55.2,25.7 64,25.7 64,32.7 66.4,32.7 
			66.4,17.2 64,17.2 		"/>
		<path class="st1" d="M66.8,33.1h-3.1v-7h-8v7h-3.3V16.8h3.3v6.7h8v-6.7h3.1V33.1z M64.4,32.3H66V17.6h-1.6v6.7h-9.5v-6.7h-1.8
			v14.8h1.8v-7h9.5V32.3z"/>
	</g>
	<g>
		<polygon class="st1" points="91.1,17.2 89,17.2 89,32.7 98.5,32.7 98.5,30.6 91.1,30.6 		"/>
		<path class="st1" d="M98.9,33.1H88.6V16.8h2.9v13.4h7.4V33.1z M89.4,32.3h8.8V31h-7.4V17.6h-1.4V32.3z"/>
	</g>
	<g>
		<path class="st1" d="M105.6,27.1l2.7-5.7l2.7,5.7C111,27.1,105.6,27.1,105.6,27.1z M107.9,17.1l-7.5,15.6h2.5l1.8-3.5h7.4l1.8,3.5
			h2.5l-7.6-15.6C108.6,16.7,108,16.8,107.9,17.1"/>
		<path class="st1" d="M117,33.1h-3.3l-1.8-3.5h-6.9l-1.8,3.5h-3.3l7.8-16.1c0.1-0.3,0.4-0.5,0.7-0.5c0.4,0,0.7,0.2,0.9,0.5
			L117,33.1z M114.1,32.3h1.7l-7.3-15.1c0,0,0,0-0.1-0.1c-0.1,0-0.1,0-0.1,0l0,0l0,0L101,32.3h1.7l1.8-3.5h7.9L114.1,32.3z
			 M111.6,27.5H105l3.3-7L111.6,27.5z M106.2,26.7h4.2l-2.1-4.4L106.2,26.7z"/>
	</g>
	<g>
		<path class="st1" d="M154.8,27.1l2.7-5.7l2.7,5.7C160.2,27.1,154.8,27.1,154.8,27.1z M157.1,17.1l-7.5,15.6h2.5l1.8-3.5h7.4
			l1.8,3.5h2.5L158,17.1C157.8,16.7,157.2,16.8,157.1,17.1"/>
		<path class="st1" d="M166.2,33.1h-3.3l-1.8-3.5h-6.9l-1.8,3.5H149l7.8-16.1c0.1-0.3,0.4-0.5,0.7-0.5c0.4,0,0.7,0.2,0.9,0.5
			L166.2,33.1z M163.3,32.3h1.7l-7.3-15.1c0,0,0,0-0.1-0.1c-0.1,0-0.1,0-0.1,0l0,0l0,0l-7.2,15.1h1.7l1.8-3.5h7.9L163.3,32.3z
			 M160.8,27.5h-6.6l3.3-7L160.8,27.5z M155.4,26.7h4.2l-2.1-4.4L155.4,26.7z"/>
	</g>
	<g>
		<polygon class="st1" points="188.8,24.1 184.3,17.2 181.6,17.2 187.6,26.2 187.6,32.7 190,32.7 190,26.2 196.1,17.2 193.4,17.2 		
			"/>
		<path class="st1" d="M190.4,33.1h-3.2v-6.8l-6.3-9.5h3.6l4.3,6.6l4.4-6.6h3.6l-6.4,9.5V33.1z M188,32.3h1.7v-6.2l5.8-8.5h-1.8
			l-4.8,7.2l-4.7-7.2h-1.8l5.7,8.5V32.3z"/>
	</g>
	<g>
		<path class="st1" d="M129.8,29.1c-1.1,1.2-2.7,1.9-4.3,1.9c-3.3,0-5.9-2.7-5.9-5.9c0-3.3,2.7-5.9,5.9-5.9c1.5,0,3,0.6,4.1,1.7
			l0.1,0.1l1.5-1.6l-0.1-0.1c-1.5-1.4-3.5-2.2-5.6-2.2c-4.5,0-8.1,3.6-8.1,8.1s3.6,8.1,8.1,8.1c2.2,0,4.2-0.9,5.8-2.4l0.1-0.1
			l-1.5-1.6L129.8,29.1z"/>
		<path class="st1" d="M125.5,33.7c-4.7,0-8.5-3.8-8.5-8.5c0-4.7,3.8-8.5,8.5-8.5c2.2,0,4.3,0.8,5.9,2.3l0.4,0.4l-2,2.1l-0.4-0.4
			c-1-1-2.4-1.6-3.8-1.6c-3,0-5.5,2.5-5.5,5.5s2.5,5.5,5.5,5.5c1.5,0,3-0.7,4-1.8l0.3-0.3l0.4,0.4l1.8,1.9l-0.4,0.4
			C129.8,32.8,127.7,33.7,125.5,33.7z M125.5,17.5c-4.3,0-7.7,3.5-7.7,7.7c0,4.3,3.5,7.7,7.7,7.7c2,0,3.8-0.7,5.4-2.1l-1.1-1.1
			c-1.1,1.1-2.7,1.7-4.3,1.7c-3.5,0-6.3-2.8-6.3-6.3s2.8-6.3,6.3-6.3c1.5,0,3.1,0.6,4.2,1.6l1-1C129.3,18.2,127.4,17.5,125.5,17.5z"
			/>
	</g>
	<g>
		<path class="st1" d="M178.9,29.1c-1.1,1.2-2.7,1.9-4.3,1.9c-3.3,0-5.9-2.7-5.9-5.9c0-3.3,2.7-5.9,5.9-5.9c1.5,0,3,0.6,4.1,1.7
			l0.1,0.1l1.5-1.6l-0.1-0.1c-1.5-1.4-3.5-2.2-5.6-2.2c-4.5,0-8.1,3.6-8.1,8.1s3.6,8.1,8.1,8.1c2.2,0,4.2-0.9,5.8-2.4l0.1-0.1
			l-1.5-1.6L178.9,29.1z"/>
		<path class="st1" d="M174.6,33.7c-4.7,0-8.5-3.8-8.5-8.5c0-4.7,3.8-8.5,8.5-8.5c2.2,0,4.3,0.8,5.9,2.3l0.4,0.4l-2,2.1l-0.4-0.4
			c-1-1-2.4-1.6-3.8-1.6c-3,0-5.5,2.5-5.5,5.5s2.5,5.5,5.5,5.5c1.5,0,3-0.7,4-1.8l0.3-0.3l0.4,0.4l1.8,1.9l-0.4,0.4
			C178.9,32.8,176.8,33.7,174.6,33.7z M174.6,17.5c-4.3,0-7.7,3.5-7.7,7.7c0,4.3,3.5,7.7,7.7,7.7c2,0,3.8-0.7,5.4-2.1l-1.1-1.1
			c-1.1,1.1-2.7,1.7-4.3,1.7c-3.5,0-6.3-2.8-6.3-6.3s2.8-6.3,6.3-6.3c1.5,0,3.1,0.6,4.2,1.6l1-1C178.4,18.2,176.5,17.5,174.6,17.5z"
			/>
	</g>
	<g>
		<path class="st1" d="M140.7,24.6h-2.9V19h3.3c2.2,0,3.2,0.9,3.2,2.8C144.3,23.6,143,24.6,140.7,24.6 M145.5,24.8
			c0.7-0.8,1.1-1.9,1.1-3c0-0.8-0.2-1.7-0.5-2.3c-1-1.8-2.6-2.7-4.9-2.7h-6v15.8h2.5v-6h3.1l4.2,6h2.7l-4.5-6.4
			C144.1,26,144.8,25.6,145.5,24.8"/>
		<path class="st1" d="M148.4,33h-3.6l-4.2-6h-2.5v6h-3.3V16.4h6.4c2.4,0,4.2,1,5.2,2.9c0.3,0.7,0.5,1.6,0.5,2.5
			c0,1.2-0.4,2.4-1.2,3.2l0,0l0,0c-0.6,0.7-1.2,1.1-2,1.4L148.4,33z M145.2,32.2h1.8l-4.4-6.3l0.5-0.1c0.9-0.2,1.5-0.6,2.1-1.3l0,0
			c0.6-0.7,1-1.7,1-2.8c0-0.7-0.2-1.6-0.5-2.1c-0.9-1.7-2.4-2.5-4.6-2.5h-5.6v15.1h1.8v-6h3.7L145.2,32.2z M140.7,25h-3.3v-6.4h3.7
			c2.4,0,3.6,1,3.6,3.2C144.7,23.8,143.2,25,140.7,25z M138.2,24.2h2.5c1.5,0,3.2-0.4,3.2-2.4c0-1.7-0.8-2.4-2.8-2.4h-2.9V24.2z"/>
	</g>
	<g>
		<path class="st1" d="M77.7,30.9c-3.3,0-5.9-2.6-5.9-5.9s2.6-5.9,5.9-5.9s5.9,2.6,5.9,5.9S81,30.9,77.7,30.9 M77.7,16.9
			c-4.5,0-8.1,3.6-8.1,8.1s3.6,8.1,8.1,8.1s8.1-3.6,8.1-8.1C85.8,20.6,82.2,16.9,77.7,16.9"/>
		<path class="st1" d="M77.7,33.5c-4.7,0-8.5-3.8-8.5-8.5s3.8-8.5,8.5-8.5c4.7,0,8.5,3.8,8.5,8.5S82.4,33.5,77.7,33.5z M77.7,17.3
			c-4.3,0-7.7,3.5-7.7,7.7s3.5,7.7,7.7,7.7c4.3,0,7.7-3.5,7.7-7.7S82,17.3,77.7,17.3z M77.7,31.3c-3.5,0-6.3-2.8-6.3-6.3
			s2.8-6.3,6.3-6.3c3.5,0,6.3,2.8,6.3,6.3S81.2,31.3,77.7,31.3z M77.7,19.5c-3.1,0-5.5,2.4-5.5,5.5s2.4,5.5,5.5,5.5s5.5-2.4,5.5-5.5
			S80.8,19.5,77.7,19.5z"/>
	</g>
</g>
</svg>
