<?xml version="1.0" encoding="utf-8"?>
<!-- Generator: Adobe Illustrator 21.0.0, SVG Export Plug-In . SVG Version: 6.00 Build 0)  -->
<svg version="1.1" id="Слой_1" xmlns="http://www.w3.org/2000/svg" xmlns:xlink="http://www.w3.org/1999/xlink" x="0px" y="0px"
	 viewBox="0 0 300 100" style="enable-background:new 0 0 300 100;" xml:space="preserve">
<style type="text/css">
	.st0{fill:#F29034;}
</style>
<g>
	<path class="st0" d="M0,64l43.5-35.6H0V3.1h60.3l17,31.4L0,96.1V64z M51.2,96.1L33.9,75.5l19.6-15.9l32.1,36.5H51.2z"/>
	<g>
		<path class="st0" d="M100.8,72.4h8.9v5.9h-8.9v12.1h11.2v5.9H94.3V55h17.8v5.9h-11.2V72.4z"/>
		<path class="st0" d="M131.3,73.4h8.4v5.9h-8.4v17.1h-6.5V55H142v5.9h-10.7V73.4z"/>
		<path class="st0" d="M152,55h20.1v5.9h-6.8v35.5h-6.5V60.9H152V55z"/>
		<path class="st0" d="M183.1,64.9c0-6.6,3.5-10.4,9.9-10.4c6.4,0,9.9,3.8,9.9,10.4v21.5c0,6.6-3.5,10.4-9.9,10.4
			c-6.4,0-9.9-3.8-9.9-10.4V64.9z M189.6,86.9c0,3,1.3,4.1,3.4,4.1c2.1,0,3.4-1.1,3.4-4.1V64.5c0-3-1.3-4.1-3.4-4.1
			c-2.1,0-3.4,1.1-3.4,4.1V86.9z"/>
		<path class="st0" d="M224.3,79.9l-2,3.8v12.7h-6.5V55h6.5v18l8.5-18h6.5l-9.1,18.5l9.1,23h-6.7L224.3,79.9z"/>
		<path class="st0" d="M255.4,72.4h8.9v5.9h-8.9v12.1h11.2v5.9h-17.8V55h17.8v5.9h-11.2V72.4z"/>
		<path class="st0" d="M285.2,66.4v30h-5.9V55h8.2l6.7,24.8V55h5.8v41.4h-6.7L285.2,66.4z"/>
	</g>
</g>
</svg>
