<svg id="Layer_1" data-name="Layer 1" xmlns="http://www.w3.org/2000/svg" xmlns:xlink="http://www.w3.org/1999/xlink" viewBox="0 0 256 256"><defs><style>.cls-1{fill:none;}.cls-2{fill:#fff;}.cls-3{clip-path:url(#clip-path);}</style><clipPath id="clip-path"><circle class="cls-1" cx="120.14" cy="132.85" r="47.15"/></clipPath></defs><title>parsec-system</title><path class="cls-2" d="M81.42,97.19a2.79,2.79,0,0,0,2.09-.94,54.5,54.5,0,0,1,9.72-8.67A2.79,2.79,0,1,0,90.05,83a59.74,59.74,0,0,0-10.72,9.55,2.79,2.79,0,0,0,.25,3.94A2.73,2.73,0,0,0,81.42,97.19Z"/><path class="cls-2" d="M68.18,121.2a2.48,2.48,0,0,0,.66.08,2.78,2.78,0,0,0,2.7-2.13A54.11,54.11,0,0,1,76.13,107a2.79,2.79,0,1,0-4.94-2.59,59.36,59.36,0,0,0-5.07,13.45A2.79,2.79,0,0,0,68.18,121.2Z"/><path class="cls-2" d="M71.6,145A53.89,53.89,0,0,1,70,132.08a2.8,2.8,0,0,0-2.79-2.79h0a2.79,2.79,0,0,0-2.78,2.8,59.78,59.78,0,0,0,1.74,14.25,2.8,2.8,0,0,0,2.71,2.12,3.07,3.07,0,0,0,.67-.08A2.79,2.79,0,0,0,71.6,145Z"/><path class="cls-2" d="M103.73,81.68a2.73,2.73,0,0,0,1-.19,54.33,54.33,0,0,1,12.63-3.14,2.79,2.79,0,1,0-.69-5.54,59.68,59.68,0,0,0-13.94,3.47,2.79,2.79,0,0,0,1,5.4Z"/><path class="cls-2" d="M175.66,155.89a2.79,2.79,0,0,0-3.77,1.17,53.94,53.94,0,0,1-7.4,10.71,2.79,2.79,0,0,0,2.09,4.64,2.76,2.76,0,0,0,2.09-.94,59.34,59.34,0,0,0,8.16-11.81A2.78,2.78,0,0,0,175.66,155.89Z"/><path class="cls-2" d="M180.85,128.94a2.79,2.79,0,0,0-2.79,2.79V132a54.32,54.32,0,0,1-1.56,12.92,2.8,2.8,0,0,0,2.05,3.38,3.05,3.05,0,0,0,.66.08,2.79,2.79,0,0,0,2.71-2.13,59.84,59.84,0,0,0,1.72-14.29v-.2A2.79,2.79,0,0,0,180.85,128.94Z"/><path class="cls-2" d="M154.75,176.41a53.64,53.64,0,0,1-11.51,6.06,2.79,2.79,0,0,0,1,5.4,2.71,2.71,0,0,0,1-.18,59.71,59.71,0,0,0,12.7-6.68,2.8,2.8,0,1,0-3.18-4.6Z"/><path class="cls-2" d="M104.94,182.52a54,54,0,0,1-11.53-6.05,2.79,2.79,0,0,0-3.17,4.6A59.65,59.65,0,0,0,103,187.74a2.79,2.79,0,0,0,2-5.22Z"/><path class="cls-2" d="M130.61,185.59a55.06,55.06,0,0,1-13,0,2.79,2.79,0,1,0-.66,5.54,60.08,60.08,0,0,0,14.35,0,2.79,2.79,0,0,0-.67-5.54Z"/><path class="cls-2" d="M76.24,157.16a2.79,2.79,0,0,0-4.94,2.6,59.85,59.85,0,0,0,8.18,11.79,2.79,2.79,0,0,0,3.94.24,2.79,2.79,0,0,0,.24-3.94A54.06,54.06,0,0,1,76.24,157.16Z"/><path class="cls-2" d="M207.79,84a8.24,8.24,0,0,0-10.9-7.82,91,91,0,0,0-109.13-29A19.29,19.29,0,0,0,56.5,69.74,91,91,0,0,0,106,219.91a11,11,0,0,0,20.74,3.17c48.84-.88,88.31-42,88.31-92.37a90.54,90.54,0,0,0-9.69-40.81A8.26,8.26,0,0,0,207.79,84ZM72.69,45.52A13.74,13.74,0,1,1,59,59.25,13.75,13.75,0,0,1,72.69,45.52Zm44.2,178a5.47,5.47,0,0,1-5.46-5.37l0-.11a3,3,0,0,0,0-.67,5.46,5.46,0,1,1,5.4,6.15Zm92.58-92.86c0,46.93-36.34,85.26-81.56,86.77a11,11,0,0,0-21.4-3.15A85.41,85.41,0,0,1,60.2,74,19.29,19.29,0,0,0,90.61,52.09,85.35,85.35,0,0,1,192.52,79.68a8.25,8.25,0,0,0,7,12.63,6.49,6.49,0,0,0,.77,0A84.82,84.82,0,0,1,209.47,130.7Z"/><circle class="cls-2" cx="17.21" cy="94.58" r="4.13"/><circle class="cls-2" cx="226.32" cy="155.48" r="4.13"/><circle class="cls-2" cx="56.16" cy="222.77" r="8.15"/><path class="cls-2" d="M199.91,218.42l.46-6a2.79,2.79,0,0,0-4.31-2.54L191,213.15l-5.61-2.29a2.75,2.75,0,0,0-2.9.49,2.79,2.79,0,0,0-.85,2.82l1.59,5.84-3.92,4.62a2.8,2.8,0,0,0,2,4.6l6.05.29,3.18,5.16A2.81,2.81,0,0,0,192.9,236h.26a2.82,2.82,0,0,0,2.35-1.79l2.15-5.66,5.88-1.44a2.78,2.78,0,0,0,1.09-4.88Z"/><path class="cls-2" d="M139.32,23.26l-.25,3.62a2.8,2.8,0,0,0,1.38,2.6,2.87,2.87,0,0,0,1.41.38,2.79,2.79,0,0,0,1.54-.47l3-2,3.37,1.35a2.78,2.78,0,0,0,3.72-3.34l-1-3.5,2.33-2.79a2.79,2.79,0,0,0-2-4.58l-3.62-.15-1.93-3.07a2.82,2.82,0,0,0-2.65-1.3,2.79,2.79,0,0,0-2.33,1.81l-1.27,3.4-3.52.89A2.79,2.79,0,0,0,136.47,21Z"/><path class="cls-2" d="M19.19,166.6l-1.7-1-.18-1.95a2.79,2.79,0,0,0-4.67-1.8l-1.44,1.32-1.9-.43a2.79,2.79,0,0,0-3.16,3.88L7,168.43l-1,1.68a2.78,2.78,0,0,0,2.71,4.2l1.95-.22,1.28,1.48a2.81,2.81,0,0,0,2.1,1,3,3,0,0,0,.72-.09,2.81,2.81,0,0,0,2-2.15l.38-1.91,1.8-.77a2.8,2.8,0,0,0,.28-5Z"/><g class="cls-3"><path class="cls-2" d="M161.28,180.12a9.52,9.52,0,0,0,2.94-2,10.54,10.54,0,0,0,1.72-2.33,9.16,9.16,0,0,0,8.6-2.46,8.65,8.65,0,0,0,2.33-4.05,9.59,9.59,0,0,0,2.95-2,10.21,10.21,0,0,0,2.21-3.56,9.2,9.2,0,0,0,7-2.58,9.36,9.36,0,0,0,2.58-8c.25-.24.62-.49.86-.73a9.33,9.33,0,0,0,2.7-6.14,9.07,9.07,0,0,0-14.36-10.81,9.33,9.33,0,0,0-2.7,6.14,9.05,9.05,0,0,0-1,5.89c-.24.25-.61.5-.85.74a10.19,10.19,0,0,0-2.22,3.56,9.24,9.24,0,0,0-7,2.58,8.59,8.59,0,0,0-2.34,4,9.55,9.55,0,0,0-2.94,2,13.31,13.31,0,0,0-1.23,1.47,9.13,9.13,0,0,0-6.51.12,13,13,0,0,0-2.09-3.19,9.78,9.78,0,0,0-13.63-.12,9.81,9.81,0,0,0-2.82-5.77,9.57,9.57,0,0,0-4.91-2.58,9.65,9.65,0,0,0-1.84-6.26,10.26,10.26,0,0,0-1.48-6.51,2,2,0,0,0,.86-.49,1.81,1.81,0,0,0,.49-1.72,1.85,1.85,0,0,0,1.72-2.46,2.16,2.16,0,0,0,1.48-.49,1.71,1.71,0,0,0,.49-1.47c.24-.12.61-.25.73-.49a1.77,1.77,0,0,0,.5-1.23c.12,0,.24-.12.36-.25a2.22,2.22,0,0,0,.37-.61,1.36,1.36,0,0,0,1-.37,1.68,1.68,0,0,0,.37-1.1h.13a1.22,1.22,0,0,0-1.72-1.72,1,1,0,0,0-.37.73,1.27,1.27,0,0,0-1.35,1.35.13.13,0,0,1-.13.13,2.15,2.15,0,0,0-1.71.49,1.69,1.69,0,0,0-.5,1.47.12.12,0,0,0-.12.12,2.06,2.06,0,0,0-1.59.5,1.58,1.58,0,0,0-.5,1.47,1.74,1.74,0,0,0-2,.49,1.5,1.5,0,0,0-.49,1,2.17,2.17,0,0,0-2.09.37,2.63,2.63,0,0,0-.49.74,10.1,10.1,0,0,0-2.58-.62,2,2,0,0,0-.49-.86.42.42,0,0,0-.25-.12c.13-.12.37-.24.5-.37a1.94,1.94,0,0,0,0-2.7l-.13-.12.13-.12a1.84,1.84,0,0,0,.49-1.72,1.88,1.88,0,0,0,1.35-.49,1.7,1.7,0,0,0,.49-1.48,1.93,1.93,0,0,0,.86-.49,2.21,2.21,0,0,0,.49-2,2.24,2.24,0,0,0,1.23-.49,2.33,2.33,0,0,0,.49-2c.12,0,.12,0,.24-.12a1.12,1.12,0,0,0,1.35-.25,1.66,1.66,0,0,0,.37-1.1h.13a1.22,1.22,0,0,0-1.72-1.72,1,1,0,0,0-.37.74,1.39,1.39,0,0,0-1,.36,1.33,1.33,0,0,0-.37.86,2,2,0,0,0-1.6.49,1.5,1.5,0,0,0-.49,1.11,1.78,1.78,0,0,0-2,.49,1.6,1.6,0,0,0-.5,1.6,1.89,1.89,0,0,0-1.59.49c-.12.12-.25.37-.37.49a1.91,1.91,0,0,0-2,.37,1,1,0,0,0-.37.61c-.13-.12-.13-.24-.25-.37a1.94,1.94,0,0,0-2.7,0c-.12.13-.12.13-.12.25a8,8,0,0,0-3.44,0,2,2,0,0,0-.61-1.35,1.56,1.56,0,0,0-1.11-.49,8.35,8.35,0,0,0-1.35-1.6,9.69,9.69,0,0,0-4.79-2.58.47.47,0,0,0-.12-.37A9.63,9.63,0,0,0,98,109.15a9.93,9.93,0,0,0-8-2.82,9.68,9.68,0,0,0,.61-7.61A10,10,0,0,0,93,91.59,9.65,9.65,0,0,0,98.41,89a10.49,10.49,0,0,0,2.09-3.2A8.89,8.89,0,0,0,109,83.37a9.06,9.06,0,0,0,2.09-9.58,8.64,8.64,0,0,0,6.38-2.7A9.11,9.11,0,0,0,104.55,58.2a8.55,8.55,0,0,0-2.34,3.93A9,9,0,0,0,91.66,73.42a8.77,8.77,0,0,0-6.14,2.7,9.09,9.09,0,0,0-2.71,6.51A9.72,9.72,0,0,0,74.1,95.52a9.82,9.82,0,0,0-1,11.42,4.77,4.77,0,0,0-1.59,1.11,6.94,6.94,0,0,0-2,5.15c-4.29.13-8,1.35-10.43,3.81-9.7,9.7-.62,34.38,20.26,55.13S124.93,202,134.51,192.4a12.29,12.29,0,0,0,2.09-2.82c3.56,1.1,6.75.73,8.84-1.23,5.4,3.68,11.41,4.42,14.48,1.35C162,187.24,162.38,183.81,161.28,180.12Z"/></g><path class="cls-2" d="M171.59,81.4v-.12l-.25-.25h-.12a24.8,24.8,0,0,0-4.79-.49c-3.19,0-7.61.62-10.43,3.44L145.31,94.66c-.86.37-2.45.74-5.89.74-6.39,0-8.6,2.33-11.54,5.28l-.62.61c-.24.25-1.22,1.23,3.81,7.62l-5.65,5.52a1.88,1.88,0,0,0-.49,1.11,1.31,1.31,0,0,0,.49,1.1l2.33,2.34a1.56,1.56,0,0,0,2.21,0l5.16-5.16c.62.73,1.11,1.23,1.6,1.72s1.1,1,1.72,1.59l-5.16,5.16a1.56,1.56,0,0,0,0,2.21l2.33,2.33a1.82,1.82,0,0,0,1.11.49,1.31,1.31,0,0,0,1.1-.49l5.65-5.64c1.47,1.1,5.4,4,6.88,4a1,1,0,0,0,.73-.25l.62-.61c2.94-2.83,5.15-5.16,5.28-11.54a18.6,18.6,0,0,1,.61-5.65L168.4,96.38C173.68,91.59,171.71,81.89,171.59,81.4Zm-19,17.32-2.7-.86,10.92-6.51-4.66,5.77-.62.74,1,.24,2.7.62-11.42,6.5,5-5.52.62-.74Zm-16.82,13.87-.5-.49-6.13,6.14a.39.39,0,0,1-.5,0l-2.33-2.33a.39.39,0,0,1,0-.5l6.39-6.38-.25-.37-.12-.12c-2-2.46-4.05-5.65-4.05-6.39l.49-.49c2.82-2.82,4.79-4.79,10.68-4.91a15.65,15.65,0,0,0,6.38-1L156.73,85c2.58-2.58,6.63-3.07,9.58-3.07a24.15,24.15,0,0,1,4.05.37l-7.12,7L148.38,98.1l3.93,1.23-7.61,8.47.24-.37-7.36,7.37C137.09,114.19,136.47,113.45,135.74,112.59Z"/><circle class="cls-2" cx="129.47" cy="86.44" r="0.74"/><circle class="cls-2" cx="167.41" cy="103.14" r="0.74"/><circle class="cls-2" cx="134.75" cy="85.21" r="0.61"/><circle class="cls-2" cx="101.48" cy="109.4" r="0.61"/><circle class="cls-2" cx="90.3" cy="151.88" r="0.61"/><circle class="cls-2" cx="113.02" cy="116.03" r="1.35"/><circle class="cls-2" cx="91.66" cy="137.27" r="1.35"/><circle class="cls-2" cx="121.49" cy="142.3" r="0.74"/><circle class="cls-2" cx="135.98" cy="140.09" r="0.49"/><circle class="cls-2" cx="146.91" cy="137.76" r="1.11"/><circle class="cls-2" cx="179.2" cy="120.57" r="0.74"/><circle class="cls-2" cx="165.2" cy="123.15" r="0.98"/><circle class="cls-2" cx="88.22" cy="119.59" r="0.98"/><circle class="cls-2" cx="136.84" cy="164.04" r="0.49"/><circle class="cls-2" cx="182.27" cy="118.12" r="0.49"/><circle class="cls-2" cx="182.52" cy="122.66" r="0.49"/><circle class="cls-2" cx="147.77" cy="76.61" r="0.61"/><polygon class="cls-2" points="100.5 145.62 106.27 146.11 100.5 146.6 100 152.37 99.51 146.6 93.74 146.11 99.51 145.62 100 139.85 100.5 145.62"/><polygon class="cls-2" points="125.54 158.14 128.98 158.39 125.54 158.76 125.3 162.2 124.93 158.76 121.49 158.39 124.93 158.14 125.3 154.71 125.54 158.14"/><polygon class="cls-2" points="164.1 142.67 167.17 142.92 164.1 143.29 163.85 146.23 163.61 143.29 160.66 142.92 163.61 142.67 163.85 139.73 164.1 142.67"/><polygon class="cls-2" points="114 93.44 122.84 94.17 114 94.91 113.14 103.87 112.41 94.91 103.44 94.17 112.41 93.44 113.14 84.47 114 93.44"/></svg>