<svg xmlns="http://www.w3.org/2000/svg" viewBox="0 0 1024 1024"><defs><style>.cls-1{fill:none;stroke:#e36479;stroke-width:6px;}.cls-1,.cls-4{stroke-miterlimit:10;}.cls-2,.cls-3,.cls-4{fill:#fff;}.cls-3{opacity:0.3;}.cls-4{stroke:#000;}.cls-5{fill:#e36479;}</style></defs><title>polkadot</title><g id="Layer_2" data-name="Layer 2"><polygon class="cls-1" points="725.14 139.75 286.36 139.75 66.96 519.75 286.36 899.75 725.14 899.75 944.54 519.75 725.14 139.75"/><circle class="cls-2" cx="314.5" cy="629.5" r="79"/><circle class="cls-2" cx="511.5" cy="291.5" r="79"/><circle class="cls-2" cx="702.5" cy="405.5" r="79"/><path class="cls-3" d="M705.5,519.5c36,95,76,116,155,116,0,0-67,121-66.91,121-50.09-83-91.09-93-189.09-62Z"/><circle class="cls-4" cx="860.5" cy="714.5" r="79"/><path class="cls-5" d="M609.5,405.5a92.35,92.35,0,0,1,8.89-39.65l-11.89-20.6H587.35a92.91,92.91,0,0,1-151.7,0H405L304.25,519.75l9.68,16.76h.57a93,93,0,0,1,80.24,140L411,693l193,2L707.25,519.75l-12.46-21.57A93.12,93.12,0,0,1,609.5,405.5Z"/><polygon class="cls-2" points="1020.5 226.5 699.5 226.5 699.5 281.5 700 281.5 700 316 734.5 281.5 1020.5 281.5 1020.5 226.5"/><path d="M800.89,254.69a5.55,5.55,0,0,1-3.81,1.15h-2.82V264h-2.61V243H797a5.74,5.74,0,0,1,3.85,1.13,4.45,4.45,0,0,1,1.31,3.56v3.41A4.57,4.57,0,0,1,800.89,254.69ZM799,245.76a2.31,2.31,0,0,0-1.66-.51h-3.12v8.34h3.12a1.89,1.89,0,0,0,2.19-2.19v-4A2.25,2.25,0,0,0,799,245.76Z"/><path d="M814.21,264l-1.14-5.31h-5.85L806.05,264h-2.67l5.07-21h3.45l5,21Zm-4.08-19-2.43,11.46h4.89Z"/><path d="M825.46,255.3h-2.67V264h-2.61V243h5.37a5.74,5.74,0,0,1,3.85,1.13,4.45,4.45,0,0,1,1.31,3.56v2.87q0,3.41-2.7,4.23l4.17,9.21h-2.85Zm2.11-9.54a2.31,2.31,0,0,0-1.66-.51h-3.12v7.8h3.12a2.26,2.26,0,0,0,1.66-.52,2.29,2.29,0,0,0,.53-1.67v-3.44A2.25,2.25,0,0,0,827.57,245.76Z"/><path d="M844.81,264l-1.14-5.31h-5.85L836.65,264H834l5.07-21h3.45l5,21Zm-4.08-19-2.43,11.46h4.89Z"/><path d="M850.18,255.75V253.5h9.75v2.25Z"/><path d="M866.12,262.73a4.94,4.94,0,0,1-1.39-3.83V248.1a4.93,4.93,0,0,1,1.39-3.82,5.75,5.75,0,0,1,4-1.28h3.66v2.28h-4a2.54,2.54,0,0,0-1.8.66,2.15,2.15,0,0,0-.69,1.59v12a2.1,2.1,0,0,0,.69,1.58,2.5,2.5,0,0,0,1.8.67h4V264h-3.66A5.74,5.74,0,0,1,866.12,262.73Z"/><path d="M886.33,264v-9.66h-6.18V264h-2.61V243h2.61v9.12h6.18V243h2.61v21Z"/><path d="M903.07,264l-1.14-5.31h-5.85L894.91,264h-2.67l5.07-21h3.45l5,21ZM899,245l-2.43,11.46h4.89Z"/><path d="M907.84,264v-2.19h2.1V245.19h-2.1V243h6.81v2.19h-2.1v16.62h2.1V264Z"/><path d="M925.57,264,921,245.23V264h-2.43V243h4.26l4.62,18.78V243h2.43v21Z"/><path class="cls-2" d="M701.53,634.81a5.74,5.74,0,0,1-3.95-.95l-5-2.76,10.15-18.38,4.68,2.59a5.87,5.87,0,0,1,2.9,2.83,4.56,4.56,0,0,1-.65,3.76l-.83,1.49a4,4,0,0,1-3.12,2.25,3.87,3.87,0,0,1-.08,4.17l-1.31,2.37A4.78,4.78,0,0,1,701.53,634.81Zm6.33-16.11a2.36,2.36,0,0,0-1.21-1.25l-2.71-1.5-3.21,5.81,2.71,1.49a2.15,2.15,0,0,0,1.65.23,2.06,2.06,0,0,0,1.32-1.09l1.11-2A2.27,2.27,0,0,0,707.86,618.7Zm-4.14,7.95a2.16,2.16,0,0,0-1.11-1.28l-3-1.64L696,630.4,698.9,632a2.35,2.35,0,0,0,1.73.36,2.31,2.31,0,0,0,1.28-1.2l1.58-2.86A2.1,2.1,0,0,0,703.72,626.65Z"/><path class="cls-2" d="M715.07,633.59l-2.33-1.3-4.21,7.62-2.29-1.26,10.16-18.38,4.7,2.59a5.74,5.74,0,0,1,2.83,2.85,4.44,4.44,0,0,1-.58,3.75L722,632q-1.63,3-4.41,2.39l-.8,10.08-2.5-1.38Zm6.47-7.33a2.33,2.33,0,0,0-1.21-1.25l-2.74-1.51-3.77,6.83,2.73,1.5a2.28,2.28,0,0,0,1.72.35,2.32,2.32,0,0,0,1.26-1.2l1.67-3A2.23,2.23,0,0,0,721.54,626.26Z"/><path class="cls-2" d="M718.85,645.61l1.06-1.92,1.83,1,8-14.55-1.84-1,1.06-1.92,6,3.29-1.06,1.92-1.83-1L724,646l1.84,1-1.06,1.91Z"/><path class="cls-2" d="M737.32,654.58a5.74,5.74,0,0,1-4-1l-5.15-2.84,10.16-18.38,4.83,2.67a6.49,6.49,0,0,1,3,2.93,4.28,4.28,0,0,1-.53,3.8L740.12,652A4.75,4.75,0,0,1,737.32,654.58Zm6.49-15.93a2.16,2.16,0,0,0-1.11-1.28l-3.13-1.73-8,14.44,3.1,1.71a2.35,2.35,0,0,0,1.73.36,2.24,2.24,0,0,0,1.28-1.2l5.87-10.63A2.11,2.11,0,0,0,743.81,638.65Z"/><path class="cls-2" d="M743.61,657.83a5,5,0,0,1,.63-4l5.22-9.45a5,5,0,0,1,3.07-2.68,5.71,5.71,0,0,1,4.12.83l3.55,2-1.1,2-3.81-2.1a2.51,2.51,0,0,0-1.9-.3,2.16,2.16,0,0,0-1.37,1.06l-5.77,10.45a2.13,2.13,0,0,0-.17,1.73,2.5,2.5,0,0,0,1.26,1.45l2.41,1.33,3.15-5.7-2.2-1.22,1.08-2,4.39,2.43-5.34,9.66-4.33-2.39A5.68,5.68,0,0,1,743.61,657.83Z"/><path class="cls-2" d="M754.9,665.53l10.16-18.38,8.61,4.76-1.06,1.91-6.33-3.49-3.32,6,5.67,3.13-1.06,1.92-5.67-3.13-3.66,6.61,6.33,3.5-1.06,1.92Z"/><polygon class="cls-2" points="318.5 748.5 318.5 714.5 284.5 748.5 -0.5 748.5 -0.5 803.5 320.5 803.5 320.5 748.5 318.5 748.5"/><path d="M100.89,776.69a5.55,5.55,0,0,1-3.81,1.15H94.26V786H91.65V765H97a5.74,5.74,0,0,1,3.85,1.13,4.45,4.45,0,0,1,1.31,3.56v3.42A4.58,4.58,0,0,1,100.89,776.69ZM99,767.76a2.31,2.31,0,0,0-1.66-.51H94.26v8.34h3.12a1.89,1.89,0,0,0,2.19-2.19v-4A2.26,2.26,0,0,0,99,767.76Z"/><path d="M114.21,786l-1.14-5.3h-5.85l-1.17,5.3h-2.67l5.07-21h3.45l5,21Zm-4.08-19-2.43,11.47h4.89Z"/><path d="M125.46,777.3h-2.67V786h-2.61V765h5.37a5.74,5.74,0,0,1,3.85,1.13,4.45,4.45,0,0,1,1.31,3.56v2.87q0,3.41-2.7,4.23l4.17,9.21h-2.85Zm2.11-9.54a2.31,2.31,0,0,0-1.66-.51h-3.12v7.8h3.12a1.89,1.89,0,0,0,2.19-2.18v-3.45A2.26,2.26,0,0,0,127.57,767.76Z"/><path d="M144.81,786l-1.14-5.3h-5.85l-1.17,5.3H134l5.07-21h3.45l5,21Zm-4.08-19-2.43,11.47h4.89Z"/><path d="M150.18,777.75V775.5h9.75v2.25Z"/><path d="M166.12,784.73a4.92,4.92,0,0,1-1.39-3.83V770.11a4.94,4.94,0,0,1,1.39-3.83,5.75,5.75,0,0,1,4-1.28h3.66v2.29h-4a2.5,2.5,0,0,0-1.8.66,2.11,2.11,0,0,0-.69,1.59v11.93a2.11,2.11,0,0,0,.69,1.59,2.5,2.5,0,0,0,1.8.66h4V786h-3.66A5.74,5.74,0,0,1,166.12,784.73Z"/><path d="M186.33,786v-9.66h-6.18V786h-2.61V765h2.61v9.12h6.18V765h2.61v21Z"/><path d="M203.07,786l-1.14-5.3h-5.85l-1.17,5.3h-2.67l5.07-21h3.45l5,21ZM199,767l-2.43,11.47h4.89Z"/><path d="M207.84,786v-2.19h2.1V767.2h-2.1V765h6.81v2.2h-2.1v16.61h2.1V786Z"/><path d="M225.57,786,221,767.22V786h-2.43V765h4.26l4.62,18.79V765h2.43v21Z"/><path d="M837.09,715.55l24.34,14.33a.9.9,0,0,0,.5.14.91.91,0,0,0,.51-.14l24.5-14.41a1,1,0,0,0,.46-.62,1.06,1.06,0,0,0-.11-.76L862.9,673.35a1,1,0,0,0-1.71,0l-24.45,40.82a1.06,1.06,0,0,0-.11.76A1,1,0,0,0,837.09,715.55Zm24,11.79-21.26-12.53,21.26-9.8Zm2-22.33,21.2,9.72-21.2,12.48Zm0-2.2V677.48l20.89,34.91Zm-2,0-20.95,9.66,20.95-35Z"/><path d="M885.9,720.17,862,734.37l-23.88-14.13a1,1,0,0,0-1.33,1.43l24.4,34.48a1,1,0,0,0,1.63,0l24.45-34.54a1,1,0,0,0-.08-1.25A1,1,0,0,0,885.9,720.17ZM861,736.11v16.31l-19.87-28.08Zm2,16.32V736.11l19.93-11.82Z"/><path class="cls-2" d="M459.82,498.27h-4.18V511.9h-4.09V479H460q4,0,6,1.77t2.05,5.57v4.51q0,5.31-4.23,6.63l6.53,14.42h-4.46Zm3.32-14.94a3.66,3.66,0,0,0-2.61-.8h-4.89v12.22h4.89a3.57,3.57,0,0,0,2.61-.82,3.61,3.61,0,0,0,.82-2.61v-5.41A3.5,3.5,0,0,0,463.14,483.33Z"/><path class="cls-2" d="M476.46,511.9V479h15.42v3.44H480.55V493.2H490.7v3.43H480.55v11.84h11.33v3.43Z"/><path class="cls-2" d="M499.16,511.9V479h4.09v29.33h10.48v3.57Z"/><path class="cls-2" d="M533.05,511.9l-1.79-8.31H522.1l-1.84,8.31h-4.18L524,479h5.41l7.8,32.9Zm-6.39-29.79-3.81,17.95h7.66Z"/><path class="cls-2" d="M552.46,496.63V511.9h-4.23V496.63L539.81,479h4.52l6.2,13.68,6.2-13.68H561Z"/><path class="cls-2" d="M454.75,552.91q-2.19-2-2.19-6V530q0-4,2.19-6a9,9,0,0,1,6.27-2h5.74v3.58h-6.21a3.9,3.9,0,0,0-2.82,1,3.33,3.33,0,0,0-1.08,2.49v18.71a3.33,3.33,0,0,0,1.08,2.49,3.9,3.9,0,0,0,2.82,1h6.21v3.57H461Q456.93,554.9,454.75,552.91Z"/><path class="cls-2" d="M486.87,554.9V539.77h-9.68V554.9H473.1V522h4.09v14.29h9.68V522H491v32.9Z"/><path class="cls-2" d="M513.57,554.9l-1.79-8.31h-9.16l-1.84,8.31H496.6l7.94-32.9H510l7.8,32.9Zm-6.4-29.79-3.8,17.95H511Z"/><path class="cls-2" d="M521.51,554.9v-3.43h3.29v-26h-3.29V522h10.67v3.44h-3.29v26h3.29v3.43Z"/><path class="cls-2" d="M549.76,554.9l-7.2-29.42V554.9h-3.8V522h6.67l7.24,29.43V522h3.81v32.9Z"/></g></svg>