<?xml version="1.0" encoding="utf-8"?>
<!-- Generator: Adobe Illustrator 21.0.0, SVG Export Plug-In . SVG Version: 6.00 Build 0)  -->
<svg version="1.1" id="Layer_1" xmlns="http://www.w3.org/2000/svg" xmlns:xlink="http://www.w3.org/1999/xlink" x="0px" y="0px"
	 viewBox="0 0 45.1 54" style="enable-background:new 0 0 45.1 54;" xml:space="preserve">
<style type="text/css">
	.st0{fill:url(#SVGID_1_);}
	.st1{fill:url(#SVGID_2_);}
	.st2{fill:url(#SVGID_3_);}
	.st3{fill:url(#SVGID_4_);}
	.st4{fill:url(#SVGID_5_);}
	.st5{fill:url(#SVGID_6_);}
	.st6{fill:url(#SVGID_7_);}
	.st7{fill:url(#SVGID_8_);}
	.st8{fill:url(#SVGID_9_);}
	.st9{fill:url(#SVGID_10_);}
	.st10{fill:url(#SVGID_11_);}
	.st11{fill:url(#SVGID_12_);}
	.st12{fill:url(#SVGID_13_);}
	.st13{fill:url(#SVGID_14_);}
</style>
<g>
	
		<linearGradient id="SVGID_1_" gradientUnits="userSpaceOnUse" x1="0.5475" y1="13.1" x2="44.836" y2="13.1" gradientTransform="matrix(1 0 0 -1 0 55)">
		<stop  offset="0" style="stop-color:#4FACFE"/>
		<stop  offset="1" style="stop-color:#00F2FE"/>
	</linearGradient>
	<circle class="st0" cx="3.5" cy="41.9" r="1.7"/>
	
		<linearGradient id="SVGID_2_" gradientUnits="userSpaceOnUse" x1="0.5475" y1="13.1" x2="44.836" y2="13.1" gradientTransform="matrix(1 0 0 -1 0 55)">
		<stop  offset="0" style="stop-color:#4FACFE"/>
		<stop  offset="1" style="stop-color:#00F2FE"/>
	</linearGradient>
	<circle class="st1" cx="41.6" cy="41.9" r="1.7"/>
	<g>
		<g>
			
				<linearGradient id="SVGID_3_" gradientUnits="userSpaceOnUse" x1="0.5475" y1="3.8929" x2="44.836" y2="3.8929" gradientTransform="matrix(1 0 0 -1 0 55)">
				<stop  offset="0" style="stop-color:#4FACFE"/>
				<stop  offset="1" style="stop-color:#00F2FE"/>
			</linearGradient>
			<path class="st2" d="M30.4,49c-0.6-0.7-1.7-0.9-2.4-0.3c-1.1,0.9-2.4,1.8-5.5,1.8c-3.7,0-5.4-1.8-5.5-1.8
				c-0.7-0.6-1.8-0.5-2.4,0.3c-0.6,0.7-0.5,1.8,0.3,2.4c0.2,0.2,2.8,2.5,7.6,2.5s7.4-2.4,7.6-2.5C30.9,50.9,31,49.8,30.4,49z"/>
		</g>
	</g>
	<g>
		<g>
			
				<linearGradient id="SVGID_4_" gradientUnits="userSpaceOnUse" x1="0.5475" y1="42.65" x2="44.836" y2="42.65" gradientTransform="matrix(1 0 0 -1 0 55)">
				<stop  offset="0" style="stop-color:#4FACFE"/>
				<stop  offset="1" style="stop-color:#00F2FE"/>
			</linearGradient>
			<path class="st3" d="M8.7,11.8v-3c-2.2,0.8-4.4,2-6.4,4.1c-0.7,0.7-0.7,1.8,0,2.5c0.3,0.3,0.8,0.5,1.2,0.5s0.9-0.2,1.2-0.5
				C6,14,7.5,13.1,8.9,12.5L8.7,11.8z"/>
		</g>
		<g>
			
				<linearGradient id="SVGID_5_" gradientUnits="userSpaceOnUse" x1="0.5475" y1="42.65" x2="44.836" y2="42.65" gradientTransform="matrix(1 0 0 -1 0 55)">
				<stop  offset="0" style="stop-color:#4FACFE"/>
				<stop  offset="1" style="stop-color:#00F2FE"/>
			</linearGradient>
			<path class="st4" d="M42.8,12.9c-2-2-4.1-3.2-6.2-4v2.4l-0.3,1.2c1.4,0.6,2.8,1.5,4,2.8c0.3,0.3,0.8,0.5,1.2,0.5s0.9-0.2,1.2-0.5
				C43.5,14.7,43.5,13.6,42.8,12.9z"/>
		</g>
	</g>
	<g>
		<g>
			<g>
				
					<linearGradient id="SVGID_6_" gradientUnits="userSpaceOnUse" x1="0.5475" y1="25.3" x2="44.836" y2="25.3" gradientTransform="matrix(1 0 0 -1 0 55)">
					<stop  offset="0" style="stop-color:#4FACFE"/>
					<stop  offset="1" style="stop-color:#00F2FE"/>
				</linearGradient>
				<path class="st5" d="M16.5,21.9c-4.3,0-7.8,3.5-7.8,7.8s3.5,7.8,7.8,7.8s7.8-3.5,7.8-7.8S20.8,21.9,16.5,21.9z M16.5,34.1
					c-2.4,0-4.3-1.9-4.3-4.3s1.9-4.3,4.3-4.3s4.3,1.9,4.3,4.3S18.9,34.1,16.5,34.1z"/>
			</g>
		</g>
		<g>
			<g>
				
					<linearGradient id="SVGID_7_" gradientUnits="userSpaceOnUse" x1="0.5475" y1="25.3" x2="44.836" y2="25.3" gradientTransform="matrix(1 0 0 -1 0 55)">
					<stop  offset="0" style="stop-color:#4FACFE"/>
					<stop  offset="1" style="stop-color:#00F2FE"/>
				</linearGradient>
				<path class="st6" d="M28.6,21.9c-4.3,0-7.8,3.5-7.8,7.8s3.5,7.8,7.8,7.8s7.8-3.5,7.8-7.8S32.9,21.9,28.6,21.9z M28.6,34.1
					c-2.4,0-4.3-1.9-4.3-4.3s1.9-4.3,4.3-4.3s4.3,1.9,4.3,4.3C32.9,32.1,31,34.1,28.6,34.1z"/>
			</g>
		</g>
		<g>
			<g>
				
					<linearGradient id="SVGID_8_" gradientUnits="userSpaceOnUse" x1="0.5475" y1="24.45" x2="44.836" y2="24.45" gradientTransform="matrix(1 0 0 -1 0 55)">
					<stop  offset="0" style="stop-color:#4FACFE"/>
					<stop  offset="1" style="stop-color:#00F2FE"/>
				</linearGradient>
				<path class="st7" d="M43.9,29.8c-0.2-0.1-5-1.8-9.3-1.8c-1,0-1.7,0.8-1.7,1.7s0.8,1.7,1.7,1.7c3.6,0,8,1.6,8.1,1.6
					c0.2,0.1,0.4,0.1,0.6,0.1c0.7,0,1.4-0.4,1.6-1.1C45.3,31.2,44.8,30.2,43.9,29.8z"/>
			</g>
		</g>
		<g>
			<g>
				
					<linearGradient id="SVGID_9_" gradientUnits="userSpaceOnUse" x1="0.5475" y1="24.45" x2="44.836" y2="24.45" gradientTransform="matrix(1 0 0 -1 0 55)">
					<stop  offset="0" style="stop-color:#4FACFE"/>
					<stop  offset="1" style="stop-color:#00F2FE"/>
				</linearGradient>
				<path class="st8" d="M10.4,28c-4.2,0-9,1.8-9.3,1.8c-0.9,0.3-1.4,1.3-1,2.2c0.3,0.7,0.9,1.1,1.6,1.1c0.2,0,0.4,0,0.6-0.1
					c0,0,4.5-1.6,8.1-1.6c1,0,1.7-0.8,1.7-1.7C12.1,28.8,11.4,28,10.4,28z"/>
			</g>
		</g>
		<g>
			<g>
				
					<linearGradient id="SVGID_10_" gradientUnits="userSpaceOnUse" x1="0.5475" y1="23.5" x2="44.836" y2="23.5" gradientTransform="matrix(1 0 0 -1 0 55)">
					<stop  offset="0" style="stop-color:#4FACFE"/>
					<stop  offset="1" style="stop-color:#00F2FE"/>
				</linearGradient>
				<circle class="st9" cx="17.3" cy="31.5" r="1.7"/>
			</g>
		</g>
		<g>
			<g>
				
					<linearGradient id="SVGID_11_" gradientUnits="userSpaceOnUse" x1="0.5475" y1="23.5" x2="44.836" y2="23.5" gradientTransform="matrix(1 0 0 -1 0 55)">
					<stop  offset="0" style="stop-color:#4FACFE"/>
					<stop  offset="1" style="stop-color:#00F2FE"/>
				</linearGradient>
				<circle class="st10" cx="29.5" cy="31.5" r="1.7"/>
			</g>
		</g>
	</g>
	
		<linearGradient id="SVGID_12_" gradientUnits="userSpaceOnUse" x1="0.5475" y1="46.55" x2="44.836" y2="46.55" gradientTransform="matrix(1 0 0 -1 0 55)">
		<stop  offset="0" style="stop-color:#4FACFE"/>
		<stop  offset="1" style="stop-color:#00F2FE"/>
	</linearGradient>
	<path class="st11" d="M36.3,0.8C36,0.3,35.6,0,35,0c-4.2,0-8.6,1.5-11.3,3.7c-0.4-0.1-0.8-0.1-1.2-0.1c-0.4,0-0.8,0-1.2,0.1
		C18.7,1.5,14.2,0,10,0C9.5,0,9,0.3,8.8,0.8C7.6,3.1,7,5.8,7,8.4s0.6,5.3,1.8,7.7c0.2,0.5,0.7,0.8,1.2,0.8c1.8,0,3.8-0.3,5.7-0.8
		c0,0,0.9-0.3,2.1-0.8l0,0l0,0c1.4-0.6,2.6-1.3,3.5-2.1h0.1l0,0l0,0c0,0,0.5,0.1,1.1,0.1c0.4,0,0.7,0,1-0.1h0.1
		c1,0.8,2.2,1.5,3.6,2.1l0,0l0,0c0.1,0,1.2,0.5,2.1,0.8l0,0l0,0c1.8,0.5,3.7,0.8,5.5,0.8c0.5,0,1-0.3,1.2-0.8c1.2-2.4,1.8-5,1.8-7.7
		C38.1,5.8,37.4,3.1,36.3,0.8z M24.7,8.4c0,1.2-0.9,2.1-2.1,2.2l0,0l0,0l0,0h-0.1c-1.2,0-2.1-1-2.1-2.2s1-2.2,2.2-2.2
		S24.7,7.2,24.7,8.4z M26.8,10.8c1.2,0.5,2.8,0.7,4.6,0.7c0.8,0,1.4-0.6,1.4-1.4c0-0.8-0.6-1.4-1.4-1.4c-1.4,0-2.4-0.2-3.1-0.4
		C29,8.2,30,8,31.4,8c0.8,0,1.4-0.6,1.4-1.4s-0.6-1.4-1.4-1.4c-1.8,0-3.4,0.3-4.6,0.7c-0.2-0.3-0.4-0.6-0.6-0.8c2-1.4,5-2.3,7.9-2.5
		c1.5,3.6,1.5,7.7,0,11.3c-2.9-0.2-5.9-1.1-7.9-2.5C26.5,11.4,26.7,11.1,26.8,10.8z M18.3,6c-1.2-0.5-2.8-0.7-4.6-0.7
		c-0.8,0-1.4,0.6-1.4,1.4C12.4,7.4,13,8,13.7,8c1.4,0,2.4,0.2,3.1,0.4c-0.7,0.2-1.8,0.4-3.1,0.4c-0.8,0-1.4,0.6-1.4,1.4
		c0,0.8,0.6,1.4,1.4,1.4c1.8,0,3.4-0.3,4.6-0.7c0.2,0.3,0.4,0.6,0.6,0.8c-2,1.4-5.1,2.3-8,2.5c-1.5-3.6-1.5-7.7,0-11.3
		c2.9,0.2,6,1.1,8,2.5C18.7,5.5,18.5,5.7,18.3,6z"/>
	<g>
		
			<linearGradient id="SVGID_13_" gradientUnits="userSpaceOnUse" x1="0.5475" y1="26.4" x2="44.836" y2="26.4" gradientTransform="matrix(1 0 0 -1 0 55)">
			<stop  offset="0" style="stop-color:#4FACFE"/>
			<stop  offset="1" style="stop-color:#00F2FE"/>
		</linearGradient>
		<path class="st12" d="M13.2,15.1l-3.1,0.3l-0.7-1.8c-4.7,3.8-7.7,9.6-7.7,16.1c0,0.4,0,0.9,0.1,1.3c0,0.1-0.1,0.3-0.1,0.4V42
			l1.7,1.6L5.2,42V32c0.1-0.2,0.1-0.5,0.1-0.7c0-0.5-0.1-1-0.1-1.6C5.2,23.6,8.4,18.2,13.2,15.1z"/>
		
			<linearGradient id="SVGID_14_" gradientUnits="userSpaceOnUse" x1="0.5475" y1="26.25" x2="44.836" y2="26.25" gradientTransform="matrix(1 0 0 -1 0 55)">
			<stop  offset="0" style="stop-color:#4FACFE"/>
			<stop  offset="1" style="stop-color:#00F2FE"/>
		</linearGradient>
		<path class="st13" d="M36,13.9l-0.1,0.6l-1.1,0.9l-3.4-0.6c5.1,3,8.5,8.6,8.5,14.9V42l1.7,1.6l1.8-1.6V29.7
			C43.3,23.4,40.5,17.7,36,13.9z"/>
	</g>
</g>
</svg>
