<?xml version="1.0" encoding="utf-8"?>
<!-- Generator: Adobe Illustrator 21.0.0, SVG Export Plug-In . SVG Version: 6.00 Build 0)  -->
<svg version="1.1" id="Слой_1" xmlns="http://www.w3.org/2000/svg" xmlns:xlink="http://www.w3.org/1999/xlink" x="0px" y="0px"
	 width="115px" height="115px" viewBox="0 0 115 115" style="enable-background:new 0 0 115 115;" xml:space="preserve">
<style type="text/css">
	.st0{fill:url(#SVGID_1_);}
	.st1{fill:url(#SVGID_2_);}
	.st2{fill:url(#SVGID_3_);}
	.st3{fill:url(#SVGID_4_);}
	.st4{fill:url(#SVGID_5_);}
	.st5{fill:url(#SVGID_6_);}
	.st6{fill:url(#SVGID_7_);}
	.st7{fill:url(#SVGID_8_);}
	.st8{fill:url(#SVGID_9_);}
	.st9{fill:url(#SVGID_10_);}
	.st10{fill:url(#SVGID_11_);}
	.st11{fill:url(#SVGID_12_);}
	.st12{fill:url(#SVGID_13_);}
	.st13{fill:url(#SVGID_14_);}
</style>
<g>
	
		<linearGradient id="SVGID_1_" gradientUnits="userSpaceOnUse" x1="11.4771" y1="455.8423" x2="104.3269" y2="455.8423" gradientTransform="matrix(1 0 0 1 0 -367)">
		<stop  offset="0" style="stop-color:#4FACFE"/>
		<stop  offset="1" style="stop-color:#00F2FE"/>
	</linearGradient>
	<circle class="st0" cx="17.7" cy="88.8" r="3.6"/>
	
		<linearGradient id="SVGID_2_" gradientUnits="userSpaceOnUse" x1="11.4771" y1="455.8423" x2="104.3269" y2="455.8423" gradientTransform="matrix(1 0 0 1 0 -367)">
		<stop  offset="0" style="stop-color:#4FACFE"/>
		<stop  offset="1" style="stop-color:#00F2FE"/>
	</linearGradient>
	<circle class="st1" cx="97.5" cy="88.8" r="3.6"/>
	<g>
		<g>
			
				<linearGradient id="SVGID_3_" gradientUnits="userSpaceOnUse" x1="11.4771" y1="475.1448" x2="104.3269" y2="475.1448" gradientTransform="matrix(1 0 0 1 0 -367)">
				<stop  offset="0" style="stop-color:#4FACFE"/>
				<stop  offset="1" style="stop-color:#00F2FE"/>
			</linearGradient>
			<path class="st2" d="M74.1,103.7c-1.3-1.5-3.6-1.9-5-0.6c-2.3,1.9-5,3.8-11.5,3.8c-7.8,0-11.3-3.8-11.5-3.8c-1.5-1.3-3.8-1-5,0.6
				c-1.3,1.5-1,3.8,0.6,5c0.4,0.4,5.9,5.2,15.9,5.2s15.5-5,15.9-5.2C75.1,107.7,75.3,105.4,74.1,103.7z"/>
		</g>
	</g>
	<g>
		<g>
			
				<linearGradient id="SVGID_4_" gradientUnits="userSpaceOnUse" x1="11.4771" y1="393.8915" x2="104.3269" y2="393.8915" gradientTransform="matrix(1 0 0 1 0 -367)">
				<stop  offset="0" style="stop-color:#4FACFE"/>
				<stop  offset="1" style="stop-color:#00F2FE"/>
			</linearGradient>
			<path class="st3" d="M28.6,25.7v-6.3c-4.6,1.7-9.2,4.2-13.4,8.6c-1.5,1.5-1.5,3.8,0,5.2c0.6,0.6,1.7,1,2.5,1s1.9-0.4,2.5-1
				c2.7-2.9,5.9-4.8,8.8-6.1L28.6,25.7z"/>
		</g>
		<g>
			
				<linearGradient id="SVGID_5_" gradientUnits="userSpaceOnUse" x1="11.4771" y1="393.8914" x2="104.3269" y2="393.8914" gradientTransform="matrix(1 0 0 1 0 -367)">
				<stop  offset="0" style="stop-color:#4FACFE"/>
				<stop  offset="1" style="stop-color:#00F2FE"/>
			</linearGradient>
			<path class="st4" d="M100.1,28c-4.2-4.2-8.6-6.7-13-8.4v5l-0.6,2.5c2.9,1.3,5.9,3.1,8.4,5.9c0.6,0.6,1.7,1,2.5,1s1.9-0.4,2.5-1
				C101.5,31.8,101.5,29.5,100.1,28z"/>
		</g>
	</g>
	<g>
		<g>
			<g>
				
					<linearGradient id="SVGID_6_" gradientUnits="userSpaceOnUse" x1="11.4771" y1="430.2653" x2="104.3269" y2="430.2653" gradientTransform="matrix(1 0 0 1 0 -367)">
					<stop  offset="0" style="stop-color:#4FACFE"/>
					<stop  offset="1" style="stop-color:#00F2FE"/>
				</linearGradient>
				<path class="st5" d="M44.9,46.9c-9,0-16.4,7.3-16.4,16.4s7.3,16.4,16.4,16.4s16.4-7.3,16.4-16.4S53.9,46.9,44.9,46.9z
					 M44.9,72.5c-5,0-9-4-9-9s4-9,9-9s9,4,9,9S50,72.5,44.9,72.5z"/>
			</g>
		</g>
		<g>
			<g>
				
					<linearGradient id="SVGID_7_" gradientUnits="userSpaceOnUse" x1="11.4771" y1="430.2653" x2="104.3269" y2="430.2653" gradientTransform="matrix(1 0 0 1 0 -367)">
					<stop  offset="0" style="stop-color:#4FACFE"/>
					<stop  offset="1" style="stop-color:#00F2FE"/>
				</linearGradient>
				<path class="st6" d="M70.3,46.9c-9,0-16.4,7.3-16.4,16.4s7.3,16.4,16.4,16.4c9,0,16.4-7.3,16.4-16.4S79.3,46.9,70.3,46.9z
					 M70.3,72.5c-5,0-9-4-9-9s4-9,9-9c5,0,9,4,9,9C79.3,68.3,75.3,72.5,70.3,72.5z"/>
			</g>
		</g>
		<g>
			<g>
				
					<linearGradient id="SVGID_8_" gradientUnits="userSpaceOnUse" x1="11.4771" y1="432.0473" x2="104.3269" y2="432.0473" gradientTransform="matrix(1 0 0 1 0 -367)">
					<stop  offset="0" style="stop-color:#4FACFE"/>
					<stop  offset="1" style="stop-color:#00F2FE"/>
				</linearGradient>
				<path class="st7" d="M102.4,63.5c-0.4-0.2-10.5-3.8-19.5-3.8c-2.1,0-3.6,1.7-3.6,3.6c0,1.9,1.7,3.6,3.6,3.6
					c7.5,0,16.8,3.4,17,3.4c0.4,0.2,0.8,0.2,1.3,0.2c1.5,0,2.9-0.8,3.4-2.3C105.3,66.4,104.3,64.3,102.4,63.5z"/>
			</g>
		</g>
		<g>
			<g>
				
					<linearGradient id="SVGID_9_" gradientUnits="userSpaceOnUse" x1="11.4771" y1="432.0473" x2="104.3269" y2="432.0473" gradientTransform="matrix(1 0 0 1 0 -367)">
					<stop  offset="0" style="stop-color:#4FACFE"/>
					<stop  offset="1" style="stop-color:#00F2FE"/>
				</linearGradient>
				<path class="st8" d="M32.1,59.7c-8.8,0-18.9,3.8-19.5,3.8c-1.9,0.6-2.9,2.7-2.1,4.6c0.6,1.5,1.9,2.3,3.4,2.3
					c0.4,0,0.8,0,1.3-0.2c0,0,9.4-3.4,17-3.4c2.1,0,3.6-1.7,3.6-3.6C35.7,61.4,34.2,59.7,32.1,59.7z"/>
			</g>
		</g>
		<g>
			<g>
				
					<linearGradient id="SVGID_10_" gradientUnits="userSpaceOnUse" x1="11.4771" y1="434.039" x2="104.3269" y2="434.039" gradientTransform="matrix(1 0 0 1 0 -367)">
					<stop  offset="0" style="stop-color:#4FACFE"/>
					<stop  offset="1" style="stop-color:#00F2FE"/>
				</linearGradient>
				<circle class="st9" cx="46.6" cy="67" r="3.6"/>
			</g>
		</g>
		<g>
			<g>
				
					<linearGradient id="SVGID_11_" gradientUnits="userSpaceOnUse" x1="11.4771" y1="434.039" x2="104.3269" y2="434.039" gradientTransform="matrix(1 0 0 1 0 -367)">
					<stop  offset="0" style="stop-color:#4FACFE"/>
					<stop  offset="1" style="stop-color:#00F2FE"/>
				</linearGradient>
				<circle class="st10" cx="72.2" cy="67" r="3.6"/>
			</g>
		</g>
	</g>
	
		<linearGradient id="SVGID_12_" gradientUnits="userSpaceOnUse" x1="11.4771" y1="385.7152" x2="104.3269" y2="385.7152" gradientTransform="matrix(1 0 0 1 0 -367)">
		<stop  offset="0" style="stop-color:#4FACFE"/>
		<stop  offset="1" style="stop-color:#00F2FE"/>
	</linearGradient>
	<path class="st11" d="M86.4,2.7C85.8,1.6,85,1,83.7,1c-8.8,0-18,3.1-23.7,7.8c-0.8-0.2-1.7-0.2-2.5-0.2c-0.8,0-1.7,0-2.5,0.2
		C49.5,4.1,40.1,1,31.3,1c-1,0-2.1,0.6-2.5,1.7C26.3,7.5,25,13.2,25,18.6s1.3,11.1,3.8,16.1c0.4,1,1.5,1.7,2.5,1.7
		c3.8,0,8-0.6,11.9-1.7c0,0,1.9-0.6,4.4-1.7l0,0l0,0c2.9-1.3,5.5-2.7,7.3-4.4h0.2l0,0l0,0c0,0,1,0.2,2.3,0.2c0.8,0,1.5,0,2.1-0.2
		h0.2c2.1,1.7,4.6,3.1,7.5,4.4l0,0l0,0c0.2,0,2.5,1,4.4,1.7l0,0l0,0c3.8,1,7.8,1.7,11.5,1.7c1,0,2.1-0.6,2.5-1.7
		c2.5-5,3.8-10.5,3.8-16.1C90.2,13.2,88.7,7.5,86.4,2.7z M62.1,18.6c0,2.5-1.9,4.4-4.4,4.6l0,0l0,0l0,0h-0.2c-2.5,0-4.4-2.1-4.4-4.6
		s2.1-4.6,4.6-4.6C60.2,14,62.1,16.1,62.1,18.6z M66.5,23.6c2.5,1,5.9,1.5,9.6,1.5c1.7,0,2.9-1.3,2.9-2.9s-1.3-2.9-2.9-2.9
		c-2.9,0-5-0.4-6.5-0.8c1.5-0.2,3.6-0.6,6.5-0.6c1.7,0,2.9-1.3,2.9-2.9s-1.3-2.9-2.9-2.9c-3.8,0-7.1,0.6-9.6,1.5
		c-0.4-0.6-0.8-1.3-1.3-1.7c4.2-2.9,10.5-4.8,16.6-5.2c3.1,7.5,3.1,16.1,0,23.7c-6.1-0.4-12.4-2.3-16.6-5.2
		C65.9,24.9,66.3,24.3,66.5,23.6z M48.7,13.6c-2.5-1-5.9-1.5-9.6-1.5c-1.7,0-2.9,1.3-2.9,2.9c0.2,1.5,1.5,2.7,2.9,2.7
		c2.9,0,5,0.4,6.5,0.8c-1.5,0.4-3.8,0.8-6.5,0.8c-1.7,0-2.9,1.3-2.9,2.9c0,1.7,1.3,2.9,2.9,2.9c3.8,0,7.1-0.6,9.6-1.5
		c0.4,0.6,0.8,1.3,1.3,1.7c-4.2,2.9-10.7,4.8-16.8,5.2c-3.1-7.5-3.1-16.1,0-23.7c6.1,0.4,12.6,2.3,16.8,5.2
		C49.5,12.5,49.1,12.9,48.7,13.6z"/>
	<g>
		
			<linearGradient id="SVGID_13_" gradientUnits="userSpaceOnUse" x1="11.4771" y1="427.9592" x2="104.3269" y2="427.9592" gradientTransform="matrix(1 0 0 1 0 -367)">
			<stop  offset="0" style="stop-color:#4FACFE"/>
			<stop  offset="1" style="stop-color:#00F2FE"/>
		</linearGradient>
		<path class="st12" d="M38,32.7l-6.5,0.6L30,29.5c-9.9,8-16.1,20.1-16.1,33.8c0,0.8,0,1.9,0.2,2.7c0,0.2-0.2,0.6-0.2,0.8v22.2
			l3.6,3.4l3.8-3.4v-21c0.2-0.4,0.2-1,0.2-1.5c0-1-0.2-2.1-0.2-3.4C21.2,50.5,27.9,39.2,38,32.7z"/>
		
			<linearGradient id="SVGID_14_" gradientUnits="userSpaceOnUse" x1="11.4771" y1="428.2737" x2="104.3269" y2="428.2737" gradientTransform="matrix(1 0 0 1 0 -367)">
			<stop  offset="0" style="stop-color:#4FACFE"/>
			<stop  offset="1" style="stop-color:#00F2FE"/>
		</linearGradient>
		<path class="st13" d="M85.8,30.1l-0.2,1.3l-2.3,1.9L76.2,32C86.9,38.3,94,50.1,94,63.3v25.8l3.6,3.4l3.8-3.4V63.3
			C101.1,50.1,95.2,38.1,85.8,30.1z"/>
	</g>
</g>
</svg>
