<svg  xmlns="http://www.w3.org/2000/svg" xmlns:xlink="http://www.w3.org/1999/xlink" x="0px" y="0px"
	 viewBox="0 0 26 26" xml:space="preserve">
<g style="fill: inherit;">
	<g>
		<path d="M21,5c1.1,0,2,0.9,2,2v15c0,1.1-0.9,2-2,2H5c-1.1,0-2-0.9-2-2V7c0-1.1,0.9-2,2-2H21 M21,3H5C2.8,3,1,4.8,1,7v15
			c0,2.2,1.8,4,4,4h16c2.2,0,4-1.8,4-4V7C25,4.8,23.2,3,21,3L21,3z"/>
	</g>
	<path d="M6.5,0C7.3,0,8,0.7,8,1.5v4C8,6.3,7.3,7,6.5,7S5,6.3,5,5.5v-4C5,0.7,5.7,0,6.5,0z"/>
	<path d="M19.5,0C20.3,0,21,0.7,21,1.5v4C21,6.3,20.3,7,19.5,7S18,6.3,18,5.5v-4C18,0.7,18.7,0,19.5,0z"/>
	<path d="M18,8c1.1,0,2,0.9,2,2s-0.9,2-2,2s-2-0.9-2-2S16.9,8,18,8z"/>
	<path d="M18,13c1.1,0,2,0.9,2,2s-0.9,2-2,2s-2-0.9-2-2S16.9,13,18,13z"/>
	<path d="M18,18c1.1,0,2,0.9,2,2s-0.9,2-2,2s-2-0.9-2-2S16.9,18,18,18z"/>
	<path d="M13,13c1.1,0,2,0.9,2,2s-0.9,2-2,2s-2-0.9-2-2S11.9,13,13,13z"/>
	<path d="M13,18c1.1,0,2,0.9,2,2s-0.9,2-2,2s-2-0.9-2-2S11.9,18,13,18z"/>
	<path d="M8,13c1.1,0,2,0.9,2,2s-0.9,2-2,2s-2-0.9-2-2S6.9,13,8,13z"/>
	<path d="M8,18c1.1,0,2,0.9,2,2s-0.9,2-2,2s-2-0.9-2-2S6.9,18,8,18z"/>
	<path d="M13,8c1.1,0,2,0.9,2,2s-0.9,2-2,2s-2-0.9-2-2S11.9,8,13,8z"/>
	<path d="M8,8c1.1,0,2,0.9,2,2s-0.9,2-2,2s-2-0.9-2-2S6.9,8,8,8z"/>
</g>
</svg>
