<svg xmlns="http://www.w3.org/2000/svg" viewBox="0 0 84 84">
    <path style="fill:inherit" d="M37 47.9l-3-2.5c-.6-.5-1.5-.4-2 .1l-1.7 1.9c-.7-.3-1.3-.6-2-.7l-.1-2.6c0-.8-.7-1.4-1.4-1.4h-3.9c-.8 0-1.4.6-1.4 1.4l-.1 2.6c-.7.2-1.4.4-2 .7l-1.7-1.9c-.5-.6-1.4-.6-2-.1l-3 2.5c-.6.5-.7 1.4-.2 2l1.6 2.1c-.4.6-.7 1.2-1 1.8l-2.6-.3c-.8-.1-1.5.4-1.6 1.2l-.7 3.9c-.5.7 0 1.4.8 1.6l2.6.6c.1.7.2 1.3.4 2l-2.3 1.5c-.7.4-.9 1.3-.5 2l1.9 3.4c.4.7 1.2.9 1.9.6l2.5-1.3c.5.4 1 .8 1.6 1.2l-.8 2.7c-.2.7.2 1.5.9 1.8l3.7 1.3c.7.3 1.5-.1 1.8-.8l1.1-2.6c.6.1 1.3.1 1.9 0l1.1 2.6c.3.7 1.1 1.1 1.8.8l3.7-1.3c.7-.3 1.1-1.1.9-1.8l-.9-2.7c.5-.4 1-.8 1.5-1.3l2.5 1.3c.7.4 1.5.1 1.9-.6l1.9-3.4c.4-.7.2-1.5-.5-1.9l-2.3-1.5c.2-.7.3-1.3.4-2l2.6-.6c.7-.2 1.2-.9 1.1-1.6l-.7-3.9c-.1-.8-.8-1.3-1.6-1.2l-2.6.3c-.3-.6-.6-1.3-1-1.8l1.6-2.1c.6-.6.5-1.5-.1-2zm-1 8.9l2.4-.3.2 1.1-2.4.5c-.7.1-1.1.7-1.1 1.4 0 1.1-.2 2.3-.6 3.3-.2.6 0 1.4.6 1.7l2.1 1.3-.6 1-2.2-1.1c-.6-.3-1.3-.2-1.8.3-.7.8-1.6 1.6-2.6 2.1-.6.3-.8 1-.6 1.7l.8 2.4-1.2.5-1-2.4c-.2-.5-.7-.9-1.3-.9h-.2c-1.1.2-2.2.2-3.3 0-.7-.1-1.3.2-1.6.9l-1 2.4-1.1-.4.8-2.4c.2-.6-.1-1.3-.6-1.7-1-.6-1.8-1.3-2.6-2.1-.4-.5-1.2-.6-1.8-.3L13 66.9l-.6-1 2.1-1.3c.6-.4.8-1.1.6-1.7a9.6 9.6 0 0 1-.6-3.3c0-.7-.5-1.2-1.1-1.4l-2.4-.5.2-1.1 2.4.3c.7.1 1.3-.3 1.5-1 .4-1.1 1-2.1 1.7-3 .4-.5.4-1.3 0-1.8l-1.4-1.8.9-.7 1.6 1.7c.5.5 1.2.6 1.8.3 1-.6 2.1-1 3.3-1.2.7-.1 1.1-.7 1.2-1.4l.1-2.3h1.1l.1 2.3c0 .7.5 1.2 1.1 1.4 1.2.2 2.3.6 3.3 1.2.6.3 1.3.2 1.8-.3l1.6-1.7.9.7-1.4 1.8c-.4.5-.4 1.3 0 1.8.7.9 1.3 1.9 1.7 3 .1.7.8 1.1 1.5.9zm-11.3-3.4c-3.3 0-6 2.7-6 6s2.7 6 6 6 6-2.7 6-6c0-3.4-2.6-6-6-6zm0 9.1c-1.7 0-3.1-1.4-3.1-3.1 0-1.7 1.4-3.1 3.1-3.1s3.1 1.4 3.1 3.1c0 1.7-1.3 3.1-3.1 3.1zm19-30.8l1.9 3.4c.4.7 1.2.9 1.9.6l2.5-1.3c.5.5 1 .9 1.6 1.3l-.9 2.6c-.3.7.1 1.6.9 1.8l3.7 1.3c.7.3 1.5-.1 1.8-.8l1.1-2.6c.6.1 1.3.1 1.9 0l1.1 2.6c.3.7 1.1 1.1 1.8.8l3.7-1.3c.8-.3 1.2-1.1.9-1.8l-.8-2.7c.5-.4 1-.8 1.5-1.3l2.5 1.3c.7.4 1.5.1 1.9-.6l1.9-3.4c.4-.7.2-1.5-.5-1.9l-2.3-1.5c.2-.7.3-1.3.4-2l2.7-.5c.8-.2 1.2-.9 1.1-1.7l-.7-3.9c-.1-.8-.8-1.3-1.6-1.2l-2.6.3c-.3-.6-.6-1.3-1-1.8l1.6-2.1c.5-.6.4-1.5-.2-2l-3-2.5c-.6-.5-1.5-.4-2 .1l-1.7 1.9c-.7-.3-1.3-.6-2-.7l-.1-2.6c0-.8-.7-1.4-1.4-1.4h-3.9c-.8 0-1.4.6-1.4 1.4l-.1 2.6c-.7.2-1.4.4-2 .7l-2-1.8c-.5-.6-1.4-.6-2-.1l-3 2.5c-.6.5-.7 1.4-.2 2l1.6 2.1c-.4.6-.7 1.2-1 1.8l-2.6-.3c-.8-.1-1.5.4-1.6 1.2l-.7 3.8c-.2.8.3 1.5 1.1 1.7l2.6.6c.1.7.2 1.3.4 2l-2.3 1.4c-.7.5-.9 1.3-.5 2zm1.8-8.5l.2-1.1 2.4.3c.7.1 1.3-.3 1.5-1 .4-1.1 1-2.1 1.7-3 .4-.5.4-1.3 0-1.8l-1.4-1.8.9-.7 1.6 1.7c.5.5 1.2.6 1.8.3 1-.6 2.2-1 3.3-1.2.7-.1 1.2-.7 1.2-1.4l.1-2.3h1.1l.1 2.3c0 .7.5 1.2 1.2 1.4 1.2.2 2.3.6 3.3 1.2.6.3 1.3.2 1.8-.3l1.6-1.7.9.7-1.4 1.8c-.4.5-.4 1.3 0 1.8.7.9 1.3 1.9 1.7 3 .2.6.9 1.1 1.5 1l2.4-.3.2 1.1-2.4.5c-.7.1-1.1.7-1.1 1.4 0 1.1-.2 2.3-.6 3.3-.2.6 0 1.4.6 1.7l2.1 1.3-.7 1-2.2-1.1c-.6-.3-1.3-.2-1.8.3-.7.8-1.6 1.6-2.6 2.1-.6.3-.8 1-.6 1.7l.8 2.4-1 .4-1-2.4c-.3-.6-.9-1-1.6-.9-1.1.2-2.2.2-3.3 0-.7-.1-1.3.3-1.6.9l-1 2.4-1.2-.3.8-2.4c.2-.6-.1-1.3-.6-1.7-1-.6-1.8-1.3-2.6-2.1-.4-.5-1.2-.7-1.8-.4l-2.2 1.2-.6-1 2.1-1.3c.6-.4.8-1.1.6-1.7a9.6 9.6 0 0 1-.6-3.3c0-.7-.5-1.2-1.1-1.4l-2.5-.6zm13.7 7.7c3.3 0 6-2.7 6-6s-2.7-6-6-6-6 2.7-6 6 2.7 6 6 6zm0-9.2c1.7 0 3.1 1.4 3.1 3.1S60.9 28 59.2 28s-3.1-1.4-3.1-3.1c0-1.8 1.4-3.1 3.1-3.2zM82 24.9c0 12.6-10.2 22.8-22.8 22.8-2.2 0-4.4-.3-6.4-.9l-5.6-1.6c-.8-.3-1.2-1.1-.9-1.8.2-.7 1-1.1 1.7-.9l6 1.5c10.6 2.9 21.5-3.4 24.3-14s-3.4-21.5-14-24.3-21.4 3.4-24.3 14c-.9 3.3-.9 6.8-.1 10.1L46.6 53c3.5 12.1-3.5 24.7-15.6 28.2S6.4 77.7 2.9 65.6 6.4 41 18.5 37.5c4.2-1.2 8.6-1.2 12.7 0l4 1.2c.8.3 1.2 1.1.9 1.8-.2.7-1 1.1-1.7.9l-4-1.1C19.9 37.2 8.8 43.2 5.7 53.7s2.9 21.6 13.4 24.7S40.7 75.5 43.8 65c1.1-3.6 1.1-7.5.1-11.1l-6.5-22.6v-.1C33.8 19.1 40.7 6.4 52.8 2.8s24.7 3.3 28.3 15.4c.6 2.2.9 4.4.9 6.7z"/>
</svg>
