<svg xmlns="http://www.w3.org/2000/svg" viewBox="0 0 46 46">
    <g style="fill:inherit;">
    <path class="st0" d="M41.4 5c-.6-.7-1.5-1.1-2.5-1.1h-3.1v-1c0-1.2-1-2.2-2.2-2.2H12.4c-1.2 0-2.2 1-2.2 2.2v1H7.1c-1 0-1.9.4-2.5 1.1-.6.7-.8 1.6-.7 2.5.8 5 4 9.5 8.5 11.9.4 1 .9 1.9 1.4 2.8 1.7 2.8 3.7 4.7 6 5.7.2 2.3-1.3 4.5-3.6 5.1-.5.1-.8.5-.8 1v4.7h-1.9c-1.7 0-3.1 1.4-3.1 3.1v2.4c0 .6.5 1 1 1h23.4c.6 0 1-.5 1-1v-2.4c0-1.7-1.4-3.1-3.1-3.1h-1.9V34c0-.5-.3-.9-.8-1-2.3-.5-3.9-2.8-3.6-5.1 2.2-.9 4.3-2.9 5.9-5.6.5-.9 1-1.8 1.4-2.8 4.5-2.4 7.7-6.9 8.5-11.9 0-1-.2-1.9-.8-2.6zM5.9 7.2c0-.3.1-.6.3-.9.2-.3.6-.4.9-.4h3.1v1.9c0 3 .4 5.9 1.1 8.5-2.8-2.2-4.8-5.5-5.4-9.1zm26.8 33.6c.6 0 1 .5 1 1v1.4H12.4v-1.4c0-.6.5-1 1-1h19.3zm-4-5.8v3.7H17.4V35h11.3zm-8.6-2c.3-.3.5-.6.7-.9.7-1.1 1.1-2.3 1.1-3.6.4.1.7.1 1.1.1.4 0 .8 0 1.2-.1 0 1.7.7 3.3 1.8 4.5h-5.9zM33.7 7.8c0 5.1-1.2 9.9-3.3 13.4-2 3.4-4.7 5.3-7.4 5.3-2.8 0-5.4-1.9-7.4-5.3-2.1-3.6-3.3-8.4-3.3-13.4v-5c0-.1.1-.1.1-.1h21.2c.1 0 .1.1.1.1v5zm6.4-.6c-.6 3.6-2.5 6.9-5.4 9.1.7-2.6 1.1-5.5 1.1-8.5V5.9h3.1c.3 0 .7.2.9.4.2.3.3.6.3.9z"/>
    <path class="st1" d="M29.3 11.3c-.1-.4-.4-.6-.8-.7l-3.1-.5L24 7.3c-.2-.4-.5-.6-.9-.6s-.8.2-.9.6l-1.4 2.8-3.1.5c-.4.1-.7.3-.8.7-.1.4 0 .8.3 1.1l2.3 2.2-.5 3.1c-.1.4.1.8.4 1 .3.2.7.3 1.1.1l2.8-1.5 2.8 1.5c.2.1.3.1.5.1s.4-.1.6-.2c.3-.2.5-.6.4-1l-.5-3.1 2.3-2.2c-.1-.3 0-.8-.1-1.1zm-4.4 2.1c-.2.2-.4.6-.3.9l.3 1.6-1.4-.7c-.2-.1-.3-.1-.5-.1s-.3 0-.5.1l-1.4.7.3-1.6c.1-.3-.1-.7-.3-.9L20 12.3l1.6-.2c.3 0 .6-.3.8-.6l.7-1.4.7 1.4c.2.3.4.5.8.6l1.6.2-1.3 1.1z"/>
    </g>
</svg>
