<svg xmlns="http://www.w3.org/2000/svg" viewBox="0 0 46 46">
    <g style="fill: inherit">
    <path class="st0" d="M29.5 33.1l-1.5-.9c.1-1 .1-2 0-3l1.5-.9c.8-.5 1.1-1.5.8-2.4l-1.1-2.6c-.4-.9-1.3-1.4-2.2-1.1-.5.1-1.1.3-1.7.4-.6-.8-1.3-1.5-2.1-2.1.1-.6.3-1.1.4-1.7.2-.9-.3-1.9-1.1-2.2l-2.5-.9c-.9-.4-1.9 0-2.4.8l-.9 1.5c-1-.1-2-.1-3 0l-.9-1.5c-.5-.8-1.5-1.1-2.4-.8l-2.6 1.1c-.9.4-1.4 1.3-1.1 2.2.1.5.3 1.1.4 1.7-.8.6-1.5 1.3-2.1 2.1-.6-.1-1.1-.3-1.7-.4-.9-.2-1.9.3-2.2 1.1L.1 26c-.4.9 0 1.9.8 2.4l1.5.9c-.1 1-.1 2 0 3l-1.5.9c-.8.5-1.1 1.5-.8 2.4l1.1 2.6c.4.9 1.3 1.4 2.2 1.1.5-.1 1.1-.3 1.7-.4.6.8 1.3 1.5 2.1 2.1-.1.6-.3 1.1-.4 1.7-.2.9.3 1.9 1.1 2.2l2.6 1.1h.7c.7 0 1.3-.3 1.7-.9l.9-1.5c1 .1 2 .1 3 0l.9 1.5c.5.8 1.5 1.1 2.4.8l2.6-1.1c.9-.4 1.4-1.3 1.1-2.2-.1-.5-.3-1.1-.4-1.7.8-.6 1.5-1.3 2.1-2.1.6.1 1.1.3 1.7.4.9.2 1.9-.3 2.2-1.1l1.1-2.6c.2-.9-.1-1.9-1-2.4zm-2.1 4.1c-.5-.1-1.1-.3-1.6-.4-.8-.2-1.5.1-2 .7-.5.7-1.2 1.3-1.9 1.9-.6.5-.9 1.3-.7 2 .1.5.3 1.1.4 1.6l-2.3 1c-.3-.5-.6-.9-.8-1.4-.4-.7-1.1-1-1.9-1-.9.1-1.8.1-2.7 0-.8-.1-1.5.3-1.9 1-.3.5-.6 1-.8 1.4l-2.3-1c.1-.5.3-1.1.4-1.6.2-.8-.1-1.5-.7-2-.7-.5-1.3-1.2-1.9-1.9-.5-.6-1.3-.9-2-.7-.5.1-1.1.3-1.6.4l-1-2.3c.5-.3.9-.6 1.4-.9.7-.4 1-1.1 1-1.9-.1-.9-.1-1.8 0-2.7.1-.8-.3-1.5-1-1.9-.5-.3-1-.6-1.4-.8l1-2.3c.5.1 1.1.3 1.6.4.8.2 1.5-.1 2-.7.5-.7 1.2-1.3 1.9-1.9.6-.5.9-1.3.7-2-.1-.5-.3-1.1-.4-1.6l2.3-1c.3.5.6.9.8 1.4.4.7 1.1 1.1 1.9 1 .9-.1 1.8-.1 2.7 0 .8.1 1.5-.3 1.9-1 .3-.5.6-1 .8-1.4l2.3 1c-.1.5-.3 1.1-.4 1.6-.2.8.1 1.5.7 2 .7.5 1.3 1.2 1.9 1.9.5.6 1.3.9 2 .7.5-.1 1.1-.3 1.6-.4l1 2.3c-.5.3-.9.6-1.4.8-.7.4-1 1.1-1 1.9.1.9.1 1.8 0 2.7-.1.8.3 1.5 1 1.9.5.3 1 .6 1.4.8l-1 2.4z"/>
    <path class="st1" d="M21.7 28.1c-1.5-3.6-5.6-5.3-9.2-3.8-3.6 1.5-5.3 5.6-3.8 9.2.7 1.7 2.1 3.1 3.8 3.8.9.4 1.8.5 2.7.5s1.8-.2 2.7-.5c3.6-1.5 5.3-5.6 3.8-9.2zm-4.6 7.2c-1.2.5-2.6.5-3.8 0s-2.2-1.5-2.7-2.7c-1-2.5.2-5.4 2.7-6.5.6-.3 1.3-.4 1.9-.4 1.9 0 3.8 1.2 4.6 3.1 1.1 2.6-.1 5.5-2.7 6.5z"/>
    <path class="st2" d="M44.6 9.1c-.3-.1-.7-.1-1.1-.2-.2-.6-.4-1.2-.7-1.8.2-.3.4-.6.7-.9.5-.6.4-1.6-.2-2.1l-1.4-1.4c-.6-.6-1.5-.6-2.1-.2-.3.2-.6.4-.9.7-.6-.3-1.2-.6-1.8-.7 0-.4-.1-.7-.2-1.1-.1-.8-.8-1.4-1.6-1.4h-2c-.8 0-1.5.6-1.6 1.4-.1.4-.1.7-.2 1.1-.6.2-1.2.4-1.8.7-.3-.2-.6-.4-.9-.7-.6-.5-1.6-.4-2.1.2l-1.4 1.4c-.6.6-.6 1.5-.2 2.1.2.3.4.6.7.9-.3.6-.6 1.2-.7 1.8-.4.1-.7.1-1.1.2-.8.1-1.4.8-1.4 1.6v2c0 .8.6 1.5 1.4 1.6.4.1.7.1 1.1.2.2.6.4 1.2.7 1.8-.2.3-.4.6-.7.9-.5.6-.4 1.6.2 2.1l1.4 1.4c.6.6 1.5.6 2.1.2.3-.2.6-.4.9-.7.6.3 1.2.6 1.8.7 0 .4.1.7.2 1.1.1.8.8 1.4 1.6 1.4h2c.8 0 1.5-.6 1.6-1.4.1-.4.1-.7.2-1.1.6-.2 1.2-.4 1.8-.7.3.2.6.4.9.7.6.5 1.6.4 2.1-.2l1.4-1.4c.6-.6.6-1.5.2-2.1-.2-.3-.4-.6-.7-.9.3-.6.6-1.2.7-1.8.4 0 .7-.1 1.1-.2.8-.1 1.4-.8 1.4-1.6v-2c0-.8-.6-1.5-1.4-1.6zm-.6 3.3c-.3 0-.7.1-1 .1-.7.1-1.2.5-1.4 1.2-.2.6-.4 1.2-.7 1.7-.3.6-.3 1.3.1 1.8.2.3.4.5.6.8l-1 1c-.3-.2-.5-.4-.8-.6-.5-.4-1.2-.5-1.8-.1-.5.3-1.1.6-1.7.7-.6.2-1.1.7-1.2 1.4 0 .3-.1.7-.1 1h-1.4c0-.3-.1-.7-.1-1-.1-.7-.5-1.2-1.2-1.4-.6-.2-1.2-.4-1.7-.7-.6-.3-1.3-.3-1.8.1-.3.2-.5.4-.8.6l-1-1c.2-.3.4-.5.6-.8.4-.5.5-1.2.1-1.8-.3-.5-.6-1.1-.7-1.7-.2-.6-.7-1.1-1.4-1.2-.3 0-.7-.1-1-.1V11c.3 0 .7-.1 1-.1.7-.1 1.2-.5 1.4-1.2.2-.6.4-1.2.7-1.7.3-.6.3-1.3-.1-1.8-.2-.3-.4-.5-.6-.8l1-1c.3.2.5.4.8.6.5.3 1.2.3 1.7 0s1.1-.6 1.7-.7c.6-.2 1.1-.7 1.2-1.4 0-.3.1-.7.1-1H35c0 .3.1.7.1 1 .1.7.5 1.2 1.2 1.4s1.2.4 1.8.7 1.3.3 1.8-.1c.3-.2.5-.4.8-.6l1 1c-.2.3-.4.5-.6.8-.4.5-.5 1.2-.1 1.8.3.5.6 1.1.7 1.7.2.6.7 1.1 1.4 1.2.3 0 .7.1 1 .1l-.1 1.5z"/>
    <path class="st3" d="M34.3 7.5c-2.3 0-4.2 1.9-4.2 4.2s1.9 4.2 4.2 4.2 4.2-1.9 4.2-4.2-1.9-4.2-4.2-4.2zm0 6.5C33 14 32 13 32 11.7s1-2.3 2.3-2.3 2.3 1 2.3 2.3-1 2.3-2.3 2.3z"/>
    </g>
</svg>
