<svg xmlns="http://www.w3.org/2000/svg" viewBox="0 0 46 46">
    <g style="fill:inherit;">
    <path class="st0" d="M45.9 28.8c-.1-2.6-.6-5.5-1.3-8.3-.7-2.6-1.5-5.1-2.6-7-4-7-8.3-5.9-13.5-4.6-1.7.4-3.4.9-5.3 1h-.6c-1.8-.2-3.6-.6-5.3-1-5.2-1.3-9.5-2.5-13.5 4.6-1 1.9-1.9 4.3-2.6 7S.1 26.2-.1 28.8c-.1 2.9.2 5 .8 6.5.6 1.4 1.5 2.2 2.7 2.6 1.1.3 2.3.2 3.7-.4 2.2-.9 4.8-2.9 7.3-5.2 1.8-1.7 5.1-2.6 8.4-2.6s6.6.9 8.4 2.6c2.5 2.3 5.1 4.3 7.3 5.2 1.3.5 2.6.7 3.7.4 1.1-.3 2.1-1.1 2.7-2.6.8-1.4 1.1-3.6 1-6.5zm-2.7 5.7c-.3.8-.8 1.3-1.4 1.4-.6.2-1.4.1-2.3-.3-2-.8-4.3-2.6-6.6-4.7-2.2-2.2-6-3.3-9.8-3.3s-7.7 1.1-9.9 3.1c-2.3 2.2-4.7 4-6.6 4.7-.9.3-1.7.5-2.3.3s-1-.6-1.4-1.4c-.5-1.1-.7-2.9-.6-5.5.1-2.5.5-5.3 1.2-7.9.6-2.5 1.4-4.7 2.4-6.5 3.1-5.5 6.7-4.6 11-3.4 1.8.5 3.6.9 5.6 1.1H23.3c2.1-.2 3.9-.6 5.7-1.1 4.3-1.1 8-2.1 11.1 3.6 1 1.7 1.8 3.9 2.4 6.5.6 2.6 1.1 5.4 1.2 7.9.2 2.5 0 4.3-.5 5.5z"/>
    <path class="st1" d="M17.7 17.6c-.6-.5-1.3-.9-2.1-1-.1-.7-.4-1.5-.9-2l-.1-.1c-.6-.6-1.4-1-2.3-1-.9 0-1.8.4-2.3 1-.5.5-.9 1.3-1 2.1-.8.1-1.5.4-2.1.9l.1.1c-.6.6-1 1.4-1 2.3s.4 1.8 1 2.3 1.3.9 2.1 1c.1.8.4 1.5 1 2.1s1.4 1 2.3 1c.9 0 1.8-.4 2.3-1s.9-1.3 1-2.1c.8-.1 1.5-.4 2.1-1s1-1.4 1-2.3-.5-1.7-1.1-2.3zm-1.4 3.2c-.2.2-.5.3-.9.3h-.8c-.6 0-1.1.5-1.1 1.1v.8c0 .3-.1.6-.3.9-.2.2-.5.3-.9.3s-.6-.1-.9-.3c-.2-.2-.3-.5-.3-.9v-.8c0-.6-.5-1.1-1.1-1.1h-.7c-.3 0-.6-.1-.9-.3-.2-.2-.3-.5-.3-.8s.1-.6.3-.9l.1-.1c.2-.2.5-.3.8-.3h.8c.6 0 1.1-.5 1.1-1.1v-.8c0-.3.1-.6.3-.9.2-.2.5-.3.9-.3s.6.1.9.3l.1.1c.2.2.3.5.3.8v.8c0 .6.5 1.1 1.1 1.1h.8c.3 0 .6.1.9.3.2.2.3.5.3.9-.1.4-.3.7-.5.9z"/>
    <circle class="st2" cx="32.9" cy="15.9" r="2"/>
    <circle class="st3" cx="32.9" cy="24" r="2"/>
    <circle class="st4" cx="28.9" cy="20" r="2"/>
    <circle class="st5" cx="37" cy="20" r="2"/>
    </g>
</svg>
