<svg xmlns="http://www.w3.org/2000/svg" viewBox="0 0 94 94">
    <g style="fill:inherit;">
    <path d="M47 13.7c-18.7 0-33.9 15.2-33.9 33.9S28.3 81.5 47 81.5s33.9-15.2 33.9-33.9S65.7 13.7 47 13.7zm0 65.9c-17.6 0-32-14.3-32-32 0-17.6 14.3-32 32-32s32 14.3 32 32-14.4 32-32 32z"/>
    <path d="M90.7 51.3l-2.8-2.9c-2.7-2.8-3.1-7.1-1-10.4l2.1-3.3c.2-.2.2-.5.1-.8s-.3-.5-.5-.6l-4.1-1.9c-3.4-1.6-5.4-5.3-4.9-9l.6-3.6c0-.3 0-.6-.2-.8-.2-.2-.4-.3-.7-.4l-4.8-.2c-3.5-.2-6.6-2.6-7.7-6l-1.1-3.7c-.1-.3-.3-.5-.5-.6s-.5-.1-.8 0l-4.5 1.7c-1 .4-1.9.5-3 .5-2.3 0-4.5-.9-6.1-2.6l-3-3.1c-.2-.2-.4-.3-.7-.3s-.5.1-.7.3l-3 3.1c-1.6 1.6-3.8 2.6-6.1 2.6-1 0-2-.2-3-.5l-4.5-1.7c-.3-.1-.6-.1-.8 0s-.4.3-.5.6l-1.1 3.7c-1.1 3.4-4.1 5.8-7.7 6l-4.8.2c-.3 0-.5.1-.7.4-.2.2-.3.5-.2.8l.6 3.6c.6 3.7-1.4 7.4-4.9 9l-4.1 1.9c-.3.1-.5.3-.5.6-.1.3 0 .6.1.8L7.3 38c2.1 3.3 1.7 7.6-1 10.4l-2.8 3c-.4.1-.5.4-.5.7s.2.5.4.7L7 55.3c3.2 2.2 4.4 6.3 3 10l-1.3 3.5c-.1.3-.1.6 0 .8.1.2.3.4.6.5l4.6 1.2c3.6.9 6.1 4 6.4 7.6l.3 3.7c0 .3.2.5.4.7s.5.2.8.2l4.8-.7c.4-.1.8-.1 1.2-.1 3 0 5.8 1.6 7.3 4.1l2.1 3.5c.1.2.4.4.6.5.3.1.5 0 .8-.1l3.9-2.5c1.4-.9 3-1.3 4.6-1.3s3.2.5 4.6 1.3l3.9 2.5c.2.1.3.2.5.2h.2c.3-.1.5-.2.6-.5l2.1-3.5c1.5-2.6 4.3-4.1 7.3-4.1.4 0 .8 0 1.2.1l4.8.7c.3 0 .5 0 .8-.2.2-.2.3-.4.4-.7l.3-3.7c.3-3.7 2.8-6.7 6.4-7.6l4.6-1.2c.3-.1.5-.2.6-.5.1-.2.1-.5 0-.8L84 65.3c-1.4-3.6-.1-7.7 3-10l3.5-2.5c.2-.2.4-.4.4-.7.1-.3 0-.6-.2-.8zm-4.8 2.4c-3.9 2.8-5.4 7.8-3.7 12.3l.9 2.4-3.5.9c-4.4 1.1-7.6 4.9-7.9 9.4l-.2 2.6-3.8-.6c-.5-.1-1-.1-1.5-.1-3.7 0-7.1 2-9 5.1l-1.6 2.6-3-1.9c-1.6-1-3.6-1.6-5.6-1.6s-4 .6-5.7 1.7l-3 1.9-1.6-2.6c-1.9-3.1-5.3-5.1-9-5.1-.5 0-1 0-1.5.1l-3.8.6-.2-2.6c-.3-4.5-3.5-8.3-7.9-9.4l-3.5-.9.9-2.4c1.7-4.4.2-9.5-3.7-12.3l-2.6-1.9 2-2.1c3.3-3.5 3.9-8.8 1.3-12.9l-1.5-2.3 3.1-1.4c4.2-1.9 6.7-6.5 6-11.1l-.3-2.6 3.8-.2c4.4-.2 8.2-3.2 9.5-7.3l.7-2.7 3.5 1.3c1.2.4 2.4.7 3.6.7 2.8 0 5.5-1.2 7.5-3.2L47 5.6 49.3 8c2 2 4.7 3.2 7.5 3.2 1.2 0 2.5-.2 3.6-.7L64 9.3l.8 2.7c1.3 4.2 5.1 7.1 9.5 7.3l3.8.2-.5 2.5c-.7 4.6 1.8 9.1 6 11.1l3.1 1.4-1.5 2.3c-2.6 4.1-2.1 9.4 1.3 12.9l2 2.1-2.6 1.9z"/>
    <path d="M41.5 66.8h3.3c1.2 0 2.2-1 2.2-2.2v-9.9c0-.6.5-1.1 1.1-1.1h8.8c6.6 0 6.6-6.6 6.6-6.6v-6.6c0-8.8-6.6-8.8-6.6-8.8H32.7c-1.2 0-2.2 1-2.2 2.2v5.5c0 1.2 1 2.2 2.2 2.2h19.8s2.2 0 2.2 2.2-2.2 2.2-2.2 2.2h-11c-1.2 0-2.2 1-2.2 2.2v16.5c0 1.2 1 2.2 2.2 2.2z"/>
    </g>
</svg>
