<svg xmlns="http://www.w3.org/2000/svg" viewBox="0 0 94 94">
    <g style="fill:inherit">
    <path d="M82 20.3c-7.1-7.1-16.5-11-26.5-11s-19.4 3.9-26.5 11c-14.6 14.6-14.6 38.4 0 53 7.1 7.1 16.5 11 26.5 11s19.4-3.9 26.5-11c7.1-7.1 11-16.5 11-26.5s-3.9-19.5-11-26.5zM57 62c-2 1.7-4.3 2.8-6.1 2.8-.6 0-1.4-.1-1.9-.7-.6-.7-.7-1.8-.2-3.1.5-1.6 1.7-3.2 3.2-4.6 2-1.7 4.3-2.8 6.1-2.8.6 0 1.4.1 1.9.7 1.5 1.6-.4 5.3-3 7.7zm-9 4.1c.8.6 1.8.9 2.9.9 2.4 0 5.2-1.3 7.6-3.4 3.6-3.2 5.1-7.3 3.8-9.9 8.6-8.6 15.9-18.2 21.4-28 1.5 2 2.7 4 3.7 6.2-5.4 9.3-12.2 18.2-20.5 26.4-8.2 8.2-17.1 15.1-26.4 20.5-2.2-1-4.3-2.3-6.2-3.7 4.7-2.7 9.2-5.6 13.7-9zM70.9 15c-5.4 9.4-12.3 18.3-20.6 26.6S33.1 56.8 23.7 62.1c-.9-1.8-1.6-3.7-2.1-5.6 8.6-5.2 16.8-11.7 24.4-19.3 7.6-7.6 14.1-15.8 19.3-24.4 2 .6 3.8 1.3 5.6 2.2zm-40.3 6.8c6.7-6.7 15.5-10.3 24.9-10.3 1.1 0 2.2.1 3.3.2C54.1 19 48.4 26 41.9 32.5c-.4.4-.4 1.1 0 1.6.2.2.5.3.8.3.3 0 .6-.1.8-.3 6.8-6.8 12.9-14.4 17.8-22.1.6.1 1.3.2 1.9.4-5.2 8.1-11.4 16-18.7 23.3-7.3 7.3-15.2 13.6-23.4 18.6-2.5-11.3.7-23.7 9.5-32.5zm-5.8 42.3c9.6-5.5 18.7-12.5 27.1-20.9 8.4-8.4 15.5-17.6 20.9-27.1 2.7 1.6 5.3 3.5 7.6 5.8.6.6 1.2 1.3 1.8 2-5.3 9.7-12.7 19.5-21.4 28.1-.7-.5-1.6-.7-2.7-.7-2.4 0-5.2 1.3-7.6 3.4-1.8 1.6-3.2 3.6-3.9 5.5-.5 1.6-.5 3-.1 4.1-4.6 3.5-9.3 6.5-14.1 9.1-.7-.6-1.3-1.2-2-1.8-2.1-2.2-4-4.8-5.6-7.5zm55.7 7.6C73.8 78.4 64.9 82 55.5 82c-2.3 0-4.6-.2-6.8-.7 2.9-1.8 5.7-3.8 8.5-5.9.5-.4.6-1.1.2-1.5-.4-.5-1.1-.6-1.5-.2-3 2.3-7 4.9-10.2 6.9-.9-.2-1.7-.5-2.5-.8 9-5.3 17.5-12 25.4-20 7.9-7.9 14.6-16.5 20-25.4.3.8.6 1.7.8 2.5-3.6 5.9-8.5 12.6-13.3 18.1-.4.5-.4 1.2.1 1.6.2.2.5.3.7.3.3 0 .6-.1.8-.4 4.7-5.3 8.8-10.8 12.4-16.5.4 2.2.6 4.5.6 6.8.1 9.4-3.6 18.2-10.2 24.9z"/>
    <path d="M6.5 30C2.9 30 0 33 0 36.5 0 40.1 2.9 43 6.5 43s6.5-2.9 6.5-6.5C13 33 10.1 30 6.5 30zm0 10.8c-2.4 0-4.3-1.9-4.3-4.3s1.9-4.3 4.3-4.3 4.3 1.9 4.3 4.3-1.9 4.3-4.3 4.3z"/>
    <path d="M55.9 60.7c-1.8 1.6-3.8 2.2-4.5 1.3-.7-.8.1-2.8 1.8-4.3 1.8-1.6 3.8-2.2 4.5-1.3.7.8-.1 2.8-1.8 4.3z"/>
    </g>
</svg>
