<svg xmlns="http://www.w3.org/2000/svg" viewBox="0 0 30 30">
    <path style="fill: inherit;" d=" M 15 0 C 6.75 0 0 6.898 0 15.329 C 0 22.131 4.313 27.88 10.219 29.892 C 10.969 29.988 11.25 29.604 11.25 29.125 C 11.25 28.742 11.25 27.784 11.25 26.539 C 7.031 27.497 6.188 24.527 6.188 24.527 C 5.531 22.802 4.5 22.323 4.5 22.323 C 3.094 21.365 4.594 21.365 4.594 21.365 C 6.094 21.461 6.938 22.898 6.938 22.898 C 8.25 25.197 10.406 24.527 11.344 24.143 C 11.438 23.185 11.906 22.515 12.281 22.131 C 8.906 21.748 5.438 20.407 5.438 14.563 C 5.438 12.934 6 11.497 6.938 10.443 C 6.75 10.06 6.281 8.527 7.125 6.419 C 7.125 6.419 8.344 6.036 11.25 7.952 C 12.469 7.569 13.688 7.473 15 7.473 C 16.313 7.473 17.531 7.665 18.75 7.952 C 21.656 5.94 22.875 6.419 22.875 6.419 C 23.719 8.527 23.156 10.06 23.063 10.443 C 24 11.497 24.563 12.838 24.563 14.563 C 24.563 20.407 21.094 21.748 17.719 22.131 C 18.281 22.61 18.75 23.569 18.75 25.006 C 18.75 27.018 18.75 28.742 18.75 29.221 C 18.75 29.604 19.031 30.083 19.781 29.988 C 25.688 27.88 30 22.131 30 15.329 C 30 6.898 23.25 0 15 0 Z "/>
</svg>
