<svg id="Слой_1" xmlns="http://www.w3.org/2000/svg" viewBox="0 0 84 84">
    <path style="fill:inherit;" d="M42 60.6c6.4 0 12.3-3.1 15.9-8.4h.5c2.2 0 4-1.7 4-3.9 0-1.2-.5-2.3-1.5-3.1 2.2-10.5-4.5-20.7-15-22.9s-20.7 4.5-22.9 15S27.5 58 38 60.2c1.3.3 2.7.4 4 .4zm0-35.7c9 0 16.3 7.3 16.3 16.3 0 1.1-.1 2.1-.3 3.2-2.2.2-3.8 2.1-3.6 4.2.1.8.4 1.5.8 2.1-5.2 7.4-15.5 9.1-22.8 3.8S23.3 39 28.6 31.7c3.1-4.3 8.1-6.8 13.4-6.8zm0 50.6c18.9 0 34.2-15.3 34.2-34.2 0-11.9-6.2-23-16.4-29.2v-.4c0-2.2-1.8-4-3.9-4-1.1 0-2.1.4-2.8 1.2-17.9-6.2-37.4 3.4-43.5 21.2S13 67.5 30.8 73.6c3.6 1.3 7.4 1.9 11.2 1.9zM42 10c3.4 0 6.8.6 10 1.6 0 2.2 1.8 3.9 4 3.9.9 0 1.8-.3 2.5-.9 14.7 9.1 19.2 28.3 10.1 43s-28.3 19.2-43 10.1-19.2-28.3-10.1-43C21.2 15.6 31.2 10 42 10zm41.5 31.2c0 .8-.7 1.5-1.5 1.5s-1.5-.7-1.5-1.5c0-4.1-.6-8.1-1.9-12-.2-.8.2-1.6 1-1.9.8-.2 1.5.2 1.8.9 1.4 4.3 2.1 8.7 2.1 13zm-2.8 15.2c-2.9 7.3-7.8 13.7-14.1 18.3-.7.5-1.6.3-2.1-.3-.5-.7-.3-1.6.3-2.1 5.9-4.3 10.4-10.2 13.1-17 .3-.8 1.2-1.1 2-.8.7.3 1 1.1.8 1.9zM47.9 80.9c.1.8-.5 1.6-1.3 1.7-1.5.2-3.1.3-4.6.3-7.3 0-14.4-1.9-20.7-5.6-1.7 1.3-4.2.9-5.5-.9-.7-1-.9-2.3-.6-3.4-1.4-1.2-2.7-2.4-3.9-3.8-.5-.7-.4-1.6.3-2.1.6-.4 1.4-.4 1.9.1 1.1 1.2 2.3 2.4 3.6 3.4.6-.3 1.3-.5 1.9-.6 2.2 0 3.9 1.7 4 3.9 0 .3 0 .5-.1.8 5.8 3.4 12.4 5.1 19.2 5.1 1.4 0 2.9-.1 4.3-.2.7-.1 1.4.4 1.5 1.3zM5 30.6c-.8 2.9-1.3 5.8-1.5 8.8 0 .8-.7 1.4-1.5 1.4h-.1c-.8 0-1.5-.7-1.4-1.6.2-3.2.7-6.4 1.6-9.5.2-.8 1-1.3 1.8-1.1.8.2 1.3 1 1.1 1.8v.2zm5.5-14.1c-.6-.5-.7-1.5-.2-2.1C15.6 8.1 22.7 3.5 30.7 1.3c.8-.2 1.6.2 1.9 1 .2.8-.2 1.6-1 1.9-7.4 2.1-13.9 6.3-18.9 12.2-.6.6-1.6.6-2.2.1zm53.3-8.9c.5-.7 1.4-.8 2.1-.4 4.8 3.4 8.9 7.8 11.9 12.8.4.7.2 1.6-.5 2.1-.7.4-1.6.2-2.1-.5-2.8-4.7-6.5-8.8-11-11.9-.7-.4-.9-1.4-.4-2.1 0 .1 0 0 0 0zM42 67.8c14.7 0 26.6-11.9 26.6-26.6S56.7 14.6 42 14.6c-9.6 0-18.5 5.2-23.2 13.6h-.2c-2.2 0-3.9 1.8-3.9 3.9 0 1.2.5 2.3 1.5 3.1-3.3 14.3 5.6 28.6 19.9 31.9 1.8.5 3.9.7 5.9.7zm0-50.2c13 0 23.6 10.5 23.6 23.6S55.1 64.8 42.1 64.9 18.5 54.3 18.4 41.3c0-1.7.2-3.5.6-5.2 2.2-.2 3.7-2.1 3.6-4.3-.1-.9-.4-1.7-1-2.3 4.1-7.3 11.9-11.8 20.4-11.9zm0 31c4.1 0 7.5-3.3 7.5-7.5 0-4.1-3.3-7.5-7.5-7.5-4.1 0-7.5 3.3-7.5 7.5s3.4 7.6 7.5 7.5c0 .1 0 .1 0 0zm0-11.9c2.5 0 4.4 2 4.4 4.5s-2 4.4-4.4 4.4c-2.5 0-4.5-2-4.5-4.4.1-2.4 2.1-4.4 4.5-4.5z"/>
</svg>
