<svg xmlns="http://www.w3.org/2000/svg" viewBox="0 0 84 84">
    <path style="fill:inherit" d="M50.3 73.4c-1.8 0-3.2 1.4-3.2 3.2s1.4 3.2 3.2 3.2c1.8 0 3.2-1.4 3.2-3.2 0-1.8-1.4-3.2-3.2-3.2zm-.1 3.2c0-.1 0-.2.1-.2s.2 0 .2.1v.1c0 .1-.3.1-.3 0zM18.7 56.7c-2.7 0-4.8 2.2-4.8 4.8 0 2.7 2.2 4.8 4.8 4.8s4.8-2.2 4.8-4.8c0-2.6-2.2-4.8-4.8-4.8zm0 6.7c-1 0-1.8-.8-1.8-1.8s.8-1.8 1.8-1.8 1.8.8 1.8 1.8-.8 1.8-1.8 1.8zM67 50.1c-1.8 0-3.2 1.4-3.2 3.2 0 1.8 1.4 3.2 3.2 3.2 1.8 0 3.2-1.4 3.2-3.2 0-1.8-1.4-3.2-3.2-3.2zm-.2 3.1c0-.1.1-.1.2-.1s.1.1.1.1c.1.2-.3.2-.3 0zm-45.7-30c.7-.4 1.6-.1 2 .7l.8 1.6c.4.7.2 1.6-.6 2-.7.4-1.6.2-2-.6 0 0 0-.1-.1-.1l-.8-1.6c-.3-.8 0-1.7.7-2zm-5-10c.7-.4 1.6-.1 2 .7l2.7 5.4c.4.7.2 1.6-.6 2-.7.4-1.6.2-2-.6 0 0 0-.1-.1-.1l-2.7-5.4c-.3-.7 0-1.6.7-2 0 0 .1 0 0 0zm-1.6-1.6c-.6 0-1.1-.3-1.3-.8l-2.1-4.2c-.4-.7-.2-1.6.6-2 .7-.4 1.6-.2 2 .6 0 0 0 .1.1.1l2.1 4.2c.4.7.1 1.6-.7 2-.1 0-.4.1-.7.1zm26-3V6.8c0-.8.7-1.5 1.5-1.5s1.5.7 1.5 1.5v1.8c0 .8-.7 1.5-1.5 1.5s-1.5-.7-1.5-1.5zm0 14.2v-9.5c0-.8.7-1.5 1.5-1.5s1.5.7 1.5 1.5v9.5c0 .8-.7 1.5-1.5 1.5s-1.5-.7-1.5-1.5zM12.9 33.6c.6.6.6 1.5.1 2.1s-1.5.6-2.1.1c0 0-.1 0-.1-.1L8.2 33c-.6-.6-.5-1.6.1-2.1s1.5-.5 2 0l2.6 2.7zm-6.5-6.4c.6.5.6 1.5.1 2.1s-1.5.6-2.1.1c0 0-.1 0-.1-.1L.9 26c-.6-.6-.5-1.6.1-2.1s1.5-.5 2 0l3.4 3.3zm53.7-1.8l3.6-7.1c.4-.7 1.3-1 2-.6s.9 1.2.6 1.9l-3.6 7.1c-.4.7-1.3 1-2 .6-.7-.3-.9-1.2-.6-1.9zm5.5-11l.6-1.3c.4-.7 1.3-1 2-.6s.9 1.2.6 1.9l-.6 1.3c-.3.8-1.2 1.1-2 .8-.8-.3-1.1-1.2-.8-2 .1 0 .1 0 .2-.1zm3.2-6.5l1.1-2.2c.4-.7 1.3-1 2-.6s.9 1.2.6 1.9l-1.1 2.2c-.3.8-1.2 1.1-2 .8-.8-.3-1.1-1.2-.8-2 .2 0 .2-.1.2-.1zM75.9 31c.6.6.6 1.5 0 2.1l-2.6 2.6c-.6.6-1.6.5-2.1-.1s-.5-1.5 0-2l2.6-2.6c.6-.6 1.5-.6 2.1 0zm7.2-5l-3.3 3.3c-.6.6-1.6.5-2.1-.1s-.5-1.5 0-2l3.3-3.3c.6-.6 1.6-.5 2.1.1.5.5.5 1.4 0 2zm-40 40l26.7-26.7v-.1l.3-.3v-.1-.1c.1-.3.1-.6 0-.9v-.2c-.1-.1-.2-.3-.3-.4v-.1l-6.7-6.7c-.1-.1-.2-.2-.4-.3h-.2l-10-3.3h-21l-10 3.3h-.1c-.1.1-.3.2-.4.3l-6.7 6.7v.1c-.1.1-.2.2-.3.4v.2c-.1.3-.1.6 0 .9v.2c.1.1.2.3.3.4v.1L40.9 66h.1l.1.1.1.1.2.1.1.1h.2c.2.1.5.1.7 0h.2l.1-.1.2-.1.1-.1.1-.1zm-2.6-7.5l-9.4-18.8h9.4v18.8zm3-18.8h9.4l-9.4 18.8V39.7zm7.8-8.7l.5 1.4 1.4 4.3h-7.6l5.7-5.7zm-20.6 5.7l1.4-4.3.5-1.4 5.7 5.7h-7.6zm16.8 20.6l3.4-6.9 5.3-10.7H65L47.5 57.3zM59 36.7l3-3 3 3h-6zm-3-1.3l-1.6-4.9 4.9 1.6-3.3 3.3zm-12.5-.8v-4.9h4.9l-4.9 4.9zm-3-4.9v4.9l-4.9-4.9h4.9zm-10.9.9L28 35.5l-3.2-3.2 4.8-1.7zM22 33.7l3 3h-6l3-3zm-3 6h8.8l5.3 10.7 3.4 6.9L19 39.7z"/>
</svg>
